SplineFontDB: 3.0
FontName: Coda-Regular
FullName: Coda Regular
FamilyName: Coda
Weight: Book
Copyright: Copyright (c) 2010, 2011 Vernon Adams (vern@newtypography.co.uk), with Reserved Font Name "Coda" and "Coda Caption".
Version: 1.002
ItalicAngle: 0
UnderlinePosition: -103
UnderlineWidth: 102
Ascent: 1638
Descent: 410
sfntRevision: 0x00010000
LayerCount: 2
Layer: 0 1 "Back"  1
Layer: 1 1 "Fore"  0
XUID: [1021 288 713564382 1782810]
FSType: 0
OS2Version: 4
OS2_WeightWidthSlopeOnly: 0
OS2_UseTypoMetrics: 1
CreationTime: 1317971520
ModificationTime: 1318204688
PfmFamily: 17
TTFWeight: 400
TTFWidth: 5
LineGap: 0
VLineGap: 0
Panose: 2 11 5 0 0 0 0 0 0 4
OS2TypoAscent: 767
OS2TypoAOffset: 1
OS2TypoDescent: -287
OS2TypoDOffset: 1
OS2TypoLinegap: 0
OS2WinAscent: 261
OS2WinAOffset: 1
OS2WinDescent: 0
OS2WinDOffset: 1
HheadAscent: 261
HheadAOffset: 1
HheadDescent: 0
HheadDOffset: 1
OS2SubXSize: 1331
OS2SubYSize: 1228
OS2SubXOff: 0
OS2SubYOff: 153
OS2SupXSize: 1331
OS2SupYSize: 1228
OS2SupXOff: 0
OS2SupYOff: 716
OS2StrikeYSize: 102
OS2StrikeYPos: 660
OS2Vendor: 'newt'
OS2CodePages: 20000093.00000000
OS2UnicodeRanges: 00000007.00000000.00000000.00000000
Lookup: 4 0 1 "'liga' Standard Ligatures lookup 0"  {"'liga' Standard Ligatures lookup 0 subtable"  } ['liga' ('DFLT' <'dflt' > ) ]
Lookup: 258 0 0 "'kern' Horizontal Kerning lookup 0"  {"'kern' Horizontal Kerning lookup 0 subtable"  } ['kern' ('DFLT' <'dflt' > ) ]
MarkAttachClasses: 1
DEI: 91125
KernClass2: 1+ 2 "'kern' Horizontal Kerning lookup 0 subtable" 
 3 T V
 11 a c e g o q
 0 {} -82 {}
ShortTable: maxp 16
  1
  0
  352
  132
  5
  105
  4
  2
  0
  1
  1
  0
  64
  0
  2
  2
EndShort
LangName: 1033 "" "" "" "FontForge 2.0 : Coda Regular : 9-10-2011" "" "" "" "" "" "" "" "" "" "" "http://scripts.sil.org/OFL" 
GaspTable: 1 65535 2
Encoding: UnicodeBmp
UnicodeInterp: none
NameList: Adobe Glyph List
DisplaySize: -48
AntiAlias: 1
FitToEm: 1
WinInfo: 50 25 10
BeginPrivate: 0
EndPrivate
BeginChars: 65538 352

StartChar: exclam
Encoding: 33 33 5
Width: 492
GlyphClass: 2
Flags: W
LayerCount: 2
Fore
SplineSet
148 0 m 1,0,1
 148 38 148 38 148.5 114 c 128,-1,2
 149 190 149 190 149 228 c 1,3,-1
 345 228 l 1,4,5
 345 190 345 190 345.5 114 c 128,-1,6
 346 38 346 38 346 0 c 1,7,-1
 148 0 l 1,0,1
246 498 m 128,-1,9
 220 498 220 498 217 534 c 0,10,11
 138 1364 138 1364 138 1418 c 0,12,13
 138 1490 138 1490 162 1523 c 128,-1,14
 186 1556 186 1556 246 1556 c 128,-1,15
 306 1556 306 1556 330 1523 c 128,-1,16
 354 1490 354 1490 354 1418 c 0,17,18
 354 1364 354 1364 275 534 c 0,19,8
 272 498 272 498 246 498 c 128,-1,9
EndSplineSet
EndChar

StartChar: quotedbl
Encoding: 34 34 6
Width: 697
GlyphClass: 2
Flags: W
LayerCount: 2
Fore
SplineSet
200 929 m 1,0,1
 125 1284 125 1284 125 1363 c 0,2,3
 125 1440 125 1440 142 1470 c 128,-1,4
 159 1500 159 1500 212 1500 c 0,5,6
 298 1500 298 1500 298 1378 c 0,7,8
 298 1341 298 1341 280 1227.5 c 128,-1,9
 262 1114 262 1114 244 1018 c 1,10,-1
 225 923 l 1,11,-1
 200 929 l 1,0,1
479 929 m 1,12,13
 404 1284 404 1284 404 1363 c 0,14,15
 404 1440 404 1440 421 1470 c 128,-1,16
 438 1500 438 1500 491 1500 c 0,17,18
 577 1500 577 1500 577 1378 c 0,19,20
 577 1341 577 1341 558.5 1227.5 c 128,-1,21
 540 1114 540 1114 522 1018 c 2,22,-1
 504 923 l 1,23,-1
 479 929 l 1,12,13
EndSplineSet
EndChar

StartChar: numbersign
Encoding: 35 35 7
Width: 1418
GlyphClass: 2
Flags: W
LayerCount: 2
Fore
SplineSet
1275 406 m 1,0,-1
 996 406 l 1,1,-1
 926 0 l 1,2,-1
 750 0 l 1,3,-1
 820 406 l 1,4,-1
 492 406 l 1,5,-1
 420 0 l 1,6,-1
 243 0 l 1,7,-1
 312 406 l 1,8,-1
 37 406 l 1,9,-1
 64 561 l 1,10,-1
 338 561 l 1,11,-1
 405 963 l 1,12,-1
 135 963 l 1,13,-1
 162 1131 l 1,14,-1
 434 1131 l 1,15,-1
 498 1490 l 1,16,-1
 680 1490 l 1,17,-1
 617 1131 l 1,18,-1
 939 1131 l 1,19,-1
 1001 1490 l 1,20,-1
 1177 1490 l 1,21,-1
 1116 1131 l 1,22,-1
 1389 1131 l 1,23,-1
 1366 963 l 1,24,-1
 1088 963 l 1,25,-1
 1021 561 l 1,26,-1
 1298 561 l 1,27,-1
 1275 406 l 1,0,-1
844 561 m 1,28,-1
 912 963 l 1,29,-1
 588 963 l 1,30,-1
 519 561 l 1,31,-1
 844 561 l 1,28,-1
EndSplineSet
EndChar

StartChar: dollar
Encoding: 36 36 8
Width: 1176
GlyphClass: 2
Flags: W
LayerCount: 2
Fore
SplineSet
608 -176 m 1,0,-1
 608 1641 l 1,1,-1
 702 1641 l 1,2,-1
 702 -176 l 1,3,-1
 608 -176 l 1,0,-1
1156 437 m 128,-1,5
 1156 372 1156 372 1152 319.5 c 128,-1,6
 1148 267 1148 267 1137.5 223.5 c 128,-1,7
 1127 180 1127 180 1115 147 c 128,-1,8
 1103 114 1103 114 1081 88.5 c 128,-1,9
 1059 63 1059 63 1037.5 45 c 128,-1,10
 1016 27 1016 27 981.5 14.5 c 128,-1,11
 947 2 947 2 915 -5.5 c 128,-1,12
 883 -13 883 -13 835 -17 c 128,-1,13
 787 -21 787 -21 743.5 -22.5 c 128,-1,14
 700 -24 700 -24 637 -24 c 0,15,16
 518 -24 518 -24 437.5 -17 c 128,-1,17
 357 -10 357 -10 300.5 13 c 128,-1,18
 244 36 244 36 213 60.5 c 128,-1,19
 182 85 182 85 164 138.5 c 128,-1,20
 146 192 146 192 140.5 241 c 128,-1,21
 135 290 135 290 131 380 c 1,22,-1
 316 410 l 1,23,24
 319 388 319 388 322 348 c 0,25,26
 328 286 328 286 333.5 260.5 c 128,-1,27
 339 235 339 235 355 204 c 128,-1,28
 371 173 371 173 405 163.5 c 128,-1,29
 439 154 439 154 494 147 c 128,-1,30
 549 140 549 140 641 140 c 0,31,32
 729 140 729 140 784 144.5 c 128,-1,33
 839 149 839 149 875 157 c 128,-1,34
 911 165 911 165 927.5 183 c 128,-1,35
 944 201 944 201 949.5 222.5 c 128,-1,36
 955 244 955 244 955 281 c 0,37,38
 955 297 955 297 955 326 c 0,39,40
 955 517 955 517 944.5 577 c 128,-1,41
 934 637 934 637 883 646 c 2,42,-1
 385 733 l 2,43,44
 255 755 255 755 204 832 c 128,-1,45
 153 909 153 909 150 1081 c 1,46,47
 150 1173 150 1173 159.5 1238.5 c 128,-1,48
 169 1304 169 1304 192.5 1353.5 c 128,-1,49
 216 1403 216 1403 250.5 1433 c 128,-1,50
 285 1463 285 1463 341.5 1481.5 c 128,-1,51
 398 1500 398 1500 465.5 1506.5 c 128,-1,52
 533 1513 533 1513 631 1513 c 0,53,54
 711 1513 711 1513 768.5 1509.5 c 128,-1,55
 826 1506 826 1506 880.5 1497 c 128,-1,56
 935 1488 935 1488 971 1472 c 128,-1,57
 1007 1456 1007 1456 1037.5 1430.5 c 128,-1,58
 1068 1405 1068 1405 1085 1368.5 c 128,-1,59
 1102 1332 1102 1332 1111 1283 c 128,-1,60
 1120 1234 1120 1234 1120 1170 c 1,61,-1
 942 1129 l 1,62,63
 932 1239 932 1239 929 1254 c 0,64,65
 917 1305 917 1305 872 1323 c 0,66,67
 822 1344 822 1344 663 1344 c 0,68,69
 576 1344 576 1344 519.5 1339 c 128,-1,70
 463 1334 463 1334 427 1324.5 c 128,-1,71
 391 1315 391 1315 373.5 1296 c 128,-1,72
 356 1277 356 1277 350 1255.5 c 128,-1,73
 344 1234 344 1234 344 1199 c 2,74,-1
 344 1026 l 2,75,76
 344 934 344 934 426 918 c 1,77,-1
 784 857 l 1,78,79
 845 845 845 845 873.5 838.5 c 128,-1,80
 902 832 902 832 947.5 819 c 128,-1,81
 993 806 993 806 1013.5 793 c 128,-1,82
 1034 780 1034 780 1064 758 c 128,-1,83
 1094 736 1094 736 1106 708.5 c 128,-1,84
 1118 681 1118 681 1132.5 642 c 128,-1,85
 1147 603 1147 603 1151.5 552.5 c 128,-1,4
 1156 502 1156 502 1156 437 c 128,-1,5
EndSplineSet
EndChar

StartChar: percent
Encoding: 37 37 9
Width: 2216
GlyphClass: 2
Flags: W
LayerCount: 2
Fore
SplineSet
2099 480 m 0,0,1
 2099 298 2099 298 2022.5 232 c 128,-1,2
 1946 166 1946 166 1748 166 c 0,3,4
 1695 166 1695 166 1655 168.5 c 128,-1,5
 1615 171 1615 171 1580.5 181 c 128,-1,6
 1546 191 1546 191 1521.5 198.5 c 128,-1,7
 1497 206 1497 206 1477.5 229.5 c 128,-1,8
 1458 253 1458 253 1445.5 269.5 c 128,-1,9
 1433 286 1433 286 1424 326 c 128,-1,10
 1415 366 1415 366 1411 394 c 128,-1,11
 1407 422 1407 422 1404.5 481.5 c 128,-1,12
 1402 541 1402 541 1401.5 583 c 128,-1,13
 1401 625 1401 625 1401 706 c 0,14,15
 1401 801 1401 801 1418.5 861.5 c 128,-1,16
 1436 922 1436 922 1479.5 957.5 c 128,-1,17
 1523 993 1523 993 1585.5 1006.5 c 128,-1,18
 1648 1020 1648 1020 1748 1020 c 0,19,20
 1814 1020 1814 1020 1861.5 1016 c 128,-1,21
 1909 1012 1909 1012 1947.5 996 c 128,-1,22
 1986 980 1986 980 2010 965.5 c 128,-1,23
 2034 951 2034 951 2052 913 c 128,-1,24
 2070 875 2070 875 2078.5 844.5 c 128,-1,25
 2087 814 2087 814 2092 748 c 128,-1,26
 2097 682 2097 682 2098 630 c 128,-1,27
 2099 578 2099 578 2099 480 c 0,0,1
1381 1573 m 1,28,29
 1110 454 1110 454 999 1 c 1,30,-1
 831 1 l 1,31,32
 1007 728 1007 728 1210 1573 c 1,33,-1
 1381 1573 l 1,28,29
1944 628 m 2,34,35
 1944 785 1944 785 1935 821 c 0,36,37
 1924 867 1924 867 1884 880 c 0,38,39
 1854 889 1854 889 1748 889 c 0,40,41
 1714 889 1714 889 1697.5 889 c 128,-1,42
 1681 889 1681 889 1657 887 c 128,-1,43
 1633 885 1633 885 1624 883 c 128,-1,44
 1615 881 1615 881 1599.5 874 c 128,-1,45
 1584 867 1584 867 1579.5 860 c 128,-1,46
 1575 853 1575 853 1567 839 c 128,-1,47
 1559 825 1559 825 1557.5 810.5 c 128,-1,48
 1556 796 1556 796 1552.5 772 c 128,-1,49
 1549 748 1549 748 1549 723 c 128,-1,50
 1549 698 1549 698 1549 661 c 0,51,52
 1549 630 1549 630 1549 577 c 0,53,54
 1548 496 1548 496 1548.5 463.5 c 128,-1,55
 1549 431 1549 431 1555 389.5 c 128,-1,56
 1561 348 1561 348 1569.5 337.5 c 128,-1,57
 1578 327 1578 327 1602 313.5 c 128,-1,58
 1626 300 1626 300 1653 299 c 128,-1,59
 1680 298 1680 298 1731 298 c 0,60,61
 1786 298 1786 298 1816.5 299.5 c 128,-1,62
 1847 301 1847 301 1874.5 310 c 128,-1,63
 1902 319 1902 319 1913 330 c 128,-1,64
 1924 341 1924 341 1932.5 368.5 c 128,-1,65
 1941 396 1941 396 1942.5 426.5 c 128,-1,66
 1944 457 1944 457 1944 512 c 2,67,-1
 1944 628 l 2,34,35
816 898 m 0,68,69
 816 716 816 716 739.5 650 c 128,-1,70
 663 584 663 584 465 584 c 0,71,72
 412 584 412 584 372 586.5 c 128,-1,73
 332 589 332 589 297.5 599 c 128,-1,74
 263 609 263 609 238.5 616.5 c 128,-1,75
 214 624 214 624 194.5 647.5 c 128,-1,76
 175 671 175 671 162.5 687.5 c 128,-1,77
 150 704 150 704 141 744 c 128,-1,78
 132 784 132 784 128 812 c 128,-1,79
 124 840 124 840 121.5 899.5 c 128,-1,80
 119 959 119 959 118.5 1001 c 128,-1,81
 118 1043 118 1043 118 1124 c 0,82,83
 118 1219 118 1219 135.5 1279.5 c 128,-1,84
 153 1340 153 1340 196.5 1375.5 c 128,-1,85
 240 1411 240 1411 302.5 1424.5 c 128,-1,86
 365 1438 365 1438 465 1438 c 0,87,88
 531 1438 531 1438 578.5 1434 c 128,-1,89
 626 1430 626 1430 664.5 1414 c 128,-1,90
 703 1398 703 1398 727 1383.5 c 128,-1,91
 751 1369 751 1369 769 1331 c 128,-1,92
 787 1293 787 1293 795.5 1262.5 c 128,-1,93
 804 1232 804 1232 809 1166 c 128,-1,94
 814 1100 814 1100 815 1048 c 128,-1,95
 816 996 816 996 816 898 c 0,68,69
661 1046 m 2,96,97
 661 1203 661 1203 652 1239 c 0,98,99
 641 1285 641 1285 601 1298 c 0,100,101
 571 1307 571 1307 465 1307 c 0,102,103
 431 1307 431 1307 414.5 1307 c 128,-1,104
 398 1307 398 1307 374 1305 c 128,-1,105
 350 1303 350 1303 341 1301 c 128,-1,106
 332 1299 332 1299 316.5 1292 c 128,-1,107
 301 1285 301 1285 296.5 1278 c 128,-1,108
 292 1271 292 1271 284 1257 c 128,-1,109
 276 1243 276 1243 274.5 1228.5 c 128,-1,110
 273 1214 273 1214 269.5 1190 c 128,-1,111
 266 1166 266 1166 266 1141 c 128,-1,112
 266 1116 266 1116 266 1079 c 0,113,114
 266 1048 266 1048 266 995 c 0,115,116
 265 914 265 914 265.5 881.5 c 128,-1,117
 266 849 266 849 272 807.5 c 128,-1,118
 278 766 278 766 286.5 755.5 c 128,-1,119
 295 745 295 745 319 731.5 c 128,-1,120
 343 718 343 718 370 717 c 128,-1,121
 397 716 397 716 448 716 c 0,122,123
 503 716 503 716 533.5 717.5 c 128,-1,124
 564 719 564 719 591.5 728 c 128,-1,125
 619 737 619 737 630 748 c 128,-1,126
 641 759 641 759 649.5 786.5 c 128,-1,127
 658 814 658 814 659.5 844.5 c 128,-1,128
 661 875 661 875 661 930 c 2,129,-1
 661 1046 l 2,96,97
EndSplineSet
EndChar

StartChar: ampersand
Encoding: 38 38 10
Width: 1386
GlyphClass: 2
Flags: W
LayerCount: 2
Fore
SplineSet
1179 250 m 0,0,1
 1179 196 1179 196 1161.5 153.5 c 128,-1,2
 1144 111 1144 111 1117 82.5 c 128,-1,3
 1090 54 1090 54 1043.5 34 c 128,-1,4
 997 14 997 14 953.5 3 c 128,-1,5
 910 -8 910 -8 845 -14 c 128,-1,6
 780 -20 780 -20 729.5 -21.5 c 128,-1,7
 679 -23 679 -23 606 -23 c 0,8,9
 491 -23 491 -23 414 -12.5 c 128,-1,10
 337 -2 337 -2 275.5 24.5 c 128,-1,11
 214 51 214 51 180 99.5 c 128,-1,12
 146 148 146 148 129 221.5 c 128,-1,13
 112 295 112 295 112 402 c 0,14,15
 112 584 112 584 167.5 694 c 128,-1,16
 223 804 223 804 326 825 c 1,17,18
 175 872 175 872 175 1183 c 1,19,20
 178 1253 178 1253 193 1306.5 c 128,-1,21
 208 1360 208 1360 228.5 1395.5 c 128,-1,22
 249 1431 249 1431 287 1455.5 c 128,-1,23
 325 1480 325 1480 357 1493 c 128,-1,24
 389 1506 389 1506 445.5 1512.5 c 128,-1,25
 502 1519 502 1519 541 1520.5 c 128,-1,26
 580 1522 580 1522 648 1522 c 0,27,28
 743 1522 743 1522 801.5 1520 c 128,-1,29
 860 1518 860 1518 923 1511.5 c 128,-1,30
 986 1505 986 1505 1022 1492 c 128,-1,31
 1058 1479 1058 1479 1089.5 1456.5 c 128,-1,32
 1121 1434 1121 1434 1135.5 1401 c 128,-1,33
 1150 1368 1150 1368 1154 1322 c 1,34,35
 1161 1269 1161 1269 1161 1208 c 1,36,-1
 1009 1183 l 1,37,38
 1007 1226 1007 1226 999.5 1256 c 128,-1,39
 992 1286 992 1286 977 1305 c 128,-1,40
 962 1324 962 1324 943.5 1334.5 c 128,-1,41
 925 1345 925 1345 894.5 1350 c 128,-1,42
 864 1355 864 1355 832 1356 c 128,-1,43
 800 1357 800 1357 752 1357 c 0,44,45
 723 1357 723 1357 707 1357 c 0,46,47
 518 1356 518 1356 469 1344 c 0,48,49
 407 1330 407 1330 388 1281 c 1,50,51
 372 1232 372 1232 372 1089 c 0,52,53
 372 992 372 992 390 939 c 128,-1,54
 408 886 408 886 437 869.5 c 128,-1,55
 466 853 466 853 515 853 c 2,56,-1
 996 853 l 1,57,-1
 996 962 l 1,58,-1
 1179 962 l 1,59,-1
 1179 853 l 1,60,-1
 1312 853 l 1,61,-1
 1312 728 l 1,62,-1
 1178 727 l 1,63,64
 1179 359 1179 359 1179 250 c 0,0,1
996 236 m 1,65,-1
 996 728 l 1,66,-1
 459 728 l 2,67,68
 427 728 427 728 404 719.5 c 128,-1,69
 381 711 381 711 364.5 699 c 128,-1,70
 348 687 348 687 337.5 660 c 128,-1,71
 327 633 327 633 321 610 c 128,-1,72
 315 587 315 587 312 541 c 128,-1,73
 309 495 309 495 308.5 460.5 c 128,-1,74
 308 426 308 426 308 362 c 0,75,76
 308 327 308 327 309 307.5 c 128,-1,77
 310 288 310 288 313 263 c 128,-1,78
 316 238 316 238 322.5 225 c 128,-1,79
 329 212 329 212 340 196.5 c 128,-1,80
 351 181 351 181 369 173.5 c 128,-1,81
 387 166 387 166 411 157.5 c 128,-1,82
 435 149 435 149 469 145.5 c 128,-1,83
 503 142 503 142 545 140 c 128,-1,84
 587 138 587 138 642 138 c 0,85,86
 834 138 834 138 911.5 161 c 128,-1,87
 989 184 989 184 996 236 c 1,65,-1
EndSplineSet
EndChar

StartChar: quotesingle
Encoding: 39 39 11
Width: 434
GlyphClass: 2
Flags: W
LayerCount: 2
Fore
SplineSet
200 929 m 1,0,1
 125 1284 125 1284 125 1363 c 0,2,3
 125 1440 125 1440 142 1470 c 128,-1,4
 159 1500 159 1500 212 1500 c 0,5,6
 298 1500 298 1500 298 1378 c 0,7,8
 298 1341 298 1341 280 1227.5 c 128,-1,9
 262 1114 262 1114 244 1018 c 1,10,-1
 225 923 l 1,11,-1
 200 929 l 1,0,1
EndSplineSet
EndChar

StartChar: parenleft
Encoding: 40 40 12
Width: 653
GlyphClass: 2
Flags: W
LayerCount: 2
Fore
SplineSet
119 727 m 2,0,-1
 119 729 l 2,1,2
 119 887 119 887 135.5 1021.5 c 128,-1,3
 152 1156 152 1156 191.5 1275.5 c 128,-1,4
 231 1395 231 1395 291 1481 c 128,-1,5
 351 1567 351 1567 442.5 1621 c 128,-1,6
 534 1675 534 1675 651 1685 c 1,7,-1
 666 1548 l 1,8,9
 568 1533 568 1533 498 1469.5 c 128,-1,10
 428 1406 428 1406 387.5 1296.5 c 128,-1,11
 347 1187 347 1187 328.5 1048.5 c 128,-1,12
 310 910 310 910 310 728 c 128,-1,13
 310 546 310 546 328.5 407.5 c 128,-1,14
 347 269 347 269 387.5 159.5 c 128,-1,15
 428 50 428 50 498 -13.5 c 128,-1,16
 568 -77 568 -77 666 -92 c 1,17,-1
 651 -229 l 1,18,19
 534 -219 534 -219 442.5 -165 c 128,-1,20
 351 -111 351 -111 291 -25 c 128,-1,21
 231 61 231 61 191.5 180.5 c 128,-1,22
 152 300 152 300 135.5 434.5 c 128,-1,23
 119 569 119 569 119 727 c 2,0,-1
EndSplineSet
EndChar

StartChar: parenright
Encoding: 41 41 13
Width: 649
GlyphClass: 2
Flags: W
LayerCount: 2
Fore
SplineSet
534 729 m 2,0,-1
 534 727 l 2,1,2
 534 569 534 569 517.5 434.5 c 128,-1,3
 501 300 501 300 461.5 180.5 c 128,-1,4
 422 61 422 61 362 -25 c 128,-1,5
 302 -111 302 -111 210.5 -165 c 128,-1,6
 119 -219 119 -219 2 -229 c 1,7,-1
 -13 -92 l 1,8,9
 85 -77 85 -77 155 -13.5 c 128,-1,10
 225 50 225 50 265.5 159.5 c 128,-1,11
 306 269 306 269 324.5 407.5 c 128,-1,12
 343 546 343 546 343 728 c 128,-1,13
 343 910 343 910 324.5 1048.5 c 128,-1,14
 306 1187 306 1187 265.5 1296.5 c 128,-1,15
 225 1406 225 1406 155 1469.5 c 128,-1,16
 85 1533 85 1533 -13 1548 c 1,17,-1
 2 1685 l 1,18,19
 119 1675 119 1675 210.5 1621 c 128,-1,20
 302 1567 302 1567 362 1481 c 128,-1,21
 422 1395 422 1395 461.5 1275.5 c 128,-1,22
 501 1156 501 1156 517.5 1021.5 c 128,-1,23
 534 887 534 887 534 729 c 2,0,-1
EndSplineSet
EndChar

StartChar: asterisk
Encoding: 42 42 14
Width: 1014
GlyphClass: 2
Flags: W
LayerCount: 2
Fore
SplineSet
698 574 m 0,0,1
 674 574 674 574 651.5 598 c 128,-1,2
 629 622 629 622 612 658.5 c 128,-1,3
 595 695 595 695 578 749 c 128,-1,4
 561 803 561 803 549.5 851 c 128,-1,5
 538 899 538 899 524 957 c 0,6,7
 519 978 519 978 517 988 c 1,8,9
 507 950 507 950 494.5 902 c 128,-1,10
 482 854 482 854 474 824.5 c 128,-1,11
 466 795 466 795 456.5 759 c 128,-1,12
 447 723 447 723 440 701.5 c 128,-1,13
 433 680 433 680 423.5 656.5 c 128,-1,14
 414 633 414 633 405 620 c 128,-1,15
 396 607 396 607 385 595 c 128,-1,16
 374 583 374 583 361.5 578.5 c 128,-1,17
 349 574 349 574 334 574 c 0,18,19
 307 574 307 574 281 597.5 c 128,-1,20
 255 621 255 621 255 648 c 0,21,22
 255 671 255 671 266.5 699 c 128,-1,23
 278 727 278 727 292 750 c 128,-1,24
 306 773 306 773 339.5 814 c 128,-1,25
 373 855 373 855 393.5 878 c 128,-1,26
 414 901 414 901 463 955 c 0,27,28
 488 983 488 983 501 997 c 1,29,30
 488 993 488 993 428 975 c 128,-1,31
 368 957 368 957 347 951 c 128,-1,32
 326 945 326 945 284 934 c 128,-1,33
 242 923 242 923 216 919 c 128,-1,34
 190 915 190 915 168 915 c 0,35,36
 67 915 67 915 67 1006 c 0,37,38
 67 1096 67 1096 166 1096 c 0,39,40
 201 1096 201 1096 263.5 1080.5 c 128,-1,41
 326 1065 326 1065 405.5 1040.5 c 128,-1,42
 485 1016 485 1016 501 1012 c 1,43,44
 245 1289 245 1289 245 1344 c 0,45,46
 245 1384 245 1384 268.5 1410 c 128,-1,47
 292 1436 292 1436 332 1436 c 0,48,49
 354 1436 354 1436 374 1421.5 c 128,-1,50
 394 1407 394 1407 411.5 1371.5 c 128,-1,51
 429 1336 429 1336 441 1308 c 128,-1,52
 453 1280 453 1280 469 1220 c 128,-1,53
 485 1160 485 1160 492 1132 c 128,-1,54
 499 1104 499 1104 514 1035 c 0,55,56
 515 1031 515 1031 515.5 1028 c 128,-1,57
 516 1025 516 1025 517 1022 c 1,58,59
 527 1060 527 1060 538 1114 c 0,60,61
 538 1115 538 1115 541.5 1132.5 c 128,-1,62
 545 1150 545 1150 549 1171.5 c 128,-1,63
 553 1193 553 1193 561 1223 c 128,-1,64
 569 1253 569 1253 578 1281.5 c 128,-1,65
 587 1310 587 1310 599.5 1338.5 c 128,-1,66
 612 1367 612 1367 626 1388 c 128,-1,67
 640 1409 640 1409 658.5 1422.5 c 128,-1,68
 677 1436 677 1436 696 1436 c 0,69,70
 727 1436 727 1436 751.5 1412 c 128,-1,71
 776 1388 776 1388 776 1353 c 0,72,73
 776 1308 776 1308 728 1237.5 c 128,-1,74
 680 1167 680 1167 534 1012 c 1,75,76
 576 1025 576 1025 647.5 1047 c 128,-1,77
 719 1069 719 1069 742.5 1076 c 128,-1,78
 766 1083 766 1083 801 1089.5 c 128,-1,79
 836 1096 836 1096 865 1096 c 0,80,81
 964 1096 964 1096 964 1006 c 0,82,83
 964 915 964 915 861 915 c 0,84,85
 833 915 833 915 784.5 925.5 c 128,-1,86
 736 936 736 936 700.5 946 c 128,-1,87
 665 956 665 956 605.5 975 c 128,-1,88
 546 994 546 994 534 997 c 1,89,90
 790 715 790 715 790 664 c 0,91,92
 790 624 790 624 764.5 599 c 128,-1,93
 739 574 739 574 698 574 c 0,0,1
EndSplineSet
EndChar

StartChar: plus
Encoding: 43 43 15
Width: 889
GlyphClass: 2
Flags: W
LayerCount: 2
Fore
SplineSet
58 585 m 1,0,-1
 58 754 l 1,1,-1
 365 754 l 1,2,-1
 365 1117 l 1,3,-1
 531 1117 l 1,4,-1
 531 754 l 1,5,-1
 839 754 l 1,6,-1
 839 585 l 1,7,-1
 531 585 l 1,8,-1
 531 223 l 1,9,-1
 365 223 l 1,10,-1
 365 585 l 1,11,-1
 58 585 l 1,0,-1
EndSplineSet
EndChar

StartChar: comma
Encoding: 44 44 16
Width: 515
GlyphClass: 2
Flags: W
LayerCount: 2
Fore
SplineSet
95 -159 m 1,0,1
 162 -159 162 -159 214.5 -112 c 128,-1,2
 267 -65 267 -65 267 0 c 1,3,4
 204 0 204 0 163.5 45 c 128,-1,5
 123 90 123 90 123 154 c 0,6,7
 123 221 123 221 162.5 265 c 128,-1,8
 202 309 202 309 270 309 c 0,9,10
 334 309 334 309 372.5 256.5 c 128,-1,11
 411 204 411 204 411 130 c 0,12,13
 411 46 411 46 377 -37.5 c 128,-1,14
 343 -121 343 -121 282.5 -176 c 128,-1,15
 222 -231 222 -231 155 -231 c 0,16,17
 110 -231 110 -231 95 -227 c 1,18,-1
 95 -159 l 1,0,1
EndSplineSet
EndChar

StartChar: hyphen
Encoding: 45 45 17
Width: 847
GlyphClass: 2
Flags: W
LayerCount: 2
Fore
SplineSet
132 538 m 1,0,-1
 132 677 l 1,1,-1
 719 677 l 1,2,-1
 719 538 l 1,3,-1
 132 538 l 1,0,-1
EndSplineSet
EndChar

StartChar: period
Encoding: 46 46 18
Width: 500
GlyphClass: 2
Flags: W
LayerCount: 2
Fore
SplineSet
392 117 m 0,0,1
 392 46 392 46 351.5 7.5 c 128,-1,2
 311 -31 311 -31 254 -31 c 128,-1,3
 197 -31 197 -31 154 8.5 c 128,-1,4
 111 48 111 48 111 117 c 0,5,6
 111 187 111 187 151.5 225.5 c 128,-1,7
 192 264 192 264 248 264 c 0,8,9
 306 264 306 264 349 224.5 c 128,-1,10
 392 185 392 185 392 117 c 0,0,1
EndSplineSet
EndChar

StartChar: slash
Encoding: 47 47 19
Width: 629
GlyphClass: 2
Flags: W
LayerCount: 2
Fore
SplineSet
581 1516 m 1,0,-1
 215 -26 l 1,1,-1
 36 -26 l 1,2,-1
 403 1516 l 1,3,-1
 581 1516 l 1,0,-1
EndSplineSet
EndChar

StartChar: zero
Encoding: 48 48 20
Width: 1260
GlyphClass: 2
Flags: W
LayerCount: 2
Fore
SplineSet
632 -16 m 0,0,1
 539 -16 539 -16 468 -6.5 c 128,-1,2
 397 3 397 3 344.5 32 c 128,-1,3
 292 61 292 61 255.5 88 c 128,-1,4
 219 115 219 115 195.5 175.5 c 128,-1,5
 172 236 172 236 158.5 282 c 128,-1,6
 145 328 145 328 139 421.5 c 128,-1,7
 133 515 133 515 131.5 582 c 128,-1,8
 130 649 130 649 130 776 c 0,9,10
 130 860 130 860 131.5 921.5 c 128,-1,11
 133 983 133 983 138 1048.5 c 128,-1,12
 143 1114 143 1114 151.5 1160.5 c 128,-1,13
 160 1207 160 1207 174 1254.5 c 128,-1,14
 188 1302 188 1302 208.5 1334 c 128,-1,15
 229 1366 229 1366 257 1396.5 c 128,-1,16
 285 1427 285 1427 321 1445.5 c 128,-1,17
 357 1464 357 1464 403 1479 c 128,-1,18
 449 1494 449 1494 506 1500 c 128,-1,19
 563 1506 563 1506 632 1506 c 0,20,21
 727 1506 727 1506 799 1493 c 128,-1,22
 871 1480 871 1480 924.5 1455.5 c 128,-1,23
 978 1431 978 1431 1015 1388 c 128,-1,24
 1052 1345 1052 1345 1075.5 1295.5 c 128,-1,25
 1099 1246 1099 1246 1112 1170.5 c 128,-1,26
 1125 1095 1125 1095 1129.5 1016.5 c 128,-1,27
 1134 938 1134 938 1134 829 c 0,28,29
 1134 502 1134 502 1122 391 c 0,30,31
 1101 188 1101 188 1017 98 c 0,32,33
 917 -8 917 -8 676 -15 c 0,34,35
 655 -16 655 -16 632 -16 c 0,0,1
632 1357 m 0,36,37
 481 1357 481 1357 406.5 1314.5 c 128,-1,38
 332 1272 332 1272 327 1179 c 0,39,40
 323 1116 323 1116 321 1044 c 128,-1,41
 319 972 319 972 317.5 880.5 c 128,-1,42
 316 789 316 789 315 740 c 1,43,44
 315 473 315 473 326 301 c 0,45,46
 331 216 331 216 404 177 c 128,-1,47
 477 138 477 138 632 138 c 128,-1,48
 787 138 787 138 860 177 c 128,-1,49
 933 216 933 216 938 301 c 0,50,51
 949 473 949 473 949 740 c 1,52,53
 947 788 947 788 944.5 943 c 128,-1,54
 942 1098 942 1098 937 1179 c 0,55,56
 931 1272 931 1272 856.5 1314.5 c 128,-1,57
 782 1357 782 1357 632 1357 c 0,36,37
EndSplineSet
EndChar

StartChar: one
Encoding: 49 49 21
Width: 584
GlyphClass: 2
Flags: W
LayerCount: 2
Fore
SplineSet
417 0 m 1,0,-1
 230 0 l 1,1,-1
 230 1244 l 1,2,-1
 45 1244 l 1,3,-1
 45 1336 l 1,4,5
 205 1342 205 1342 262 1482 c 1,6,-1
 417 1482 l 1,7,-1
 417 0 l 1,0,-1
EndSplineSet
EndChar

StartChar: two
Encoding: 50 50 22
Width: 1095
GlyphClass: 2
Flags: W
LayerCount: 2
Fore
SplineSet
957 9 m 1,0,-1
 94 9 l 1,1,2
 95 165 95 165 114.5 259.5 c 128,-1,3
 134 354 134 354 180 419 c 128,-1,4
 226 484 226 484 314 546 c 0,5,6
 373 587 373 587 443.5 630 c 128,-1,7
 514 673 514 673 554 696.5 c 128,-1,8
 594 720 594 720 639 752 c 128,-1,9
 684 784 684 784 707.5 812 c 128,-1,10
 731 840 731 840 752 881 c 128,-1,11
 773 922 773 922 781 974.5 c 128,-1,12
 789 1027 789 1027 789 1098 c 0,13,14
 789 1141 789 1141 788.5 1164.5 c 128,-1,15
 788 1188 788 1188 784.5 1219.5 c 128,-1,16
 781 1251 781 1251 774.5 1267 c 128,-1,17
 768 1283 768 1283 756.5 1303 c 128,-1,18
 745 1323 745 1323 727.5 1332.5 c 128,-1,19
 710 1342 710 1342 685 1351.5 c 128,-1,20
 660 1361 660 1361 626 1364.5 c 128,-1,21
 592 1368 592 1368 548 1368 c 0,22,23
 465 1368 465 1368 417.5 1360.5 c 128,-1,24
 370 1353 370 1353 333.5 1327 c 128,-1,25
 297 1301 297 1301 280.5 1253.5 c 128,-1,26
 264 1206 264 1206 257 1125 c 1,27,-1
 109 1160 l 1,28,29
 108 1169 108 1169 108 1187 c 0,30,31
 108 1358 108 1358 215 1432.5 c 128,-1,32
 322 1507 322 1507 533 1507 c 0,33,34
 615 1507 615 1507 674 1500.5 c 128,-1,35
 733 1494 733 1494 785 1477 c 128,-1,36
 837 1460 837 1460 871 1430.5 c 128,-1,37
 905 1401 905 1401 929.5 1355.5 c 128,-1,38
 954 1310 954 1310 964.5 1246.5 c 128,-1,39
 975 1183 975 1183 975 1098 c 0,40,41
 975 960 975 960 941.5 866.5 c 128,-1,42
 908 773 908 773 846 713 c 128,-1,43
 784 653 784 653 675 594 c 0,44,45
 649 579 649 579 606.5 555 c 128,-1,46
 564 531 564 531 541.5 518 c 128,-1,47
 519 505 519 505 484.5 484 c 128,-1,48
 450 463 450 463 432 449 c 128,-1,49
 414 435 414 435 388 413 c 128,-1,50
 362 391 362 391 348.5 372.5 c 128,-1,51
 335 354 335 354 319 328 c 128,-1,52
 303 302 303 302 295 275.5 c 128,-1,53
 287 249 287 249 281.5 216 c 128,-1,54
 276 183 276 183 275 146 c 1,55,-1
 957 146 l 1,56,-1
 957 9 l 1,0,-1
EndSplineSet
EndChar

StartChar: three
Encoding: 51 51 23
Width: 1124
GlyphClass: 2
Flags: W
LayerCount: 2
Fore
SplineSet
1002 420 m 1,0,1
 1002 314 1002 314 980 237.5 c 128,-1,2
 958 161 958 161 919 112 c 128,-1,3
 880 63 880 63 816 34.5 c 128,-1,4
 752 6 752 6 678 -5 c 128,-1,5
 604 -16 604 -16 502 -16 c 0,6,7
 395 -16 395 -16 322 -4.5 c 128,-1,8
 249 7 249 7 191.5 37.5 c 128,-1,9
 134 68 134 68 106.5 124 c 128,-1,10
 79 180 79 180 79 265 c 0,11,12
 79 304 79 304 80 328 c 1,13,-1
 240 351 l 1,14,15
 241 339 241 339 242.5 317.5 c 128,-1,16
 244 296 244 296 245.5 278.5 c 128,-1,17
 247 261 247 261 249 245 c 0,18,19
 257 175 257 175 319.5 148.5 c 128,-1,20
 382 122 382 122 526 122 c 0,21,22
 603 122 603 122 650 124.5 c 128,-1,23
 697 127 697 127 732.5 143.5 c 128,-1,24
 768 160 768 160 783.5 173.5 c 128,-1,25
 799 187 799 187 808.5 231 c 128,-1,26
 818 275 818 275 819 308 c 128,-1,27
 820 341 820 341 820 421 c 0,28,29
 820 423 820 423 820 424 c 0,30,31
 820 507 820 507 806 558 c 128,-1,32
 792 609 792 609 773 638.5 c 128,-1,33
 754 668 754 668 697 680.5 c 128,-1,34
 640 693 640 693 594.5 695.5 c 128,-1,35
 549 698 549 698 441 698 c 0,36,37
 437 698 437 698 435 698 c 1,38,-1
 427 840 l 1,39,40
 550 840 550 840 588 841 c 0,41,42
 655 843 655 843 698 857 c 128,-1,43
 741 871 741 871 764.5 889 c 128,-1,44
 788 907 788 907 798.5 954 c 128,-1,45
 809 1001 809 1001 811 1036.5 c 128,-1,46
 813 1072 813 1072 813 1155 c 0,47,48
 813 1166 813 1166 813 1172 c 0,49,50
 813 1232 813 1232 804 1266 c 128,-1,51
 795 1300 795 1300 765 1325 c 128,-1,52
 735 1350 735 1350 681 1359 c 128,-1,53
 627 1368 627 1368 534 1368 c 0,54,55
 381 1368 381 1368 323 1344 c 128,-1,56
 265 1320 265 1320 260 1253 c 2,57,-1
 251 1144 l 1,58,-1
 97 1174 l 1,59,-1
 97 1202 l 2,60,61
 97 1273 97 1273 107 1319 c 128,-1,62
 117 1365 117 1365 144 1403 c 128,-1,63
 171 1441 171 1441 222 1461.5 c 128,-1,64
 273 1482 273 1482 351 1493 c 128,-1,65
 429 1504 429 1504 546 1506 c 1,66,67
 779 1506 779 1506 886 1417.5 c 128,-1,68
 993 1329 993 1329 993 1134 c 0,69,70
 993 1043 993 1043 975.5 973.5 c 128,-1,71
 958 904 958 904 935 868.5 c 128,-1,72
 912 833 912 833 879.5 810 c 128,-1,73
 847 787 847 787 827.5 780.5 c 128,-1,74
 808 774 808 774 788 770 c 0,75,76
 783 769 783 769 781 769 c 1,77,78
 796 766 796 766 807.5 763.5 c 128,-1,79
 819 761 819 761 843 750.5 c 128,-1,80
 867 740 867 740 885.5 725.5 c 128,-1,81
 904 711 904 711 927 684 c 128,-1,82
 950 657 950 657 965 622.5 c 128,-1,83
 980 588 980 588 990.5 535.5 c 128,-1,84
 1001 483 1001 483 1002 420 c 1,0,1
EndSplineSet
EndChar

StartChar: four
Encoding: 52 52 24
Width: 1060
GlyphClass: 2
Flags: W
LayerCount: 2
Fore
SplineSet
991 390 m 1,0,-1
 852 390 l 1,1,-1
 852 0 l 1,2,-1
 667 0 l 1,3,-1
 667 389 l 1,4,-1
 45 389 l 1,5,-1
 45 539 l 1,6,-1
 563 1482 l 1,7,-1
 852 1482 l 1,8,-1
 852 521 l 1,9,-1
 991 521 l 1,10,-1
 991 390 l 1,0,-1
667 1379 m 1,11,12
 650 1344 650 1344 616 1276.5 c 128,-1,13
 582 1209 582 1209 570 1185 c 2,14,-1
 335 713 l 2,15,16
 319 680 319 680 286 615.5 c 128,-1,17
 253 551 253 551 238 521 c 1,18,-1
 667 521 l 1,19,-1
 667 1379 l 1,11,12
EndSplineSet
EndChar

StartChar: five
Encoding: 53 53 25
Width: 1197
GlyphClass: 2
Flags: W
LayerCount: 2
Fore
SplineSet
1088 460 m 0,0,1
 1088 359 1088 359 1077.5 286.5 c 128,-1,2
 1067 214 1067 214 1041.5 160 c 128,-1,3
 1016 106 1016 106 979.5 73 c 128,-1,4
 943 40 943 40 883.5 19.5 c 128,-1,5
 824 -1 824 -1 753.5 -8.5 c 128,-1,6
 683 -16 683 -16 583 -16 c 0,7,8
 523 -16 523 -16 477 -13 c 128,-1,9
 431 -10 431 -10 383 -2 c 128,-1,10
 335 6 335 6 301 20 c 128,-1,11
 267 34 267 34 235.5 56.5 c 128,-1,12
 204 79 204 79 185 111 c 128,-1,13
 166 143 166 143 155 187.5 c 128,-1,14
 144 232 144 232 144 289 c 0,15,16
 144 299 144 299 145 320.5 c 128,-1,17
 146 342 146 342 146 354 c 1,18,-1
 297 375 l 1,19,20
 302 316 302 316 307 284 c 128,-1,21
 312 252 312 252 324 220.5 c 128,-1,22
 336 189 336 189 352.5 175.5 c 128,-1,23
 369 162 369 162 402 150.5 c 128,-1,24
 435 139 435 139 476.5 136 c 128,-1,25
 518 133 518 133 584 133 c 0,26,27
 670 133 670 133 730.5 145 c 128,-1,28
 791 157 791 157 826 176.5 c 128,-1,29
 861 196 861 196 880 229.5 c 128,-1,30
 899 263 899 263 905 297 c 128,-1,31
 911 331 911 331 911 381 c 0,32,33
 911 402 911 402 909.5 450.5 c 128,-1,34
 908 499 908 499 908 526 c 0,35,36
 908 578 908 578 907.5 605 c 128,-1,37
 907 632 907 632 902.5 666 c 128,-1,38
 898 700 898 700 891 715 c 128,-1,39
 884 730 884 730 868.5 749 c 128,-1,40
 853 768 853 768 832.5 775 c 128,-1,41
 812 782 812 782 779 789.5 c 128,-1,42
 746 797 746 797 705.5 798.5 c 128,-1,43
 665 800 665 800 608 800 c 0,44,45
 564 800 564 800 537 799 c 128,-1,46
 510 798 510 798 477 793.5 c 128,-1,47
 444 789 444 789 424 779 c 128,-1,48
 404 769 404 769 383.5 752.5 c 128,-1,49
 363 736 363 736 351 710.5 c 128,-1,50
 339 685 339 685 333 649 c 1,51,-1
 159 662 l 1,52,-1
 159 1484 l 1,53,-1
 1001 1484 l 1,54,-1
 1001 1330 l 1,55,-1
 356 1330 l 1,56,-1
 324 761 l 1,57,58
 339 798 339 798 352.5 822 c 128,-1,59
 366 846 366 846 391 873 c 128,-1,60
 416 900 416 900 448 915.5 c 128,-1,61
 480 931 480 931 531 941 c 128,-1,62
 582 951 582 951 648 951 c 0,63,64
 742 951 742 951 811.5 939.5 c 128,-1,65
 881 928 881 928 930 900.5 c 128,-1,66
 979 873 979 873 1009.5 836.5 c 128,-1,67
 1040 800 1040 800 1057.5 741.5 c 128,-1,68
 1075 683 1075 683 1081.5 618 c 128,-1,69
 1088 553 1088 553 1088 460 c 0,0,1
EndSplineSet
EndChar

StartChar: six
Encoding: 54 54 26
Width: 1245
GlyphClass: 2
Flags: W
LayerCount: 2
Fore
SplineSet
1138 488 m 1,0,1
 1138 386 1138 386 1130 314 c 128,-1,2
 1122 242 1122 242 1100.5 183 c 128,-1,3
 1079 124 1079 124 1046 88 c 128,-1,4
 1013 52 1013 52 959 27.5 c 128,-1,5
 905 3 905 3 835 -6.5 c 128,-1,6
 765 -16 765 -16 667 -16 c 0,7,8
 541 -16 541 -16 457 -5.5 c 128,-1,9
 373 5 373 5 311.5 38.5 c 128,-1,10
 250 72 250 72 216.5 114 c 128,-1,11
 183 156 183 156 163.5 240.5 c 128,-1,12
 144 325 144 325 139 414.5 c 128,-1,13
 134 504 134 504 134 655 c 0,14,15
 134 983 134 983 143 1082 c 0,16,17
 160 1285 160 1285 236 1375 c 0,18,19
 324 1480 324 1480 541 1496 c 0,20,21
 589 1500 589 1500 644 1500 c 0,22,23
 711 1500 711 1500 758.5 1497.5 c 128,-1,24
 806 1495 806 1495 857 1487 c 128,-1,25
 908 1479 908 1479 942 1463.5 c 128,-1,26
 976 1448 976 1448 1004.5 1423.5 c 128,-1,27
 1033 1399 1033 1399 1046.5 1361 c 128,-1,28
 1060 1323 1060 1323 1060 1272 c 0,29,30
 1060 1253 1060 1253 1052 1173 c 1,31,32
 967 1164 967 1164 892 1152 c 1,33,34
 892 1197 892 1197 891.5 1218 c 128,-1,35
 891 1239 891 1239 887.5 1267 c 128,-1,36
 884 1295 884 1295 879 1305.5 c 128,-1,37
 874 1316 874 1316 860.5 1331 c 128,-1,38
 847 1346 847 1346 832.5 1349.5 c 128,-1,39
 818 1353 818 1353 790 1358 c 128,-1,40
 762 1363 762 1363 732 1363.5 c 128,-1,41
 702 1364 702 1364 654 1364 c 1,42,43
 475 1359 475 1359 410 1323.5 c 128,-1,44
 345 1288 345 1288 337 1187 c 1,45,46
 327 963 327 963 323 782 c 1,47,48
 352 835 352 835 391.5 870 c 128,-1,49
 431 905 431 905 498 926.5 c 128,-1,50
 565 948 565 948 657 948 c 0,51,52
 728 948 728 948 781 944.5 c 128,-1,53
 834 941 834 941 883 931.5 c 128,-1,54
 932 922 932 922 966.5 906 c 128,-1,55
 1001 890 1001 890 1031 865 c 128,-1,56
 1061 840 1061 840 1079.5 806 c 128,-1,57
 1098 772 1098 772 1112 725 c 128,-1,58
 1126 678 1126 678 1131.5 620 c 128,-1,59
 1137 562 1137 562 1138 488 c 1,0,1
956 333 m 0,60,61
 956 612 956 612 954 643 c 0,62,63
 949 732 949 732 885 762 c 128,-1,64
 821 792 821 792 642 794 c 0,65,66
 563 794 563 794 507.5 787.5 c 128,-1,67
 452 781 452 781 416.5 763 c 128,-1,68
 381 745 381 745 361.5 728 c 128,-1,69
 342 711 342 711 333 673 c 128,-1,70
 324 635 324 635 322 607.5 c 128,-1,71
 320 580 320 580 320 524 c 0,72,73
 320 493 320 493 319 442 c 128,-1,74
 318 391 318 391 318 370 c 0,75,76
 318 313 318 313 323.5 278.5 c 128,-1,77
 329 244 329 244 347 210.5 c 128,-1,78
 365 177 365 177 400 159.5 c 128,-1,79
 435 142 435 142 494.5 131.5 c 128,-1,80
 554 121 554 121 641 121 c 0,81,82
 705 121 705 121 752 125 c 128,-1,83
 799 129 799 129 833 135.5 c 128,-1,84
 867 142 867 142 889.5 156 c 128,-1,85
 912 170 912 170 925.5 184 c 128,-1,86
 939 198 939 198 945.5 223 c 128,-1,87
 952 248 952 248 954 271.5 c 128,-1,88
 956 295 956 295 956 333 c 0,60,61
EndSplineSet
EndChar

StartChar: seven
Encoding: 55 55 27
Width: 847
GlyphClass: 2
Flags: W
LayerCount: 2
Fore
SplineSet
777 1482 m 1,0,-1
 777 1312 l 1,1,2
 476 533 476 533 330 0 c 1,3,-1
 146 0 l 1,4,5
 331 630 331 630 608 1330 c 1,6,-1
 33 1330 l 1,7,-1
 33 1482 l 1,8,-1
 777 1482 l 1,0,-1
EndSplineSet
EndChar

StartChar: eight
Encoding: 56 56 28
Width: 1223
GlyphClass: 2
Flags: W
LayerCount: 2
Fore
SplineSet
633 -16 m 2,0,-1
 635 -16 l 2,1,2
 524 -16 524 -16 448 -6 c 128,-1,3
 372 4 372 4 310.5 29.5 c 128,-1,4
 249 55 249 55 214.5 100.5 c 128,-1,5
 180 146 180 146 162 215 c 128,-1,6
 144 284 144 284 144 383 c 0,7,8
 144 550 144 550 189.5 643 c 128,-1,9
 235 736 235 736 326 798 c 1,10,11
 217 878 217 878 217 1132 c 0,12,13
 217 1342 217 1342 314.5 1424 c 128,-1,14
 412 1506 412 1506 634 1506 c 128,-1,15
 856 1506 856 1506 953.5 1424 c 128,-1,16
 1051 1342 1051 1342 1051 1132 c 0,17,18
 1051 878 1051 878 942 798 c 1,19,20
 1033 736 1033 736 1078.5 643 c 128,-1,21
 1124 550 1124 550 1124 383 c 0,22,23
 1124 284 1124 284 1106 215 c 128,-1,24
 1088 146 1088 146 1053.5 100.5 c 128,-1,25
 1019 55 1019 55 957.5 29.5 c 128,-1,26
 896 4 896 4 820 -6 c 128,-1,27
 744 -16 744 -16 633 -16 c 2,0,-1
633 711 m 2,28,-1
 635 711 l 2,29,30
 572 711 572 711 541.5 710 c 128,-1,31
 511 709 511 709 469.5 705.5 c 128,-1,32
 428 702 428 702 411 693 c 128,-1,33
 394 684 394 684 372 669.5 c 128,-1,34
 350 655 350 655 342.5 630.5 c 128,-1,35
 335 606 335 606 329 573 c 128,-1,36
 323 540 323 540 323 493 c 0,37,38
 323 459 323 459 321.5 401.5 c 128,-1,39
 320 344 320 344 320 320 c 0,40,41
 320 280 320 280 326 253 c 128,-1,42
 332 226 332 226 350.5 200 c 128,-1,43
 369 174 369 174 403 159.5 c 128,-1,44
 437 145 437 145 494.5 136 c 128,-1,45
 552 127 552 127 634 127 c 128,-1,46
 716 127 716 127 773.5 136 c 128,-1,47
 831 145 831 145 865 159.5 c 128,-1,48
 899 174 899 174 917.5 200 c 128,-1,49
 936 226 936 226 942 253 c 128,-1,50
 948 280 948 280 948 320 c 0,51,52
 948 344 948 344 946.5 401.5 c 128,-1,53
 945 459 945 459 945 493 c 0,54,55
 945 540 945 540 939 573 c 128,-1,56
 933 606 933 606 925.5 630.5 c 128,-1,57
 918 655 918 655 896 669.5 c 128,-1,58
 874 684 874 684 857 693 c 128,-1,59
 840 702 840 702 798.5 705.5 c 128,-1,60
 757 709 757 709 726.5 710 c 128,-1,61
 696 711 696 711 633 711 c 2,28,-1
633 1358 m 2,62,-1
 635 1358 l 2,63,64
 587 1358 587 1358 555.5 1357 c 128,-1,65
 524 1356 524 1356 495.5 1351 c 128,-1,66
 467 1346 467 1346 451 1341 c 128,-1,67
 435 1336 435 1336 421.5 1322.5 c 128,-1,68
 408 1309 408 1309 402 1296 c 128,-1,69
 396 1283 396 1283 391.5 1257 c 128,-1,70
 387 1231 387 1231 386.5 1207 c 128,-1,71
 386 1183 386 1183 386 1141 c 0,72,73
 386 904 386 904 463 855 c 1,74,-1
 633 855 l 1,75,-1
 805 855 l 1,76,77
 882 904 882 904 882 1141 c 0,78,79
 882 1183 882 1183 881.5 1207 c 128,-1,80
 881 1231 881 1231 876.5 1257 c 128,-1,81
 872 1283 872 1283 866 1296 c 128,-1,82
 860 1309 860 1309 846.5 1322.5 c 128,-1,83
 833 1336 833 1336 817 1341 c 128,-1,84
 801 1346 801 1346 772.5 1351 c 128,-1,85
 744 1356 744 1356 712.5 1357 c 128,-1,86
 681 1358 681 1358 633 1358 c 2,62,-1
EndSplineSet
EndChar

StartChar: nine
Encoding: 57 57 29
Width: 1249
GlyphClass: 2
Flags: W
LayerCount: 2
Fore
SplineSet
1118 841 m 0,0,1
 1118 495 1118 495 1109 393 c 0,2,3
 1093 198 1093 198 1024 115 c 0,4,5
 947 22 947 22 760 4 c 0,6,7
 702 -2 702 -2 627 -2 c 0,8,9
 568 -2 568 -2 528.5 -1 c 128,-1,10
 489 0 489 0 437 4.5 c 128,-1,11
 385 9 385 9 350.5 17 c 128,-1,12
 316 25 316 25 279.5 40.5 c 128,-1,13
 243 56 243 56 221.5 78 c 128,-1,14
 200 100 200 100 186 132.5 c 128,-1,15
 172 165 172 165 172 207 c 0,16,17
 172 262 172 262 181 317 c 1,18,19
 262 326 262 326 340 338 c 1,20,21
 340 299 340 299 340.5 279 c 128,-1,22
 341 259 341 259 345 232.5 c 128,-1,23
 349 206 349 206 355.5 194 c 128,-1,24
 362 182 362 182 376 167 c 128,-1,25
 390 152 390 152 409 146.5 c 128,-1,26
 428 141 428 141 458.5 134.5 c 128,-1,27
 489 128 489 128 526.5 126.5 c 128,-1,28
 564 125 564 125 617 125 c 1,29,30
 711 127 711 127 763.5 134.5 c 128,-1,31
 816 142 816 142 850.5 162.5 c 128,-1,32
 885 183 885 183 897.5 214 c 128,-1,33
 910 245 910 245 916 302 c 1,34,35
 926 532 926 532 930 719 c 1,36,37
 840 553 840 553 605 553 c 0,38,39
 510 553 510 553 443.5 560 c 128,-1,40
 377 567 377 567 320.5 585.5 c 128,-1,41
 264 604 264 604 229 635 c 128,-1,42
 194 666 194 666 169.5 717 c 128,-1,43
 145 768 145 768 135 837 c 128,-1,44
 125 906 125 906 125 1002 c 0,45,46
 125 1106 125 1106 134 1181 c 128,-1,47
 143 1256 143 1256 165.5 1313.5 c 128,-1,48
 188 1371 188 1371 222 1407 c 128,-1,49
 256 1443 256 1443 310.5 1465.5 c 128,-1,50
 365 1488 365 1488 432.5 1497 c 128,-1,51
 500 1506 500 1506 595 1506 c 0,52,53
 719 1506 719 1506 801 1495.5 c 128,-1,54
 883 1485 883 1485 943.5 1451.5 c 128,-1,55
 1004 1418 1004 1418 1037 1376 c 128,-1,56
 1070 1334 1070 1334 1089 1250.5 c 128,-1,57
 1108 1167 1108 1167 1113 1078 c 128,-1,58
 1118 989 1118 989 1118 841 c 0,0,1
933 1080 m 0,59,60
 933 1147 933 1147 931.5 1177.5 c 128,-1,61
 930 1208 930 1208 921 1249.5 c 128,-1,62
 912 1291 912 1291 893.5 1307 c 128,-1,63
 875 1323 875 1323 840 1341 c 128,-1,64
 805 1359 805 1359 752 1364 c 128,-1,65
 699 1369 699 1369 620 1369 c 0,66,67
 489 1369 489 1369 423 1352 c 128,-1,68
 357 1335 357 1335 334.5 1303 c 128,-1,69
 312 1271 312 1271 309 1206 c 1,70,71
 305 1056 305 1056 305 979 c 0,72,73
 305 913 305 913 306.5 881.5 c 128,-1,74
 308 850 308 850 318 812 c 128,-1,75
 328 774 328 774 346.5 760 c 128,-1,76
 365 746 365 746 401.5 730.5 c 128,-1,77
 438 715 438 715 489.5 711 c 128,-1,78
 541 707 541 707 621 706 c 1,79,80
 788 706 788 706 857 742.5 c 128,-1,81
 926 779 926 779 931 870 c 1,82,83
 933 939 933 939 933 1080 c 0,59,60
EndSplineSet
EndChar

StartChar: colon
Encoding: 58 58 30
Width: 537
GlyphClass: 2
Flags: W
LayerCount: 2
Fore
SplineSet
413 288 m 128,-1,1
 413 216 413 216 371 176 c 128,-1,2
 329 136 329 136 272 136 c 128,-1,3
 215 136 215 136 174 176 c 128,-1,4
 133 216 133 216 133 288 c 0,5,6
 133 361 133 361 174 401 c 128,-1,7
 215 441 215 441 271 441 c 0,8,9
 328 441 328 441 370.5 400.5 c 128,-1,0
 413 360 413 360 413 288 c 128,-1,1
133 1079 m 0,10,11
 133 1152 133 1152 174 1192 c 128,-1,12
 215 1232 215 1232 272 1232 c 128,-1,13
 329 1232 329 1232 371 1191.5 c 128,-1,14
 413 1151 413 1151 413 1079 c 0,15,16
 413 1006 413 1006 372 965.5 c 128,-1,17
 331 925 331 925 274 925 c 128,-1,18
 217 925 217 925 175 966 c 128,-1,19
 133 1007 133 1007 133 1079 c 0,10,11
EndSplineSet
EndChar

StartChar: semicolon
Encoding: 59 59 31
Width: 547
GlyphClass: 2
Flags: W
LayerCount: 2
Fore
SplineSet
423 1079 m 0,0,1
 423 1011 423 1011 385.5 968 c 128,-1,2
 348 925 348 925 283 925 c 0,3,4
 221 925 221 925 182 969.5 c 128,-1,5
 143 1014 143 1014 143 1079 c 0,6,7
 143 1146 143 1146 180.5 1189.5 c 128,-1,8
 218 1233 218 1233 283 1233 c 0,9,10
 344 1233 344 1233 383.5 1188 c 128,-1,11
 423 1143 423 1143 423 1079 c 0,0,1
111 -29 m 1,12,13
 178 -29 178 -29 230.5 18 c 128,-1,14
 283 65 283 65 283 130 c 1,15,16
 221 130 221 130 179.5 175 c 128,-1,17
 138 220 138 220 138 285 c 128,-1,18
 138 350 138 350 178 394.5 c 128,-1,19
 218 439 218 439 285 439 c 0,20,21
 348 439 348 439 387.5 386 c 128,-1,22
 427 333 427 333 427 260 c 0,23,24
 427 175 427 175 392.5 92 c 128,-1,25
 358 9 358 9 297.5 -46 c 128,-1,26
 237 -101 237 -101 170 -101 c 0,27,28
 126 -101 126 -101 111 -97 c 1,29,-1
 111 -29 l 1,12,13
EndSplineSet
EndChar

StartChar: less
Encoding: 60 60 32
Width: 874
GlyphClass: 2
Flags: W
LayerCount: 2
Fore
SplineSet
761 234 m 1,0,-1
 65 667 l 1,1,-1
 65 832 l 1,2,-1
 761 1281 l 1,3,-1
 761 1045 l 1,4,-1
 242 758 l 1,5,-1
 761 462 l 1,6,-1
 761 234 l 1,0,-1
EndSplineSet
EndChar

StartChar: equal
Encoding: 61 61 33
Width: 1138
GlyphClass: 2
Flags: W
LayerCount: 2
Fore
SplineSet
988 692 m 1,0,-1
 153 692 l 1,1,-1
 153 881 l 1,2,-1
 988 881 l 1,3,-1
 988 692 l 1,0,-1
988 314 m 1,4,-1
 153 314 l 1,5,-1
 153 503 l 1,6,-1
 988 503 l 1,7,-1
 988 314 l 1,4,-1
EndSplineSet
EndChar

StartChar: greater
Encoding: 62 62 34
Width: 878
GlyphClass: 2
Flags: W
LayerCount: 2
Fore
SplineSet
819 667 m 1,0,-1
 121 234 l 1,1,-1
 121 461 l 1,2,-1
 641 757 l 1,3,-1
 121 1045 l 1,4,-1
 121 1281 l 1,5,-1
 819 832 l 1,6,-1
 819 667 l 1,0,-1
EndSplineSet
EndChar

StartChar: question
Encoding: 63 63 35
Width: 764
GlyphClass: 2
Flags: W
LayerCount: 2
Fore
SplineSet
691 1161 m 0,0,1
 690 973 690 973 521 803 c 0,2,3
 358 639 358 639 347 483 c 1,4,-1
 244 483 l 1,5,6
 244 621 244 621 281.5 712.5 c 128,-1,7
 319 804 319 804 411 926 c 0,8,9
 457 987 457 987 475.5 1034 c 128,-1,10
 494 1081 494 1081 494 1149 c 0,11,12
 494 1234 494 1234 447.5 1283.5 c 128,-1,13
 401 1333 401 1333 314 1333 c 0,14,15
 248 1333 248 1333 87 1293 c 1,16,-1
 66 1457 l 1,17,18
 208 1522 208 1522 321 1522 c 0,19,20
 501 1522 501 1522 596 1429.5 c 128,-1,21
 691 1337 691 1337 691 1161 c 0,0,1
427 117 m 0,22,23
 427 46 427 46 386.5 7.5 c 128,-1,24
 346 -31 346 -31 289 -31 c 128,-1,25
 232 -31 232 -31 189 8.5 c 128,-1,26
 146 48 146 48 146 117 c 0,27,28
 146 187 146 187 186.5 225.5 c 128,-1,29
 227 264 227 264 283 264 c 0,30,31
 341 264 341 264 384 224.5 c 128,-1,32
 427 185 427 185 427 117 c 0,22,23
EndSplineSet
EndChar

StartChar: at
Encoding: 64 64 36
Width: 1968
GlyphClass: 2
Flags: W
LayerCount: 2
Fore
SplineSet
614 1014 m 0,0,1
 614 1069 614 1069 627 1110.5 c 128,-1,2
 640 1152 640 1152 668.5 1179.5 c 128,-1,3
 697 1207 697 1207 731.5 1224.5 c 128,-1,4
 766 1242 766 1242 819 1251 c 128,-1,5
 872 1260 872 1260 923.5 1263 c 128,-1,6
 975 1266 975 1266 1048 1266 c 0,7,8
 1436 1266 1436 1266 1436 944 c 2,9,-1
 1436 215 l 1,10,11
 1577 215 1577 215 1615 241 c 0,12,13
 1629 251 1629 251 1636.5 260.5 c 128,-1,14
 1644 270 1644 270 1651.5 282 c 128,-1,15
 1659 294 1659 294 1662.5 317 c 128,-1,16
 1666 340 1666 340 1669 364 c 128,-1,17
 1672 388 1672 388 1673 437.5 c 128,-1,18
 1674 487 1674 487 1674.5 535 c 128,-1,19
 1675 583 1675 583 1675 670 c 0,20,21
 1675 785 1675 785 1670 871 c 128,-1,22
 1665 957 1665 957 1652.5 1039.5 c 128,-1,23
 1640 1122 1640 1122 1617.5 1179.5 c 128,-1,24
 1595 1237 1595 1237 1560 1288 c 128,-1,25
 1525 1339 1525 1339 1476.5 1371.5 c 128,-1,26
 1428 1404 1428 1404 1361.5 1428 c 128,-1,27
 1295 1452 1295 1452 1210.5 1462 c 128,-1,28
 1126 1472 1126 1472 1019 1472 c 0,29,30
 880 1472 880 1472 773.5 1452 c 128,-1,31
 667 1432 667 1432 586 1388 c 128,-1,32
 505 1344 505 1344 450.5 1280 c 128,-1,33
 396 1216 396 1216 361.5 1123 c 128,-1,34
 327 1030 327 1030 312 917.5 c 128,-1,35
 297 805 297 805 297 659 c 0,36,37
 297 507 297 507 309 393.5 c 128,-1,38
 321 280 321 280 350 183 c 128,-1,39
 379 86 379 86 426.5 21 c 128,-1,40
 474 -44 474 -44 546 -90.5 c 128,-1,41
 618 -137 618 -137 715.5 -159.5 c 128,-1,42
 813 -182 813 -182 942 -184 c 1,43,44
 1182 -184 1182 -184 1571 -77 c 1,45,-1
 1619 -224 l 1,46,47
 1344 -344 1344 -344 1014 -344 c 0,48,49
 758 -344 758 -344 588.5 -294 c 128,-1,50
 419 -244 419 -244 309.5 -127 c 128,-1,51
 200 -10 200 -10 153.5 172 c 128,-1,52
 107 354 107 354 107 627 c 0,53,54
 107 892 107 892 155 1078.5 c 128,-1,55
 203 1265 203 1265 309.5 1391 c 128,-1,56
 416 1517 416 1517 586 1576 c 128,-1,57
 756 1635 756 1635 1000 1635 c 0,58,59
 1132 1635 1132 1635 1237.5 1622.5 c 128,-1,60
 1343 1610 1343 1610 1429 1582.5 c 128,-1,61
 1515 1555 1515 1555 1579.5 1515 c 128,-1,62
 1644 1475 1644 1475 1693 1415 c 128,-1,63
 1742 1355 1742 1355 1774 1283 c 128,-1,64
 1806 1211 1806 1211 1826 1114 c 128,-1,65
 1846 1017 1846 1017 1854.5 908.5 c 128,-1,66
 1863 800 1863 800 1863 662 c 0,67,68
 1863 577 1863 577 1861 519.5 c 128,-1,69
 1859 462 1859 462 1853 400.5 c 128,-1,70
 1847 339 1847 339 1835 300 c 128,-1,71
 1823 261 1823 261 1803.5 222 c 128,-1,72
 1784 183 1784 183 1755.5 160.5 c 128,-1,73
 1727 138 1727 138 1687.5 120 c 128,-1,74
 1648 102 1648 102 1595.5 94.5 c 128,-1,75
 1543 87 1543 87 1476 87 c 0,76,77
 1324 87 1324 87 1310 212 c 1,78,79
 1276 61 1276 61 893 61 c 0,80,81
 697 61 697 61 624 134.5 c 128,-1,82
 551 208 551 208 551 410 c 0,83,84
 551 599 551 599 620 685.5 c 128,-1,85
 689 772 689 772 858 772 c 0,86,87
 1015 772 1015 772 1239 732 c 1,88,-1
 1239 959 l 2,89,90
 1239 1008 1239 1008 1232 1037.5 c 128,-1,91
 1225 1067 1225 1067 1206 1081.5 c 128,-1,92
 1187 1096 1187 1096 1164 1100.5 c 128,-1,93
 1141 1105 1141 1105 1100 1105 c 2,94,-1
 891 1105 l 2,95,96
 840 1105 840 1105 812.5 1081 c 128,-1,97
 785 1057 785 1057 785 992 c 0,98,99
 785 939 785 939 789 903 c 1,100,-1
 626 903 l 1,101,102
 614 963 614 963 614 1014 c 0,0,1
985 200 m 0,103,104
 1069 200 1069 200 1121.5 209.5 c 128,-1,105
 1174 219 1174 219 1202 242.5 c 128,-1,106
 1230 266 1230 266 1239.5 296.5 c 128,-1,107
 1249 327 1249 327 1249 376 c 0,108,109
 1249 407 1249 407 1244 494.5 c 128,-1,110
 1239 582 1239 582 1239 624 c 1,111,-1
 1033 624 l 2,112,113
 1001 624 1001 624 952.5 624.5 c 128,-1,114
 904 625 904 625 888 625 c 0,115,116
 863 625 863 625 846 624.5 c 128,-1,117
 829 624 829 624 813 620.5 c 128,-1,118
 797 617 797 617 787 614 c 128,-1,119
 777 611 777 611 767.5 601 c 128,-1,120
 758 591 758 591 752.5 584 c 128,-1,121
 747 577 747 577 742.5 558.5 c 128,-1,122
 738 540 738 540 736.5 526 c 128,-1,123
 735 512 735 512 733.5 482.5 c 128,-1,124
 732 453 732 453 732 430.5 c 128,-1,125
 732 408 732 408 732 366 c 0,126,127
 732 323 732 323 736.5 299 c 128,-1,128
 741 275 741 275 754.5 253 c 128,-1,129
 768 231 768 231 796.5 221 c 128,-1,130
 825 211 825 211 870 205.5 c 128,-1,131
 915 200 915 200 985 200 c 0,103,104
EndSplineSet
EndChar

StartChar: A
Encoding: 65 65 37
Width: 1296
GlyphClass: 2
Flags: W
LayerCount: 2
Fore
SplineSet
1228 0 m 1,0,-1
 1022 0 l 1,1,-1
 909 381 l 1,2,-1
 358 381 l 1,3,-1
 249 0 l 1,4,-1
 54 0 l 1,5,-1
 511 1490 l 1,6,-1
 782 1490 l 1,7,-1
 1228 0 l 1,0,-1
867 525 m 1,8,-1
 741 972 l 1,9,-1
 637 1338 l 1,10,11
 579 1131 579 1131 535 982 c 2,12,-1
 401 525 l 1,13,-1
 867 525 l 1,8,-1
EndSplineSet
EndChar

StartChar: B
Encoding: 66 66 38
Width: 1355
GlyphClass: 2
Flags: W
LayerCount: 2
Fore
SplineSet
1221 429 m 1,0,1
 1220 366 1220 366 1216.5 318.5 c 128,-1,2
 1213 271 1213 271 1205 229 c 128,-1,3
 1197 187 1197 187 1188 158 c 128,-1,4
 1179 129 1179 129 1159.5 103.5 c 128,-1,5
 1140 78 1140 78 1122 62.5 c 128,-1,6
 1104 47 1104 47 1070.5 34.5 c 128,-1,7
 1037 22 1037 22 1006 16 c 128,-1,8
 975 10 975 10 923.5 6 c 128,-1,9
 872 2 872 2 824.5 1 c 128,-1,10
 777 0 777 0 705 0 c 2,11,-1
 171 0 l 1,12,-1
 171 1490 l 1,13,-1
 737 1490 l 2,14,15
 850 1490 850 1490 924.5 1478.5 c 128,-1,16
 999 1467 999 1467 1056.5 1437 c 128,-1,17
 1114 1407 1114 1407 1140 1352 c 128,-1,18
 1166 1297 1166 1297 1167 1212 c 2,19,-1
 1168 1104 l 2,20,21
 1168 1036 1168 1036 1163 993 c 128,-1,22
 1158 950 1158 950 1145.5 915 c 128,-1,23
 1133 880 1133 880 1108 860 c 128,-1,24
 1083 840 1083 840 1047.5 826.5 c 128,-1,25
 1012 813 1012 813 956 803 c 1,26,27
 1024 796 1024 796 1073 773 c 128,-1,28
 1122 750 1122 750 1150.5 718 c 128,-1,29
 1179 686 1179 686 1195 637 c 128,-1,30
 1211 588 1211 588 1216 541 c 128,-1,31
 1221 494 1221 494 1221 429 c 1,0,1
970 1147 m 2,32,33
 970 1149 970 1149 970 1153 c 0,34,35
 970 1195 970 1195 970 1212.5 c 128,-1,36
 970 1230 970 1230 964.5 1255.5 c 128,-1,37
 959 1281 959 1281 953.5 1289 c 128,-1,38
 948 1297 948 1297 928.5 1310.5 c 128,-1,39
 909 1324 909 1324 890 1326.5 c 128,-1,40
 871 1329 871 1329 830.5 1333.5 c 128,-1,41
 790 1338 790 1338 750 1338 c 128,-1,42
 710 1338 710 1338 641 1338 c 2,43,-1
 372 1338 l 1,44,-1
 372 860 l 1,45,-1
 573 860 l 2,46,47
 704 860 704 860 785 867.5 c 128,-1,48
 866 875 866 875 905.5 893.5 c 128,-1,49
 945 912 945 912 957.5 933 c 128,-1,50
 970 954 970 954 970 989 c 2,51,-1
 970 1147 l 2,32,33
1023 477 m 2,52,53
 1021 596 1021 596 1014 627 c 0,54,55
 1000 682 1000 682 945 702 c 0,56,57
 877 728 877 728 641 729 c 0,58,59
 625 729 625 729 606 729 c 2,60,-1
 372 729 l 1,61,-1
 372 151 l 1,62,-1
 754 151 l 2,63,64
 870 151 870 151 929 170.5 c 128,-1,65
 988 190 988 190 1007 229 c 128,-1,66
 1026 268 1026 268 1025 344 c 2,67,-1
 1023 477 l 2,52,53
EndSplineSet
EndChar

StartChar: C
Encoding: 67 67 39
Width: 1360
GlyphClass: 2
Flags: W
LayerCount: 2
Fore
SplineSet
1050 462 m 1,0,-1
 1224 436 l 1,1,2
 1219 340 1219 340 1207 272.5 c 128,-1,3
 1195 205 1195 205 1171.5 152 c 128,-1,4
 1148 99 1148 99 1114 66.5 c 128,-1,5
 1080 34 1080 34 1026.5 13 c 128,-1,6
 973 -8 973 -8 906.5 -16 c 128,-1,7
 840 -24 840 -24 746 -24 c 0,8,9
 656 -24 656 -24 585 -19.5 c 128,-1,10
 514 -15 514 -15 455.5 0.5 c 128,-1,11
 397 16 397 16 353.5 30.5 c 128,-1,12
 310 45 310 45 276.5 79 c 128,-1,13
 243 113 243 113 220.5 140 c 128,-1,14
 198 167 198 167 182.5 222.5 c 128,-1,15
 167 278 167 278 159 320 c 128,-1,16
 151 362 151 362 146.5 442 c 128,-1,17
 142 522 142 522 141 582 c 128,-1,18
 140 642 140 642 140 748 c 0,19,20
 140 860 140 860 141 928 c 128,-1,21
 142 996 142 996 147 1076 c 128,-1,22
 152 1156 152 1156 159.5 1200 c 128,-1,23
 167 1244 167 1244 183.5 1296.5 c 128,-1,24
 200 1349 200 1349 221 1374.5 c 128,-1,25
 242 1400 242 1400 276 1430 c 128,-1,26
 310 1460 310 1460 350.5 1471.5 c 128,-1,27
 391 1483 391 1483 449 1495 c 128,-1,28
 507 1507 507 1507 573.5 1510 c 128,-1,29
 640 1513 640 1513 728 1513 c 0,30,31
 819 1513 819 1513 883 1506.5 c 128,-1,32
 947 1500 947 1500 1003 1481.5 c 128,-1,33
 1059 1463 1059 1463 1095 1432.5 c 128,-1,34
 1131 1402 1131 1402 1158.5 1353 c 128,-1,35
 1186 1304 1186 1304 1201 1237.5 c 128,-1,36
 1216 1171 1216 1171 1223 1078 c 1,37,-1
 1048 1044 l 1,38,39
 1043 1095 1043 1095 1039 1129 c 128,-1,40
 1035 1163 1035 1163 1027.5 1196 c 128,-1,41
 1020 1229 1020 1229 1015.5 1249.5 c 128,-1,42
 1011 1270 1011 1270 997 1289.5 c 128,-1,43
 983 1309 983 1309 974.5 1319 c 128,-1,44
 966 1329 966 1329 943 1338 c 128,-1,45
 920 1347 920 1347 904.5 1350.5 c 128,-1,46
 889 1354 889 1354 853.5 1357 c 128,-1,47
 818 1360 818 1360 792 1360 c 128,-1,48
 766 1360 766 1360 716 1360 c 0,49,50
 646 1360 646 1360 601.5 1358.5 c 128,-1,51
 557 1357 557 1357 512.5 1351.5 c 128,-1,52
 468 1346 468 1346 442.5 1335.5 c 128,-1,53
 417 1325 417 1325 395 1307.5 c 128,-1,54
 373 1290 373 1290 363.5 1264.5 c 128,-1,55
 354 1239 354 1239 352 1203 c 0,56,57
 343 939 343 939 343 664 c 0,58,59
 343 472 343 472 352 289 c 1,60,61
 357 232 357 232 384.5 200 c 128,-1,62
 412 168 412 168 491.5 149 c 128,-1,63
 571 130 571 130 717 130 c 0,64,65
 795 130 795 130 848 134.5 c 128,-1,66
 901 139 901 139 937 155.5 c 128,-1,67
 973 172 973 172 992 185.5 c 128,-1,68
 1011 199 1011 199 1022.5 238 c 128,-1,69
 1034 277 1034 277 1037.5 303.5 c 128,-1,70
 1041 330 1041 330 1045 394 c 0,71,72
 1046 408 1046 408 1046.5 416 c 128,-1,73
 1047 424 1047 424 1048 437.5 c 128,-1,74
 1049 451 1049 451 1050 462 c 1,0,-1
EndSplineSet
EndChar

StartChar: D
Encoding: 68 68 40
Width: 1420
GlyphClass: 2
Flags: W
LayerCount: 2
Fore
SplineSet
1278 876 m 0,0,1
 1278 739 1278 739 1276.5 650.5 c 128,-1,2
 1275 562 1275 562 1267 469.5 c 128,-1,3
 1259 377 1259 377 1250 323 c 128,-1,4
 1241 269 1241 269 1216.5 212.5 c 128,-1,5
 1192 156 1192 156 1168.5 128.5 c 128,-1,6
 1145 101 1145 101 1097 72 c 128,-1,7
 1049 43 1049 43 1003 33 c 128,-1,8
 957 23 957 23 878.5 13 c 128,-1,9
 800 3 800 3 724.5 1.5 c 128,-1,10
 649 0 649 0 533 0 c 2,11,-1
 171 0 l 1,12,-1
 171 1490 l 1,13,-1
 687 1490 l 2,14,15
 813 1490 813 1490 900 1479.5 c 128,-1,16
 987 1469 987 1469 1055.5 1440.5 c 128,-1,17
 1124 1412 1124 1412 1165 1369 c 128,-1,18
 1206 1326 1206 1326 1232.5 1254.5 c 128,-1,19
 1259 1183 1259 1183 1268.5 1094 c 128,-1,20
 1278 1005 1278 1005 1278 876 c 0,0,1
1077 873 m 2,21,22
 1077 965 1077 965 1076.5 1005.5 c 128,-1,23
 1076 1046 1076 1046 1069.5 1107 c 128,-1,24
 1063 1168 1063 1168 1051.5 1190.5 c 128,-1,25
 1040 1213 1040 1213 1015 1248 c 128,-1,26
 990 1283 990 1283 956.5 1292.5 c 128,-1,27
 923 1302 923 1302 868.5 1316.5 c 128,-1,28
 814 1331 814 1331 747 1333.5 c 128,-1,29
 680 1336 680 1336 584 1336 c 2,30,-1
 374 1336 l 1,31,-1
 374 153 l 1,32,-1
 614 153 l 2,33,34
 700 153 700 153 748 154.5 c 128,-1,35
 796 156 796 156 852 163 c 128,-1,36
 908 170 908 170 934.5 181.5 c 128,-1,37
 961 193 961 193 992 217.5 c 128,-1,38
 1023 242 1023 242 1035 273.5 c 128,-1,39
 1047 305 1047 305 1059 356.5 c 128,-1,40
 1071 408 1071 408 1074 470 c 128,-1,41
 1077 532 1077 532 1077 620 c 2,42,-1
 1077 873 l 2,21,22
EndSplineSet
EndChar

StartChar: E
Encoding: 69 69 41
Width: 1148
GlyphClass: 2
Flags: W
LayerCount: 2
Fore
SplineSet
1015 0 m 1,0,-1
 171 0 l 1,1,-1
 171 1490 l 1,2,-1
 1006 1490 l 1,3,-1
 1026 1336 l 1,4,-1
 374 1336 l 1,5,-1
 374 857 l 1,6,-1
 931 857 l 1,7,-1
 931 695 l 1,8,-1
 374 695 l 1,9,-1
 374 153 l 1,10,-1
 1035 153 l 1,11,-1
 1015 0 l 1,0,-1
EndSplineSet
EndChar

StartChar: F
Encoding: 70 70 42
Width: 1051
GlyphClass: 2
Flags: W
LayerCount: 2
Fore
SplineSet
989 1336 m 1,0,-1
 374 1336 l 1,1,-1
 374 850 l 1,2,-1
 898 850 l 1,3,-1
 898 688 l 1,4,-1
 374 688 l 1,5,-1
 374 0 l 1,6,-1
 171 0 l 1,7,-1
 171 1490 l 1,8,-1
 969 1490 l 1,9,-1
 989 1336 l 1,0,-1
EndSplineSet
EndChar

StartChar: G
Encoding: 71 71 43
Width: 1387
GlyphClass: 2
Flags: W
LayerCount: 2
Fore
SplineSet
1238 745 m 1,0,-1
 1238 106 l 1,1,2
 1096 -24 1096 -24 663 -24 c 0,3,4
 578 -24 578 -24 513.5 -17 c 128,-1,5
 449 -10 449 -10 395.5 1 c 128,-1,6
 342 12 342 12 304 38.5 c 128,-1,7
 266 65 266 65 237 92 c 128,-1,8
 208 119 208 119 190 170.5 c 128,-1,9
 172 222 172 222 160.5 270 c 128,-1,10
 149 318 149 318 143.5 399 c 128,-1,11
 138 480 138 480 136 554 c 128,-1,12
 134 628 134 628 134 744 c 0,13,14
 134 843 134 843 135.5 913 c 128,-1,15
 137 983 137 983 142.5 1056 c 128,-1,16
 148 1129 148 1129 157.5 1177.5 c 128,-1,17
 167 1226 167 1226 183.5 1275.5 c 128,-1,18
 200 1325 200 1325 222 1355.5 c 128,-1,19
 244 1386 244 1386 277 1416 c 128,-1,20
 310 1446 310 1446 350.5 1462 c 128,-1,21
 391 1478 391 1478 445 1491 c 128,-1,22
 499 1504 499 1504 563 1508.5 c 128,-1,23
 627 1513 627 1513 708 1513 c 0,24,25
 713 1513 713 1513 723 1513 c 0,26,27
 793 1513 793 1513 829 1512 c 128,-1,28
 865 1511 865 1511 926.5 1504.5 c 128,-1,29
 988 1498 988 1498 1021 1484.5 c 128,-1,30
 1054 1471 1054 1471 1097 1444.5 c 128,-1,31
 1140 1418 1140 1418 1161 1379.5 c 128,-1,32
 1182 1341 1182 1341 1198 1282 c 128,-1,33
 1214 1223 1214 1223 1214 1146 c 0,34,35
 1214 1128 1214 1128 1212 1096 c 1,36,-1
 1033 1062 l 1,37,-1
 1022 1259 l 1,38,39
 1020 1323 1020 1323 949 1341.5 c 128,-1,40
 878 1360 878 1360 680 1360 c 0,41,42
 545 1360 545 1360 476 1343.5 c 128,-1,43
 407 1327 407 1327 380 1293 c 128,-1,44
 353 1259 353 1259 347 1192 c 1,45,46
 338 987 338 987 338 772 c 0,47,48
 338 556 338 556 347 352 c 0,49,50
 352 244 352 244 364 212 c 0,51,52
 383 163 383 163 451 146 c 0,53,54
 515 130 515 130 674 130 c 0,55,56
 1016 130 1016 130 1053 176 c 1,57,58
 1052 279 1052 279 1052 594 c 1,59,-1
 800 594 l 1,60,-1
 783 745 l 1,61,-1
 1238 745 l 1,0,-1
EndSplineSet
EndChar

StartChar: H
Encoding: 72 72 44
Width: 1414
GlyphClass: 2
Flags: W
LayerCount: 2
Fore
SplineSet
1243 0 m 1,0,-1
 1040 0 l 1,1,-1
 1040 684 l 1,2,-1
 374 684 l 1,3,-1
 374 0 l 1,4,-1
 171 0 l 1,5,-1
 171 1490 l 1,6,-1
 374 1490 l 1,7,-1
 374 842 l 1,8,-1
 1040 842 l 1,9,-1
 1040 1490 l 1,10,-1
 1243 1490 l 1,11,-1
 1243 0 l 1,0,-1
EndSplineSet
EndChar

StartChar: I
Encoding: 73 73 45
Width: 547
GlyphClass: 2
Flags: W
LayerCount: 2
Fore
SplineSet
375 0 m 1,0,-1
 172 0 l 1,1,-1
 172 1490 l 1,2,-1
 375 1490 l 1,3,-1
 375 0 l 1,0,-1
EndSplineSet
EndChar

StartChar: J
Encoding: 74 74 46
Width: 726
GlyphClass: 2
Flags: W
LayerCount: 2
Fore
SplineSet
560 1490 m 1,0,-1
 560 432 l 2,1,2
 560 371 560 371 559 331.5 c 128,-1,3
 558 292 558 292 554.5 243.5 c 128,-1,4
 551 195 551 195 543.5 164.5 c 128,-1,5
 536 134 536 134 524 100 c 128,-1,6
 512 66 512 66 493.5 46 c 128,-1,7
 475 26 475 26 449 8.5 c 128,-1,8
 423 -9 423 -9 388 -16.5 c 128,-1,9
 353 -24 353 -24 309 -24 c 0,10,11
 188 -24 188 -24 71 29 c 1,12,-1
 92 183 l 1,13,14
 184 148 184 148 247 148 c 0,15,16
 312 148 312 148 334.5 189 c 128,-1,17
 357 230 357 230 357 307 c 2,18,-1
 357 1490 l 1,19,-1
 560 1490 l 1,0,-1
EndSplineSet
EndChar

StartChar: K
Encoding: 75 75 47
Width: 1248
GlyphClass: 2
Flags: W
LayerCount: 2
Fore
SplineSet
1219 0 m 1,0,-1
 974 0 l 1,1,-1
 451 732 l 1,2,-1
 373 639 l 1,3,-1
 373 0 l 1,4,-1
 171 0 l 1,5,-1
 171 1490 l 1,6,-1
 373 1490 l 1,7,-1
 373 983 l 2,8,9
 373 954 373 954 372.5 891.5 c 128,-1,10
 372 829 372 829 372 802 c 1,11,12
 387 821 387 821 487 949 c 2,13,-1
 912 1490 l 1,14,-1
 1153 1490 l 1,15,-1
 609 829 l 1,16,-1
 1219 0 l 1,0,-1
EndSplineSet
EndChar

StartChar: L
Encoding: 76 76 48
Width: 1025
GlyphClass: 2
Flags: W
LayerCount: 2
Fore
SplineSet
928 0 m 1,0,-1
 171 0 l 1,1,-1
 171 1490 l 1,2,-1
 374 1490 l 1,3,-1
 374 153 l 1,4,-1
 948 153 l 1,5,-1
 928 0 l 1,0,-1
EndSplineSet
EndChar

StartChar: M
Encoding: 77 77 49
Width: 1694
GlyphClass: 2
Flags: W
LayerCount: 2
Fore
SplineSet
126 0 m 1,0,-1
 225 1499 l 1,1,-1
 434 1499 l 1,2,-1
 850 326 l 1,3,-1
 1252 1499 l 1,4,-1
 1472 1499 l 1,5,-1
 1571 0 l 1,6,-1
 1373 0 l 1,7,-1
 1301 1201 l 1,8,-1
 907 0 l 1,9,-1
 785 0 l 1,10,-1
 364 1192 l 1,11,-1
 300 0 l 1,12,-1
 126 0 l 1,0,-1
EndSplineSet
EndChar

StartChar: N
Encoding: 78 78 50
Width: 1441
GlyphClass: 2
Flags: W
LayerCount: 2
Fore
SplineSet
1270 0 m 1,0,-1
 1059 0 l 1,1,-1
 349 1177 l 1,2,-1
 349 0 l 1,3,-1
 171 0 l 1,4,-1
 171 1490 l 1,5,-1
 376 1490 l 1,6,-1
 1092 297 l 1,7,-1
 1092 1490 l 1,8,-1
 1270 1490 l 1,9,-1
 1270 0 l 1,0,-1
EndSplineSet
EndChar

StartChar: O
Encoding: 79 79 51
Width: 1438
GlyphClass: 2
Flags: W
LayerCount: 2
Fore
SplineSet
715 -24 m 0,0,1
 628 -24 628 -24 560.5 -20 c 128,-1,2
 493 -16 493 -16 436 -0.5 c 128,-1,3
 379 15 379 15 338.5 28 c 128,-1,4
 298 41 298 41 265.5 77.5 c 128,-1,5
 233 114 233 114 212 140.5 c 128,-1,6
 191 167 191 167 176 228.5 c 128,-1,7
 161 290 161 290 154 333.5 c 128,-1,8
 147 377 147 377 142.5 468 c 128,-1,9
 138 559 138 559 137.5 624 c 128,-1,10
 137 689 137 689 137 812 c 0,11,12
 137 960 137 960 145 1058 c 128,-1,13
 153 1156 153 1156 176.5 1240 c 128,-1,14
 200 1324 200 1324 238.5 1372 c 128,-1,15
 277 1420 277 1420 343.5 1454.5 c 128,-1,16
 410 1489 410 1489 498.5 1501.5 c 128,-1,17
 587 1514 587 1514 715 1514 c 0,18,19
 836 1514 836 1514 922 1502 c 128,-1,20
 1008 1490 1008 1490 1074.5 1459.5 c 128,-1,21
 1141 1429 1141 1429 1181.5 1383.5 c 128,-1,22
 1222 1338 1222 1338 1248 1264 c 128,-1,23
 1274 1190 1274 1190 1283.5 1098.5 c 128,-1,24
 1293 1007 1293 1007 1293 876 c 0,25,26
 1293 506 1293 506 1282 389 c 0,27,28
 1263 189 1263 189 1190 103 c 0,29,30
 1113 11 1113 11 928 -13 c 0,31,32
 840 -24 840 -24 715 -24 c 0,0,1
715 1360 m 128,-1,34
 629 1360 629 1360 572 1356 c 128,-1,35
 515 1352 515 1352 472.5 1339 c 128,-1,36
 430 1326 430 1326 407 1310 c 128,-1,37
 384 1294 384 1294 369.5 1260.5 c 128,-1,38
 355 1227 355 1227 350.5 1192 c 128,-1,39
 346 1157 346 1157 344 1097 c 1,40,41
 341 912 341 912 341 725 c 0,42,43
 341 443 341 443 356 339 c 0,44,45
 380 183 380 183 447 159 c 1,46,47
 497 130 497 130 715 130 c 128,-1,48
 933 130 933 130 983 159 c 1,49,50
 1002 166 1002 166 1017.5 182 c 128,-1,51
 1033 198 1033 198 1043.5 225 c 128,-1,52
 1054 252 1054 252 1062 279.5 c 128,-1,53
 1070 307 1070 307 1075 350 c 128,-1,54
 1080 393 1080 393 1083 427.5 c 128,-1,55
 1086 462 1086 462 1087 515.5 c 128,-1,56
 1088 569 1088 569 1088.5 604 c 128,-1,57
 1089 639 1089 639 1089 697 c 0,58,59
 1089 899 1089 899 1086 1097 c 1,60,61
 1084 1157 1084 1157 1079.5 1192 c 128,-1,62
 1075 1227 1075 1227 1060.5 1260.5 c 128,-1,63
 1046 1294 1046 1294 1023 1310 c 128,-1,64
 1000 1326 1000 1326 957.5 1339 c 128,-1,65
 915 1352 915 1352 858 1356 c 128,-1,33
 801 1360 801 1360 715 1360 c 128,-1,34
EndSplineSet
EndChar

StartChar: P
Encoding: 80 80 52
Width: 1301
GlyphClass: 2
Flags: W
LayerCount: 2
Fore
SplineSet
1177 1004 m 0,0,1
 1177 913 1177 913 1168.5 842.5 c 128,-1,2
 1160 772 1160 772 1144.5 721 c 128,-1,3
 1129 670 1129 670 1103 634 c 128,-1,4
 1077 598 1077 598 1047.5 576 c 128,-1,5
 1018 554 1018 554 975.5 541.5 c 128,-1,6
 933 529 933 529 890.5 525 c 128,-1,7
 848 521 848 521 790 521 c 2,8,-1
 373 520 l 1,9,-1
 373 0 l 1,10,-1
 171 0 l 1,11,-1
 171 1490 l 1,12,-1
 711 1490 l 2,13,14
 804 1490 804 1490 868.5 1482.5 c 128,-1,15
 933 1475 933 1475 988 1455 c 128,-1,16
 1043 1435 1043 1435 1076 1401 c 128,-1,17
 1109 1367 1109 1367 1133 1312 c 128,-1,18
 1157 1257 1157 1257 1166.5 1182.5 c 128,-1,19
 1176 1108 1176 1108 1177 1004 c 0,0,1
975 1015 m 0,20,21
 974 1087 974 1087 971 1132 c 128,-1,22
 968 1177 968 1177 959.5 1217 c 128,-1,23
 951 1257 951 1257 937.5 1278 c 128,-1,24
 924 1299 924 1299 900.5 1314.5 c 128,-1,25
 877 1330 877 1330 845.5 1335 c 128,-1,26
 814 1340 814 1340 767 1340 c 2,27,-1
 373 1339 l 1,28,-1
 373 672 l 1,29,-1
 746 672 l 2,30,31
 824 672 824 672 870 684.5 c 128,-1,32
 916 697 916 697 939.5 729 c 128,-1,33
 963 761 963 761 969.5 799.5 c 128,-1,34
 976 838 976 838 976 906 c 0,35,36
 976 922 976 922 975.5 958 c 128,-1,37
 975 994 975 994 975 1015 c 0,20,21
EndSplineSet
EndChar

StartChar: Q
Encoding: 81 81 53
Width: 1438
GlyphClass: 2
Flags: W
LayerCount: 2
Fore
SplineSet
715 1360 m 128,-1,1
 629 1360 629 1360 572 1356 c 128,-1,2
 515 1352 515 1352 472.5 1339 c 128,-1,3
 430 1326 430 1326 407 1310 c 128,-1,4
 384 1294 384 1294 369.5 1260.5 c 128,-1,5
 355 1227 355 1227 350.5 1192 c 128,-1,6
 346 1157 346 1157 344 1097 c 1,7,8
 341 912 341 912 341 725 c 0,9,10
 341 443 341 443 356 339 c 0,11,12
 380 183 380 183 447 159 c 1,13,14
 497 130 497 130 715 130 c 128,-1,15
 933 130 933 130 983 159 c 1,16,17
 1002 166 1002 166 1017.5 182 c 128,-1,18
 1033 198 1033 198 1043.5 225 c 128,-1,19
 1054 252 1054 252 1062 279.5 c 128,-1,20
 1070 307 1070 307 1075 350 c 128,-1,21
 1080 393 1080 393 1083 427.5 c 128,-1,22
 1086 462 1086 462 1087 515.5 c 128,-1,23
 1088 569 1088 569 1088.5 604 c 128,-1,24
 1089 639 1089 639 1089 697 c 0,25,26
 1089 899 1089 899 1086 1097 c 1,27,28
 1084 1157 1084 1157 1079.5 1192 c 128,-1,29
 1075 1227 1075 1227 1060.5 1260.5 c 128,-1,30
 1046 1294 1046 1294 1023 1310 c 128,-1,31
 1000 1326 1000 1326 957.5 1339 c 128,-1,32
 915 1352 915 1352 858 1356 c 128,-1,0
 801 1360 801 1360 715 1360 c 128,-1,1
715 -24 m 0,33,34
 628 -24 628 -24 560.5 -20 c 128,-1,35
 493 -16 493 -16 436 -0.5 c 128,-1,36
 379 15 379 15 338.5 28 c 128,-1,37
 298 41 298 41 265.5 77.5 c 128,-1,38
 233 114 233 114 212 140.5 c 128,-1,39
 191 167 191 167 176 228.5 c 128,-1,40
 161 290 161 290 154 333.5 c 128,-1,41
 147 377 147 377 142.5 468 c 128,-1,42
 138 559 138 559 137.5 624 c 128,-1,43
 137 689 137 689 137 812 c 0,44,45
 137 960 137 960 145 1058 c 128,-1,46
 153 1156 153 1156 176.5 1240 c 128,-1,47
 200 1324 200 1324 238.5 1372 c 128,-1,48
 277 1420 277 1420 343.5 1454.5 c 128,-1,49
 410 1489 410 1489 498.5 1501.5 c 128,-1,50
 587 1514 587 1514 715 1514 c 0,51,52
 836 1514 836 1514 922 1502 c 128,-1,53
 1008 1490 1008 1490 1074.5 1459.5 c 128,-1,54
 1141 1429 1141 1429 1181.5 1383.5 c 128,-1,55
 1222 1338 1222 1338 1248 1264 c 128,-1,56
 1274 1190 1274 1190 1283.5 1098.5 c 128,-1,57
 1293 1007 1293 1007 1293 876 c 0,58,59
 1293 865 1293 865 1293 843 c 0,60,61
 1293 719 1293 719 1292.5 661.5 c 128,-1,62
 1292 604 1292 604 1289.5 511 c 128,-1,63
 1287 418 1287 418 1281 376.5 c 128,-1,64
 1275 335 1275 335 1264.5 271.5 c 128,-1,65
 1254 208 1254 208 1237.5 178.5 c 128,-1,66
 1221 149 1221 149 1196.5 112 c 128,-1,67
 1172 75 1172 75 1139.5 54.5 c 128,-1,68
 1107 34 1107 34 1064 18 c 1,69,-1
 1231 -243 l 1,70,-1
 1092 -358 l 1,71,-1
 869 -19 l 1,72,73
 812 -24 812 -24 715 -24 c 0,33,34
EndSplineSet
EndChar

StartChar: R
Encoding: 82 82 54
Width: 1357
GlyphClass: 2
Flags: W
LayerCount: 2
Fore
SplineSet
1204 1080 m 0,0,1
 1204 889 1204 889 1132 796.5 c 128,-1,2
 1060 704 1060 704 931 683 c 1,3,4
 1123 644 1123 644 1159 439 c 2,5,-1
 1236 0 l 1,6,-1
 1019 0 l 1,7,8
 1011 46 1011 46 1000.5 133.5 c 128,-1,9
 990 221 990 221 981 281.5 c 128,-1,10
 972 342 972 342 957 410 c 128,-1,11
 942 478 942 478 917.5 524 c 128,-1,12
 893 570 893 570 859 592 c 1,13,14
 805 615 805 615 682 615 c 2,15,-1
 373 615 l 1,16,-1
 373 0 l 1,17,-1
 171 0 l 1,18,-1
 171 1490 l 1,19,-1
 626 1490 l 2,20,21
 698 1490 698 1490 748.5 1488.5 c 128,-1,22
 799 1487 799 1487 855 1482 c 128,-1,23
 911 1477 911 1477 949 1468 c 128,-1,24
 987 1459 987 1459 1026.5 1444 c 128,-1,25
 1066 1429 1066 1429 1091.5 1407 c 128,-1,26
 1117 1385 1117 1385 1140 1354.5 c 128,-1,27
 1163 1324 1163 1324 1176 1284.5 c 128,-1,28
 1189 1245 1189 1245 1196.5 1194 c 128,-1,29
 1204 1143 1204 1143 1204 1080 c 0,0,1
1004 1001 m 2,30,-1
 1004 1140 l 2,31,32
 1004 1178 1004 1178 1002.5 1199.5 c 128,-1,33
 1001 1221 1001 1221 995 1245.5 c 128,-1,34
 989 1270 989 1270 976.5 1282.5 c 128,-1,35
 964 1295 964 1295 943.5 1307.5 c 128,-1,36
 923 1320 923 1320 890.5 1325 c 128,-1,37
 858 1330 858 1330 814.5 1333.5 c 128,-1,38
 771 1337 771 1337 710 1337 c 2,39,-1
 373 1337 l 1,40,-1
 373 774 l 1,41,-1
 722 774 l 2,42,43
 799 774 799 774 849 782 c 128,-1,44
 899 790 899 790 930.5 804.5 c 128,-1,45
 962 819 962 819 978 848.5 c 128,-1,46
 994 878 994 878 999 911.5 c 128,-1,47
 1004 945 1004 945 1004 1001 c 2,30,-1
EndSplineSet
EndChar

StartChar: S
Encoding: 83 83 55
Width: 1291
GlyphClass: 2
Flags: W
LayerCount: 2
Fore
SplineSet
1156 437 m 0,0,1
 1156 372 1156 372 1152 319.5 c 128,-1,2
 1148 267 1148 267 1137.5 223.5 c 128,-1,3
 1127 180 1127 180 1115 147 c 128,-1,4
 1103 114 1103 114 1081 88.5 c 128,-1,5
 1059 63 1059 63 1037.5 45 c 128,-1,6
 1016 27 1016 27 981.5 14.5 c 128,-1,7
 947 2 947 2 915 -5.5 c 128,-1,8
 883 -13 883 -13 835 -17 c 128,-1,9
 787 -21 787 -21 743.5 -22.5 c 128,-1,10
 700 -24 700 -24 637 -24 c 0,11,12
 518 -24 518 -24 437.5 -17 c 128,-1,13
 357 -10 357 -10 300.5 13 c 128,-1,14
 244 36 244 36 213 60.5 c 128,-1,15
 182 85 182 85 164 138.5 c 128,-1,16
 146 192 146 192 140.5 241 c 128,-1,17
 135 290 135 290 131 380 c 1,18,-1
 316 410 l 1,19,20
 319 388 319 388 322 348 c 0,21,22
 328 286 328 286 333.5 260.5 c 128,-1,23
 339 235 339 235 355 204 c 128,-1,24
 371 173 371 173 405 163.5 c 128,-1,25
 439 154 439 154 494 147 c 128,-1,26
 549 140 549 140 641 140 c 0,27,28
 717 140 717 140 766 144 c 128,-1,29
 815 148 815 148 852 160.5 c 128,-1,30
 889 173 889 173 908 189 c 128,-1,31
 927 205 927 205 938.5 238.5 c 128,-1,32
 950 272 950 272 953 308 c 128,-1,33
 956 344 956 344 955 404 c 0,34,35
 954 536 954 536 940.5 586.5 c 128,-1,36
 927 637 927 637 883 646 c 1,37,-1
 385 733 l 2,38,39
 255 755 255 755 204 832 c 128,-1,40
 153 909 153 909 150 1081 c 1,41,42
 150 1173 150 1173 159.5 1238.5 c 128,-1,43
 169 1304 169 1304 192.5 1353.5 c 128,-1,44
 216 1403 216 1403 250.5 1433 c 128,-1,45
 285 1463 285 1463 341.5 1481.5 c 128,-1,46
 398 1500 398 1500 465.5 1506.5 c 128,-1,47
 533 1513 533 1513 631 1513 c 0,48,49
 711 1513 711 1513 768.5 1509.5 c 128,-1,50
 826 1506 826 1506 880.5 1497 c 128,-1,51
 935 1488 935 1488 971 1472 c 128,-1,52
 1007 1456 1007 1456 1037.5 1430.5 c 128,-1,53
 1068 1405 1068 1405 1085 1368.5 c 128,-1,54
 1102 1332 1102 1332 1111 1283 c 128,-1,55
 1120 1234 1120 1234 1120 1170 c 1,56,-1
 942 1129 l 1,57,58
 932 1239 932 1239 929 1254 c 0,59,60
 917 1305 917 1305 872 1323 c 0,61,62
 822 1344 822 1344 663 1344 c 0,63,64
 576 1344 576 1344 519.5 1339 c 128,-1,65
 463 1334 463 1334 427 1324.5 c 128,-1,66
 391 1315 391 1315 373.5 1296 c 128,-1,67
 356 1277 356 1277 350 1255.5 c 128,-1,68
 344 1234 344 1234 344 1199 c 2,69,-1
 344 1026 l 2,70,71
 344 932 344 932 426 918 c 2,72,-1
 784 857 l 2,73,74
 834 849 834 849 864 843 c 128,-1,75
 894 837 894 837 933 827 c 128,-1,76
 972 817 972 817 994 806 c 128,-1,77
 1016 795 1016 795 1043 778 c 128,-1,78
 1070 761 1070 761 1085 740 c 128,-1,79
 1100 719 1100 719 1115.5 690 c 128,-1,80
 1131 661 1131 661 1138.5 624.5 c 128,-1,81
 1146 588 1146 588 1151 541.5 c 128,-1,82
 1156 495 1156 495 1156 437 c 0,0,1
EndSplineSet
EndChar

StartChar: T
Encoding: 84 84 56
Width: 994
GlyphClass: 2
Flags: W
LayerCount: 2
Fore
SplineSet
985 1336 m 1,0,-1
 596 1336 l 1,1,-1
 596 0 l 1,2,-1
 393 0 l 1,3,-1
 393 1336 l 1,4,-1
 12 1336 l 1,5,-1
 12 1490 l 1,6,-1
 985 1490 l 1,7,-1
 985 1336 l 1,0,-1
EndSplineSet
EndChar

StartChar: U
Encoding: 85 85 57
Width: 1442
GlyphClass: 2
Flags: W
LayerCount: 2
Fore
SplineSet
1282 1490 m 1,0,-1
 1282 557 l 2,1,2
 1282 437 1282 437 1271.5 351 c 128,-1,3
 1261 265 1261 265 1234 198.5 c 128,-1,4
 1207 132 1207 132 1166.5 90.5 c 128,-1,5
 1126 49 1126 49 1060.5 22.5 c 128,-1,6
 995 -4 995 -4 914 -14 c 128,-1,7
 833 -24 833 -24 718 -24 c 0,8,9
 607 -24 607 -24 529 -15 c 128,-1,10
 451 -6 451 -6 385 18.5 c 128,-1,11
 319 43 319 43 278.5 83.5 c 128,-1,12
 238 124 238 124 209 189.5 c 128,-1,13
 180 255 180 255 168.5 344 c 128,-1,14
 157 433 157 433 157 557 c 2,15,-1
 157 1490 l 1,16,-1
 360 1490 l 1,17,-1
 360 531 l 2,18,19
 360 448 360 448 360.5 411 c 128,-1,20
 361 374 361 374 366 320.5 c 128,-1,21
 371 267 371 267 379 247.5 c 128,-1,22
 387 228 387 228 405.5 199 c 128,-1,23
 424 170 424 170 447.5 162.5 c 128,-1,24
 471 155 471 155 512 144 c 128,-1,25
 553 133 553 133 600.5 131.5 c 128,-1,26
 648 130 648 130 719 130 c 0,27,28
 803 130 803 130 859.5 135 c 128,-1,29
 916 140 916 140 958 155 c 128,-1,30
 1000 170 1000 170 1022.5 189.5 c 128,-1,31
 1045 209 1045 209 1058.5 247 c 128,-1,32
 1072 285 1072 285 1076 326 c 128,-1,33
 1080 367 1080 367 1080 435 c 2,34,-1
 1079 1490 l 1,35,-1
 1282 1490 l 1,0,-1
EndSplineSet
EndChar

StartChar: V
Encoding: 86 86 58
Width: 1222
GlyphClass: 2
Flags: W
LayerCount: 2
Fore
SplineSet
1202 1490 m 1,0,-1
 712 0 l 1,1,-1
 502 0 l 1,2,-1
 25 1490 l 1,3,-1
 240 1490 l 1,4,-1
 611 259 l 1,5,-1
 982 1490 l 1,6,-1
 1202 1490 l 1,0,-1
EndSplineSet
EndChar

StartChar: W
Encoding: 87 87 59
Width: 1753
GlyphClass: 2
Flags: W
LayerCount: 2
Fore
SplineSet
1699 1490 m 1,0,-1
 1380 0 l 1,1,-1
 1163 0 l 1,2,-1
 879 1173 l 1,3,-1
 597 0 l 1,4,-1
 381 0 l 1,5,-1
 56 1490 l 1,6,-1
 270 1490 l 1,7,-1
 501 279 l 1,8,-1
 786 1490 l 1,9,-1
 987 1490 l 1,10,-1
 1280 279 l 1,11,-1
 1511 1490 l 1,12,-1
 1699 1490 l 1,0,-1
EndSplineSet
EndChar

StartChar: X
Encoding: 88 88 60
Width: 1208
GlyphClass: 2
Flags: W
LayerCount: 2
Fore
SplineSet
1153 0 m 1,0,-1
 931 0 l 1,1,-1
 607 590 l 1,2,-1
 284 0 l 1,3,-1
 63 0 l 1,4,-1
 492 766 l 1,5,-1
 84 1490 l 1,6,-1
 301 1490 l 1,7,-1
 607 934 l 1,8,-1
 915 1490 l 1,9,-1
 1132 1490 l 1,10,-1
 725 766 l 1,11,-1
 1153 0 l 1,0,-1
EndSplineSet
EndChar

StartChar: Y
Encoding: 89 89 61
Width: 1087
GlyphClass: 2
Flags: W
LayerCount: 2
Fore
SplineSet
1090 1490 m 1,0,-1
 639 518 l 1,1,-1
 639 0 l 1,2,-1
 437 0 l 1,3,-1
 437 518 l 1,4,-1
 -1 1490 l 1,5,-1
 220 1490 l 1,6,-1
 545 727 l 1,7,-1
 876 1490 l 1,8,-1
 1090 1490 l 1,0,-1
EndSplineSet
EndChar

StartChar: Z
Encoding: 90 90 62
Width: 1110
GlyphClass: 2
Flags: W
LayerCount: 2
Fore
SplineSet
998 0 m 1,0,-1
 99 0 l 1,1,-1
 99 176 l 1,2,-1
 670 1128 l 1,3,-1
 798 1338 l 1,4,-1
 164 1338 l 1,5,-1
 147 1490 l 1,6,-1
 998 1490 l 1,7,-1
 998 1311 l 1,8,-1
 439 361 l 1,9,-1
 313 151 l 1,10,-1
 998 151 l 1,11,-1
 998 0 l 1,0,-1
EndSplineSet
EndChar

StartChar: bracketleft
Encoding: 91 91 63
Width: 608
GlyphClass: 2
Flags: W
LayerCount: 2
Fore
SplineSet
619 -257 m 1,0,-1
 173 -257 l 1,1,-1
 173 1653 l 1,2,-1
 619 1653 l 1,3,-1
 619 1502 l 1,4,-1
 364 1502 l 1,5,-1
 364 -105 l 1,6,-1
 619 -105 l 1,7,-1
 619 -257 l 1,0,-1
EndSplineSet
EndChar

StartChar: backslash
Encoding: 92 92 64
Width: 644
GlyphClass: 2
Flags: W
LayerCount: 2
Fore
SplineSet
603 -26 m 1,0,-1
 404 -26 l 1,1,-1
 61 1516 l 1,2,-1
 260 1516 l 1,3,-1
 603 -26 l 1,0,-1
EndSplineSet
EndChar

StartChar: bracketright
Encoding: 93 93 65
Width: 613
GlyphClass: 2
Flags: W
LayerCount: 2
Fore
SplineSet
442 -257 m 1,0,-1
 -3 -257 l 1,1,-1
 -3 -105 l 1,2,-1
 251 -105 l 1,3,-1
 251 1502 l 1,4,-1
 -3 1502 l 1,5,-1
 -3 1653 l 1,6,-1
 442 1653 l 1,7,-1
 442 -257 l 1,0,-1
EndSplineSet
EndChar

StartChar: asciicircum
Encoding: 94 94 66
Width: 801
GlyphClass: 2
Flags: W
LayerCount: 2
Fore
SplineSet
407 1627 m 1,0,-1
 176 1391 l 1,1,-1
 121 1445 l 1,2,-1
 313 1754 l 1,3,4
 348 1806 348 1806 407 1806 c 128,-1,5
 466 1806 466 1806 501 1754 c 1,6,-1
 693 1445 l 1,7,-1
 638 1391 l 1,8,-1
 407 1627 l 1,0,-1
EndSplineSet
EndChar

StartChar: underscore
Encoding: 95 95 67
Width: 1118
GlyphClass: 2
Flags: W
LayerCount: 2
Fore
SplineSet
141 0 m 1,0,-1
 978 0 l 1,1,-1
 978 -127 l 1,2,-1
 141 -127 l 1,3,-1
 141 0 l 1,0,-1
EndSplineSet
EndChar

StartChar: grave
Encoding: 96 96 68
Width: 679
GlyphClass: 2
Flags: W
LayerCount: 2
Fore
SplineSet
278 1605 m 0,0,1
 295 1591 295 1591 369 1517 c 128,-1,2
 443 1443 443 1443 508 1376 c 2,3,-1
 574 1308 l 1,4,-1
 557 1287 l 1,5,-1
 464 1322 l 2,6,7
 371 1357 371 1357 272 1394 c 128,-1,8
 173 1431 173 1431 162 1436 c 0,9,10
 127 1451 127 1451 109 1480 c 128,-1,11
 91 1509 91 1509 91 1540 c 0,12,13
 91 1581 91 1581 119 1610.5 c 128,-1,14
 147 1640 147 1640 194 1640 c 0,15,16
 238 1640 238 1640 278 1605 c 0,0,1
EndSplineSet
EndChar

StartChar: a
Encoding: 97 97 69
Width: 1111
GlyphClass: 2
Flags: W
LayerCount: 2
Fore
SplineSet
960 0 m 1,0,-1
 804 0 l 1,1,-1
 772 157 l 1,2,3
 742 54 742 54 663.5 19.5 c 128,-1,4
 585 -15 585 -15 434 -15 c 0,5,6
 334 -15 334 -15 270 4.5 c 128,-1,7
 206 24 206 24 168 70 c 128,-1,8
 130 116 130 116 115.5 182.5 c 128,-1,9
 101 249 101 249 101 354 c 0,10,11
 101 401 101 401 117.5 438 c 128,-1,12
 134 475 134 475 162.5 501 c 128,-1,13
 191 527 191 527 238.5 546 c 128,-1,14
 286 565 286 565 337 576 c 128,-1,15
 388 587 388 587 460.5 593.5 c 128,-1,16
 533 600 533 600 602 602 c 128,-1,17
 671 604 671 604 763 604 c 1,18,-1
 763 901 l 2,19,20
 763 952 763 952 715 971.5 c 128,-1,21
 667 991 667 991 544 991 c 0,22,23
 458 991 458 991 415 987 c 128,-1,24
 372 983 372 983 349.5 963.5 c 128,-1,25
 327 944 327 944 323.5 925 c 128,-1,26
 320 906 320 906 319 854 c 0,27,28
 318 835 318 835 318 824 c 1,29,-1
 165 830 l 1,30,31
 163 846 163 846 163 877 c 0,32,33
 163 944 163 944 182.5 990.5 c 128,-1,34
 202 1037 202 1037 233 1063.5 c 128,-1,35
 264 1090 264 1090 318 1105 c 128,-1,36
 372 1120 372 1120 425 1124 c 128,-1,37
 478 1128 478 1128 557 1128 c 0,38,39
 677 1128 677 1128 752 1109.5 c 128,-1,40
 827 1091 827 1091 875 1043 c 128,-1,41
 923 995 923 995 941.5 920.5 c 128,-1,42
 960 846 960 846 960 726 c 2,43,-1
 960 0 l 1,0,-1
763 314 m 1,44,-1
 763 485 l 1,45,46
 566 485 566 485 460 470 c 128,-1,47
 354 455 354 455 318.5 428.5 c 128,-1,48
 283 402 283 402 283 354 c 0,49,50
 283 352 283 352 283 348 c 0,51,52
 283 196 283 196 308 159 c 128,-1,53
 333 122 333 122 461 122 c 0,54,55
 570 122 570 122 638 148 c 128,-1,56
 706 174 706 174 732.5 214.5 c 128,-1,57
 759 255 759 255 763 314 c 1,44,-1
EndSplineSet
EndChar

StartChar: b
Encoding: 98 98 70
Width: 1200
GlyphClass: 2
Flags: W
LayerCount: 2
Fore
SplineSet
1068 611 m 0,0,1
 1068 535 1068 535 1067 485 c 128,-1,2
 1066 435 1066 435 1063 376 c 128,-1,3
 1060 317 1060 317 1054 279.5 c 128,-1,4
 1048 242 1048 242 1038 199.5 c 128,-1,5
 1028 157 1028 157 1013 131 c 128,-1,6
 998 105 998 105 977 78 c 128,-1,7
 956 51 956 51 928 36 c 128,-1,8
 900 21 900 21 864 8 c 128,-1,9
 828 -5 828 -5 783 -10 c 128,-1,10
 738 -15 738 -15 683 -15 c 0,11,12
 421 -15 421 -15 364 138 c 1,13,-1
 346 0 l 1,14,-1
 166 0 l 1,15,-1
 166 1519 l 1,16,-1
 363 1535 l 1,17,-1
 363 976 l 1,18,19
 396 1054 396 1054 469 1091 c 128,-1,20
 542 1128 542 1128 667 1128 c 0,21,22
 735 1128 735 1128 789.5 1119.5 c 128,-1,23
 844 1111 844 1111 884.5 1092 c 128,-1,24
 925 1073 925 1073 955 1049.5 c 128,-1,25
 985 1026 985 1026 1005 989.5 c 128,-1,26
 1025 953 1025 953 1037.5 916 c 128,-1,27
 1050 879 1050 879 1057 826.5 c 128,-1,28
 1064 774 1064 774 1066 726 c 128,-1,29
 1068 678 1068 678 1068 611 c 0,0,1
871 761 m 2,30,31
 871 804 871 804 870.5 825.5 c 128,-1,32
 870 847 870 847 866.5 876 c 128,-1,33
 863 905 863 905 857 917 c 128,-1,34
 851 929 851 929 838.5 945.5 c 128,-1,35
 826 962 826 962 808.5 968 c 128,-1,36
 791 974 791 974 763.5 980.5 c 128,-1,37
 736 987 736 987 702 988.5 c 128,-1,38
 668 990 668 990 620 990 c 0,39,40
 519 990 519 990 462.5 975.5 c 128,-1,41
 406 961 406 961 381 927 c 1,42,43
 363 893 363 893 363 773 c 2,44,-1
 363 269 l 2,45,46
 363 187 363 187 421 154.5 c 128,-1,47
 479 122 479 122 621 122 c 0,48,49
 762 122 762 122 815 147 c 1,50,51
 872 167 872 167 872 349 c 2,52,-1
 871 761 l 2,30,31
EndSplineSet
EndChar

StartChar: c
Encoding: 99 99 71
Width: 1112
GlyphClass: 2
Flags: W
LayerCount: 2
Fore
SplineSet
980 781 m 1,0,-1
 818 754 l 1,1,-1
 797 893 l 2,2,3
 789 941 789 941 778 954 c 0,4,5
 752 984 752 984 634 988 c 0,6,7
 606 989 606 989 572 989 c 0,8,9
 436 989 436 989 394 974 c 1,10,11
 348 966 348 966 327 883 c 128,-1,12
 306 800 306 800 306 680 c 2,13,-1
 307 507 l 2,14,15
 307 471 307 471 307 408 c 0,16,17
 307 326 307 326 307 292.5 c 128,-1,18
 307 259 307 259 316 216.5 c 128,-1,19
 325 174 325 174 336.5 163.5 c 128,-1,20
 348 153 348 153 380 139 c 128,-1,21
 412 125 412 125 448.5 124 c 128,-1,22
 485 123 485 123 554 123 c 0,23,24
 608 123 608 123 647.5 127 c 128,-1,25
 687 131 687 131 714.5 136.5 c 128,-1,26
 742 142 742 142 759.5 155.5 c 128,-1,27
 777 169 777 169 786.5 180 c 128,-1,28
 796 191 796 191 801 214.5 c 128,-1,29
 806 238 806 238 807.5 255 c 128,-1,30
 809 272 809 272 811 306.5 c 128,-1,31
 813 341 813 341 816 365 c 1,32,-1
 980 337 l 1,33,34
 974 259 974 259 966.5 212 c 128,-1,35
 959 165 959 165 941.5 121 c 128,-1,36
 924 77 924 77 897.5 54.5 c 128,-1,37
 871 32 871 32 824.5 14 c 128,-1,38
 778 -4 778 -4 716.5 -9.5 c 128,-1,39
 655 -15 655 -15 563 -15 c 0,40,41
 497 -15 497 -15 444.5 -11 c 128,-1,42
 392 -7 392 -7 349 5.5 c 128,-1,43
 306 18 306 18 274 29.5 c 128,-1,44
 242 41 242 41 217.5 70 c 128,-1,45
 193 99 193 99 176.5 120 c 128,-1,46
 160 141 160 141 149 188 c 128,-1,47
 138 235 138 235 132 268 c 128,-1,48
 126 301 126 301 123 368.5 c 128,-1,49
 120 436 120 436 119.5 483 c 128,-1,50
 119 530 119 530 119 619 c 0,51,52
 119 699 119 699 122 757.5 c 128,-1,53
 125 816 125 816 134 869.5 c 128,-1,54
 143 923 143 923 157.5 958.5 c 128,-1,55
 172 994 172 994 196.5 1025 c 128,-1,56
 221 1056 221 1056 252.5 1074 c 128,-1,57
 284 1092 284 1092 330.5 1105 c 128,-1,58
 377 1118 377 1118 432.5 1123 c 128,-1,59
 488 1128 488 1128 562 1128 c 0,60,61
 657 1128 657 1128 721.5 1118.5 c 128,-1,62
 786 1109 786 1109 836 1087 c 128,-1,63
 886 1065 886 1065 915 1024.5 c 128,-1,64
 944 984 944 984 960 925.5 c 128,-1,65
 976 867 976 867 980 781 c 1,0,-1
EndSplineSet
EndChar

StartChar: d
Encoding: 100 100 72
Width: 1179
GlyphClass: 2
Flags: W
LayerCount: 2
Fore
SplineSet
1013 0 m 1,0,-1
 833 0 l 1,1,-1
 814 138 l 1,2,3
 753 -15 753 -15 495 -15 c 0,4,5
 426 -15 426 -15 371.5 -6 c 128,-1,6
 317 3 317 3 277.5 25 c 128,-1,7
 238 47 238 47 210 70.5 c 128,-1,8
 182 94 182 94 163.5 138.5 c 128,-1,9
 145 183 145 183 134.5 219.5 c 128,-1,10
 124 256 124 256 119 321 c 128,-1,11
 114 386 114 386 113 434.5 c 128,-1,12
 112 483 112 483 112 566 c 0,13,14
 112 647 112 647 114.5 706 c 128,-1,15
 117 765 117 765 124.5 823 c 128,-1,16
 132 881 132 881 144.5 920.5 c 128,-1,17
 157 960 157 960 178 997 c 128,-1,18
 199 1034 199 1034 228.5 1056.5 c 128,-1,19
 258 1079 258 1079 299 1096.5 c 128,-1,20
 340 1114 340 1114 393 1121 c 128,-1,21
 446 1128 446 1128 513 1128 c 0,22,23
 642 1128 642 1128 713.5 1093.5 c 128,-1,24
 785 1059 785 1059 816 984 c 1,25,-1
 816 1519 l 1,26,-1
 1013 1535 l 1,27,-1
 1013 0 l 1,0,-1
816 255 m 1,28,-1
 816 838 l 2,29,30
 816 925 816 925 762 957.5 c 128,-1,31
 708 990 708 990 559 990 c 0,32,33
 443 990 443 990 387 973 c 0,34,35
 341 959 341 959 325 890.5 c 128,-1,36
 309 822 309 822 309 706 c 0,37,38
 309 537 309 537 315 233 c 1,39,40
 320 167 320 167 368.5 144.5 c 128,-1,41
 417 122 417 122 559 122 c 0,42,43
 699 122 699 122 754.5 150 c 128,-1,44
 810 178 810 178 816 255 c 1,28,-1
EndSplineSet
EndChar

StartChar: e
Encoding: 101 101 73
Width: 1141
GlyphClass: 2
Flags: W
LayerCount: 2
Fore
SplineSet
1009 564 m 1,0,1
 890 552 890 552 860 550 c 1,2,-1
 315 550 l 1,3,4
 316 405 316 405 323 232 c 1,5,6
 328 165 328 165 380.5 143.5 c 128,-1,7
 433 122 433 122 585 122 c 0,8,9
 642 122 642 122 683 126.5 c 128,-1,10
 724 131 724 131 749.5 142.5 c 128,-1,11
 775 154 775 154 789.5 164.5 c 128,-1,12
 804 175 804 175 811 197.5 c 128,-1,13
 818 220 818 220 820 235.5 c 128,-1,14
 822 251 822 251 824 282.5 c 128,-1,15
 826 314 826 314 829 334 c 1,16,-1
 982 306 l 1,17,18
 980 236 980 236 972 187.5 c 128,-1,19
 964 139 964 139 945 102 c 128,-1,20
 926 65 926 65 900 43.5 c 128,-1,21
 874 22 874 22 830 8 c 128,-1,22
 786 -6 786 -6 733 -10.5 c 128,-1,23
 680 -15 680 -15 602 -15 c 0,24,25
 502 -15 502 -15 428 -3.5 c 128,-1,26
 354 8 354 8 301.5 25 c 128,-1,27
 249 42 249 42 215 80.5 c 128,-1,28
 181 119 181 119 161.5 154 c 128,-1,29
 142 189 142 189 133 257 c 128,-1,30
 124 325 124 325 121.5 380.5 c 128,-1,31
 119 436 119 436 119 534 c 0,32,33
 119 672 119 672 122.5 749 c 128,-1,34
 126 826 126 826 142 903.5 c 128,-1,35
 158 981 158 981 185 1016 c 128,-1,36
 212 1051 212 1051 265 1081 c 128,-1,37
 318 1111 318 1111 390 1119.5 c 128,-1,38
 462 1128 462 1128 573 1128 c 0,39,40
 650 1128 650 1128 706 1123.5 c 128,-1,41
 762 1119 762 1119 809 1105 c 128,-1,42
 856 1091 856 1091 886.5 1073 c 128,-1,43
 917 1055 917 1055 940.5 1020 c 128,-1,44
 964 985 964 985 976.5 947.5 c 128,-1,45
 989 910 989 910 997 848 c 128,-1,46
 1005 786 1005 786 1007 722.5 c 128,-1,47
 1009 659 1009 659 1009 564 c 1,0,1
316 655 m 1,48,-1
 812 655 l 1,49,50
 810 783 810 783 802 889 c 0,51,52
 798 950 798 950 749.5 970.5 c 128,-1,53
 701 991 701 991 572 991 c 0,54,55
 429 991 429 991 391 975 c 1,56,57
 374 970 374 970 361.5 957.5 c 128,-1,58
 349 945 349 945 341 922 c 128,-1,59
 333 899 333 899 328.5 879 c 128,-1,60
 324 859 324 859 321.5 823.5 c 128,-1,61
 319 788 319 788 318 768.5 c 128,-1,62
 317 749 317 749 316.5 709 c 128,-1,63
 316 669 316 669 316 655 c 1,48,-1
EndSplineSet
EndChar

StartChar: f
Encoding: 102 102 74
Width: 694
GlyphClass: 2
Flags: W
LayerCount: 2
Fore
SplineSet
603 1505 m 1,0,-1
 603 1362 l 1,1,2
 549 1365 549 1365 499 1365 c 0,3,4
 437 1365 437 1365 424 1359 c 0,5,6
 402 1348 402 1348 399 1292 c 0,7,8
 398 1271 398 1271 398 1235 c 0,9,10
 398 1220 398 1220 398.5 1174.5 c 128,-1,11
 399 1129 399 1129 399 1097 c 1,12,-1
 597 1097 l 1,13,-1
 597 984 l 1,14,-1
 399 984 l 1,15,-1
 399 0 l 1,16,-1
 202 0 l 1,17,-1
 202 984 l 1,18,-1
 73 984 l 1,19,-1
 73 1097 l 1,20,-1
 202 1097 l 1,21,22
 202 1152 202 1152 202.5 1186.5 c 128,-1,23
 203 1221 203 1221 205 1263 c 128,-1,24
 207 1305 207 1305 210 1330 c 128,-1,25
 213 1355 213 1355 219.5 1384 c 128,-1,26
 226 1413 226 1413 234.5 1429.5 c 128,-1,27
 243 1446 243 1446 256 1464 c 128,-1,28
 269 1482 269 1482 285.5 1491 c 128,-1,29
 302 1500 302 1500 324 1508 c 128,-1,30
 346 1516 346 1516 372.5 1519 c 128,-1,31
 399 1522 399 1522 433 1522 c 0,32,33
 514 1522 514 1522 603 1505 c 1,0,-1
EndSplineSet
EndChar

StartChar: g
Encoding: 103 103 75
Width: 1173
GlyphClass: 2
Flags: W
LayerCount: 2
Fore
SplineSet
1013 1097 m 1,0,-1
 1013 139 l 2,1,2
 1013 40 1013 40 1006.5 -28 c 128,-1,3
 1000 -96 1000 -96 982.5 -155 c 128,-1,4
 965 -214 965 -214 935 -249.5 c 128,-1,5
 905 -285 905 -285 855.5 -311 c 128,-1,6
 806 -337 806 -337 739 -347 c 128,-1,7
 672 -357 672 -357 578 -357 c 0,8,9
 382 -357 382 -357 266 -316 c 1,10,-1
 279 -180 l 1,11,12
 391 -211 391 -211 545 -211 c 0,13,14
 618 -211 618 -211 668.5 -203 c 128,-1,15
 719 -195 719 -195 747.5 -183 c 128,-1,16
 776 -171 776 -171 791.5 -148.5 c 128,-1,17
 807 -126 807 -126 811.5 -104 c 128,-1,18
 816 -82 816 -82 816 -48 c 2,19,-1
 815 131 l 1,20,21
 788 61 788 61 722 29 c 128,-1,22
 656 -3 656 -3 536 -3 c 0,23,24
 450 -3 450 -3 386 9 c 128,-1,25
 322 21 322 21 277 39 c 128,-1,26
 232 57 232 57 202.5 95.5 c 128,-1,27
 173 134 173 134 156 168.5 c 128,-1,28
 139 203 139 203 131 267.5 c 128,-1,29
 123 332 123 332 121 383.5 c 128,-1,30
 119 435 119 435 119 524 c 0,31,32
 119 637 119 637 121 701 c 128,-1,33
 123 765 123 765 130 839.5 c 128,-1,34
 137 914 137 914 153 952 c 128,-1,35
 169 990 169 990 194.5 1029.5 c 128,-1,36
 220 1069 220 1069 261 1086 c 128,-1,37
 302 1103 302 1103 357.5 1114 c 128,-1,38
 413 1125 413 1125 490 1125 c 0,39,40
 621 1125 621 1125 700 1089.5 c 128,-1,41
 779 1054 779 1054 815 975 c 1,42,-1
 834 1097 l 1,43,-1
 1013 1097 l 1,0,-1
816 223 m 1,44,-1
 816 833 l 2,45,46
 816 917 816 917 760.5 953.5 c 128,-1,47
 705 990 705 990 562 990 c 0,48,49
 422 990 422 990 370 965 c 0,50,51
 314 938 314 938 314 746 c 0,52,53
 314 457 314 457 322 242 c 1,54,55
 325 195 325 195 346.5 173 c 128,-1,56
 368 151 368 151 420 142.5 c 128,-1,57
 472 134 472 134 583 134 c 0,58,59
 806 134 806 134 816 223 c 1,44,-1
EndSplineSet
EndChar

StartChar: h
Encoding: 104 104 76
Width: 1191
GlyphClass: 2
Flags: W
LayerCount: 2
Fore
SplineSet
1041 0 m 1,0,-1
 844 0 l 1,1,-1
 844 666 l 2,2,3
 844 702 844 702 845.5 757 c 128,-1,4
 847 812 847 812 847 830 c 0,5,6
 847 880 847 880 839.5 907 c 128,-1,7
 832 934 832 934 805 955 c 128,-1,8
 778 976 778 976 729 983 c 128,-1,9
 680 990 680 990 595 990 c 0,10,11
 555 990 555 990 519.5 985.5 c 128,-1,12
 484 981 484 981 452 970.5 c 128,-1,13
 420 960 420 960 400 941 c 128,-1,14
 380 922 380 922 378 896 c 0,15,16
 364 716 364 716 364 572 c 2,17,-1
 364 0 l 1,18,-1
 166 0 l 1,19,-1
 166 1486 l 1,20,-1
 364 1502 l 1,21,-1
 364 1014 l 1,22,23
 436 1128 436 1128 662 1128 c 1,24,25
 721 1127 721 1127 768.5 1120.5 c 128,-1,26
 816 1114 816 1114 853 1105 c 128,-1,27
 890 1096 890 1096 918 1080 c 128,-1,28
 946 1064 946 1064 966 1047 c 128,-1,29
 986 1030 986 1030 1000 1004.5 c 128,-1,30
 1014 979 1014 979 1022 955 c 128,-1,31
 1030 931 1030 931 1034.5 896 c 128,-1,32
 1039 861 1039 861 1040.5 830.5 c 128,-1,33
 1042 800 1042 800 1042 756 c 0,34,35
 1042 737 1042 737 1041.5 694.5 c 128,-1,36
 1041 652 1041 652 1041 629 c 2,37,-1
 1041 0 l 1,0,-1
EndSplineSet
EndChar

StartChar: i
Encoding: 105 105 77
Width: 533
GlyphClass: 2
Flags: W
LayerCount: 2
Fore
SplineSet
364 0 m 1,0,-1
 167 0 l 1,1,-1
 167 1097 l 1,2,-1
 364 1097 l 1,3,-1
 364 0 l 1,0,-1
364 1521 m 1,4,-1
 364 1348 l 1,5,-1
 167 1348 l 1,6,-1
 167 1521 l 1,7,-1
 364 1521 l 1,4,-1
EndSplineSet
EndChar

StartChar: j
Encoding: 106 106 78
Width: 515
GlyphClass: 2
Flags: W
LayerCount: 2
Fore
SplineSet
345 1097 m 1,0,-1
 345 61 l 2,1,2
 345 -139 345 -139 290.5 -220.5 c 128,-1,3
 236 -302 236 -302 90 -302 c 0,4,5
 46 -302 46 -302 -16 -294 c 1,6,-1
 -21 -172 l 1,7,8
 -9 -171 -9 -171 13.5 -171 c 128,-1,9
 36 -171 36 -171 48.5 -170.5 c 128,-1,10
 61 -170 61 -170 79 -167 c 128,-1,11
 97 -164 97 -164 107.5 -157 c 128,-1,12
 118 -150 118 -150 128.5 -139 c 128,-1,13
 139 -128 139 -128 143.5 -109 c 128,-1,14
 148 -90 148 -90 148 -64 c 2,15,-1
 148 1097 l 1,16,-1
 345 1097 l 1,0,-1
346 1521 m 1,17,-1
 346 1348 l 1,18,-1
 147 1348 l 1,19,-1
 147 1521 l 1,20,-1
 346 1521 l 1,17,-1
EndSplineSet
EndChar

StartChar: k
Encoding: 107 107 79
Width: 1110
GlyphClass: 2
Flags: W
LayerCount: 2
Fore
SplineSet
1055 0 m 1,0,-1
 838 0 l 1,1,-1
 456 572 l 1,2,-1
 364 469 l 1,3,-1
 364 0 l 1,4,-1
 166 0 l 1,5,-1
 166 1486 l 1,6,-1
 364 1502 l 1,7,-1
 364 782 l 2,8,9
 364 757 364 757 363.5 703 c 128,-1,10
 363 649 363 649 363 625 c 1,11,12
 395 659 395 659 454.5 725 c 128,-1,13
 514 791 514 791 534 812 c 2,14,-1
 795 1097 l 1,15,-1
 1019 1097 l 1,16,-1
 606 658 l 1,17,-1
 1055 0 l 1,0,-1
EndSplineSet
EndChar

StartChar: l
Encoding: 108 108 80
Width: 533
GlyphClass: 2
Flags: W
LayerCount: 2
Fore
SplineSet
365 0 m 1,0,-1
 168 0 l 1,1,-1
 168 1486 l 1,2,-1
 365 1502 l 1,3,-1
 365 0 l 1,0,-1
EndSplineSet
EndChar

StartChar: m
Encoding: 109 109 81
Width: 1760
GlyphClass: 2
Flags: W
LayerCount: 2
Fore
SplineSet
1609 0 m 1,0,-1
 1412 0 l 1,1,-1
 1412 666 l 2,2,3
 1412 779 1412 779 1415 838 c 1,4,5
 1415 874 1415 874 1410 896.5 c 128,-1,6
 1405 919 1405 919 1388 943 c 128,-1,7
 1371 967 1371 967 1332 978.5 c 128,-1,8
 1293 990 1293 990 1232 990 c 0,9,10
 1165 990 1165 990 1119.5 981.5 c 128,-1,11
 1074 973 1074 973 1046.5 958.5 c 128,-1,12
 1019 944 1019 944 1004 917 c 128,-1,13
 989 890 989 890 984.5 860.5 c 128,-1,14
 980 831 980 831 980 784 c 0,15,16
 980 762 980 762 981.5 705.5 c 128,-1,17
 983 649 983 649 983 614 c 2,18,-1
 983 0 l 1,19,-1
 786 0 l 1,20,-1
 786 702 l 2,21,22
 786 707 786 707 786 716 c 0,23,24
 786 784 786 784 785 813.5 c 128,-1,25
 784 843 784 843 777.5 882.5 c 128,-1,26
 771 922 771 922 758.5 936 c 128,-1,27
 746 950 746 950 720 966 c 128,-1,28
 694 982 694 982 657 986 c 128,-1,29
 620 990 620 990 563 990 c 0,30,31
 527 990 527 990 494.5 985.5 c 128,-1,32
 462 981 462 981 432 971 c 128,-1,33
 402 961 402 961 383 942 c 128,-1,34
 364 923 364 923 363 897 c 1,35,36
 350 764 350 764 350 605 c 2,37,-1
 350 0 l 1,38,-1
 153 0 l 1,39,-1
 153 1097 l 1,40,-1
 333 1097 l 1,41,-1
 352 977 l 1,42,43
 392 1058 392 1058 467 1092 c 128,-1,44
 542 1126 542 1126 657 1126 c 0,45,46
 770 1126 770 1126 837 1090 c 128,-1,47
 904 1054 904 1054 935 972 c 1,48,49
 1015 1128 1015 1128 1251 1128 c 0,50,51
 1328 1128 1328 1128 1382.5 1119.5 c 128,-1,52
 1437 1111 1437 1111 1478 1088 c 128,-1,53
 1519 1065 1519 1065 1543.5 1033 c 128,-1,54
 1568 1001 1568 1001 1583 947.5 c 128,-1,55
 1598 894 1598 894 1603.5 830 c 128,-1,56
 1609 766 1609 766 1609 673 c 2,57,-1
 1609 0 l 1,0,-1
EndSplineSet
EndChar

StartChar: n
Encoding: 110 110 82
Width: 1171
GlyphClass: 2
Flags: W
LayerCount: 2
Fore
SplineSet
1021 0 m 1,0,-1
 824 0 l 1,1,-1
 824 664 l 2,2,3
 824 728 824 728 823.5 766.5 c 128,-1,4
 823 805 823 805 819.5 844 c 128,-1,5
 816 883 816 883 812 902.5 c 128,-1,6
 808 922 808 922 797.5 941.5 c 128,-1,7
 787 961 787 961 776 968 c 128,-1,8
 765 975 765 975 744 981.5 c 128,-1,9
 723 988 723 988 702 989 c 128,-1,10
 681 990 681 990 646 990 c 0,11,12
 570 990 570 990 516.5 981.5 c 128,-1,13
 463 973 463 973 429 958 c 128,-1,14
 395 943 395 943 376.5 916 c 128,-1,15
 358 889 358 889 351 857.5 c 128,-1,16
 344 826 344 826 344 780 c 0,17,18
 344 754 344 754 347 689.5 c 128,-1,19
 350 625 350 625 350 585 c 2,20,-1
 350 0 l 1,21,-1
 153 0 l 1,22,-1
 153 1097 l 1,23,-1
 333 1097 l 1,24,-1
 352 974 l 1,25,26
 378 1056 378 1056 467 1092 c 128,-1,27
 556 1128 556 1128 679 1128 c 0,28,29
 737 1128 737 1128 782 1121 c 128,-1,30
 827 1114 827 1114 862 1097.5 c 128,-1,31
 897 1081 897 1081 922.5 1060 c 128,-1,32
 948 1039 948 1039 965.5 1004.5 c 128,-1,33
 983 970 983 970 994 934 c 128,-1,34
 1005 898 1005 898 1011 844 c 128,-1,35
 1017 790 1017 790 1019 736.5 c 128,-1,36
 1021 683 1021 683 1021 609 c 2,37,-1
 1021 0 l 1,0,-1
EndSplineSet
EndChar

StartChar: o
Encoding: 111 111 83
Width: 1178
GlyphClass: 2
Flags: W
LayerCount: 2
Fore
SplineSet
582 123 m 1,0,1
 724 126 724 126 779.5 144 c 128,-1,2
 835 162 835 162 835 215 c 1,3,4
 846 358 846 358 846 546 c 0,5,6
 846 608 846 608 841 723.5 c 128,-1,7
 836 839 836 839 836 895 c 0,8,9
 836 912 836 912 830.5 926 c 128,-1,10
 825 940 825 940 812.5 949.5 c 128,-1,11
 800 959 800 959 787.5 966 c 128,-1,12
 775 973 775 973 752.5 977 c 128,-1,13
 730 981 730 981 714.5 984 c 128,-1,14
 699 987 699 987 670.5 988 c 128,-1,15
 642 989 642 989 626.5 989 c 128,-1,16
 611 989 611 989 581 989 c 128,-1,17
 551 989 551 989 535.5 989 c 128,-1,18
 520 989 520 989 491.5 988 c 128,-1,19
 463 987 463 987 447.5 984 c 128,-1,20
 432 981 432 981 409.5 977 c 128,-1,21
 387 973 387 973 374.5 966 c 128,-1,22
 362 959 362 959 349.5 949.5 c 128,-1,23
 337 940 337 940 331.5 926 c 128,-1,24
 326 912 326 912 326 895 c 0,25,26
 326 839 326 839 321 723.5 c 128,-1,27
 316 608 316 608 316 546 c 0,28,29
 316 358 316 358 327 215 c 1,30,31
 327 162 327 162 385.5 142.5 c 128,-1,32
 444 123 444 123 582 123 c 1,0,1
580 -15 m 0,33,34
 469 -15 469 -15 395 -6 c 128,-1,35
 321 3 321 3 267.5 33.5 c 128,-1,36
 214 64 214 64 186 98.5 c 128,-1,37
 158 133 158 133 142 207.5 c 128,-1,38
 126 282 126 282 122.5 355 c 128,-1,39
 119 428 119 428 119 558 c 0,40,41
 119 655 119 655 121.5 720 c 128,-1,42
 124 785 124 785 133 847.5 c 128,-1,43
 142 910 142 910 155.5 948.5 c 128,-1,44
 169 987 169 987 194.5 1021.5 c 128,-1,45
 220 1056 220 1056 252 1074 c 128,-1,46
 284 1092 284 1092 333.5 1105.5 c 128,-1,47
 383 1119 383 1119 441.5 1123.5 c 128,-1,48
 500 1128 500 1128 581 1128 c 128,-1,49
 662 1128 662 1128 720.5 1123.5 c 128,-1,50
 779 1119 779 1119 828.5 1105.5 c 128,-1,51
 878 1092 878 1092 910 1074 c 128,-1,52
 942 1056 942 1056 967.5 1021.5 c 128,-1,53
 993 987 993 987 1006.5 948.5 c 128,-1,54
 1020 910 1020 910 1029 847.5 c 128,-1,55
 1038 785 1038 785 1040.5 720 c 128,-1,56
 1043 655 1043 655 1043 558 c 0,57,58
 1043 428 1043 428 1039.5 355 c 128,-1,59
 1036 282 1036 282 1020 207.5 c 128,-1,60
 1004 133 1004 133 975.5 98 c 128,-1,61
 947 63 947 63 893.5 33 c 128,-1,62
 840 3 840 3 766 -6 c 128,-1,63
 692 -15 692 -15 580 -15 c 0,33,34
EndSplineSet
EndChar

StartChar: p
Encoding: 112 112 84
Width: 1188
GlyphClass: 2
Flags: W
LayerCount: 2
Fore
SplineSet
1053 541 m 0,0,1
 1053 449 1053 449 1049.5 385 c 128,-1,2
 1046 321 1046 321 1036.5 258 c 128,-1,3
 1027 195 1027 195 1008.5 155 c 128,-1,4
 990 115 990 115 960.5 79.5 c 128,-1,5
 931 44 931 44 888 25 c 128,-1,6
 845 6 845 6 787 -4.5 c 128,-1,7
 729 -15 729 -15 652 -15 c 0,8,9
 388 -15 388 -15 350 103 c 1,10,-1
 350 -372 l 1,11,-1
 153 -387 l 1,12,-1
 153 1097 l 1,13,-1
 332 1097 l 1,14,-1
 351 976 l 1,15,16
 412 1128 412 1128 671 1128 c 0,17,18
 724 1128 724 1128 767.5 1123.5 c 128,-1,19
 811 1119 811 1119 846.5 1107 c 128,-1,20
 882 1095 882 1095 909.5 1081 c 128,-1,21
 937 1067 937 1067 958.5 1042.5 c 128,-1,22
 980 1018 980 1018 995 993 c 128,-1,23
 1010 968 1010 968 1020.5 929.5 c 128,-1,24
 1031 891 1031 891 1037.5 854 c 128,-1,25
 1044 817 1044 817 1047.5 763.5 c 128,-1,26
 1051 710 1051 710 1052 660.5 c 128,-1,27
 1053 611 1053 611 1053 541 c 0,0,1
856 606 m 0,28,29
 854 807 854 807 850 872 c 0,30,31
 846 942 846 942 797.5 966 c 128,-1,32
 749 990 749 990 606 990 c 0,33,34
 425 990 425 990 374 932 c 1,35,36
 346 891 346 891 346 693 c 0,37,38
 346 653 346 653 347.5 574 c 128,-1,39
 349 495 349 495 349 460 c 128,-1,40
 349 425 349 425 346.5 370 c 128,-1,41
 344 315 344 315 344 294 c 0,42,43
 344 233 344 233 363.5 198 c 128,-1,44
 383 163 383 163 441.5 142.5 c 128,-1,45
 500 122 500 122 606 122 c 0,46,47
 752 122 752 122 803 146 c 0,48,49
 858 172 858 172 858 415 c 0,50,51
 858 452 858 452 857 517 c 128,-1,52
 856 582 856 582 856 606 c 0,28,29
EndSplineSet
EndChar

StartChar: q
Encoding: 113 113 85
Width: 1180
GlyphClass: 2
Flags: W
LayerCount: 2
Fore
SplineSet
1017 -372 m 1,0,-1
 820 -387 l 1,1,-1
 820 103 l 1,2,3
 776 -15 776 -15 516 -15 c 0,4,5
 433 -15 433 -15 370.5 0 c 128,-1,6
 308 15 308 15 265.5 36.5 c 128,-1,7
 223 58 223 58 194.5 102 c 128,-1,8
 166 146 166 146 150.5 184 c 128,-1,9
 135 222 135 222 127.5 292.5 c 128,-1,10
 120 363 120 363 118.5 414 c 128,-1,11
 117 465 117 465 117 557 c 0,12,13
 117 641 117 641 119 700 c 128,-1,14
 121 759 121 759 128 819.5 c 128,-1,15
 135 880 135 880 147 919.5 c 128,-1,16
 159 959 159 959 178.5 996.5 c 128,-1,17
 198 1034 198 1034 226 1056.5 c 128,-1,18
 254 1079 254 1079 293.5 1096.5 c 128,-1,19
 333 1114 333 1114 384 1121 c 128,-1,20
 435 1128 435 1128 500 1128 c 0,21,22
 763 1128 763 1128 818 976 c 1,23,-1
 837 1097 l 1,24,-1
 1017 1097 l 1,25,-1
 1017 -372 l 1,0,-1
820 252 m 1,26,-1
 820 844 l 2,27,28
 820 926 820 926 762 958 c 128,-1,29
 704 990 704 990 562 990 c 0,30,31
 418 990 418 990 367 963 c 0,32,33
 311 933 311 933 311 698 c 0,34,35
 311 395 311 395 320 233 c 0,36,37
 323 184 323 184 343.5 161.5 c 128,-1,38
 364 139 364 139 412.5 130.5 c 128,-1,39
 461 122 461 122 564 122 c 0,40,41
 709 122 709 122 761.5 149 c 128,-1,42
 814 176 814 176 820 252 c 1,26,-1
EndSplineSet
EndChar

StartChar: r
Encoding: 114 114 86
Width: 726
GlyphClass: 2
Flags: W
LayerCount: 2
Fore
SplineSet
641 1122 m 1,0,-1
 633 955 l 1,1,2
 595 960 595 960 561 960 c 0,3,4
 490 960 490 960 446 946 c 128,-1,5
 402 932 402 932 379.5 898 c 128,-1,6
 357 864 357 864 349.5 820.5 c 128,-1,7
 342 777 342 777 342 704 c 0,8,9
 342 663 342 663 345.5 584 c 128,-1,10
 349 505 349 505 349 471 c 2,11,-1
 349 0 l 1,12,-1
 152 0 l 1,13,-1
 152 1097 l 1,14,-1
 331 1097 l 1,15,-1
 351 974 l 1,16,17
 382 1046 382 1046 445 1085.5 c 128,-1,18
 508 1125 508 1125 596 1125 c 0,19,20
 618 1125 618 1125 641 1122 c 1,0,-1
EndSplineSet
EndChar

StartChar: s
Encoding: 115 115 87
Width: 1075
GlyphClass: 2
Flags: W
LayerCount: 2
Fore
SplineSet
952 304 m 0,0,1
 952 208 952 208 931 146.5 c 128,-1,2
 910 85 910 85 861.5 49 c 128,-1,3
 813 13 813 13 743.5 -1 c 128,-1,4
 674 -15 674 -15 568 -15 c 0,5,6
 506 -15 506 -15 468.5 -14 c 128,-1,7
 431 -13 431 -13 382 -9 c 128,-1,8
 333 -5 333 -5 304 3.5 c 128,-1,9
 275 12 275 12 241.5 26.5 c 128,-1,10
 208 41 208 41 189 63.5 c 128,-1,11
 170 86 170 86 153 117 c 128,-1,12
 136 148 136 148 129 190.5 c 128,-1,13
 122 233 122 233 122 287 c 1,14,-1
 277 327 l 1,15,16
 286 213 286 213 298 183 c 1,17,18
 316 142 316 142 373 131 c 0,19,20
 416 122 416 122 554 122 c 0,21,22
 637 122 637 122 677.5 129.5 c 128,-1,23
 718 137 718 137 732 158 c 1,24,25
 772 191 772 191 772 383 c 0,26,27
 772 412 772 412 760 432.5 c 128,-1,28
 748 453 748 453 731 463.5 c 128,-1,29
 714 474 714 474 683.5 481.5 c 128,-1,30
 653 489 653 489 628.5 491.5 c 128,-1,31
 604 494 604 494 564 498 c 128,-1,32
 524 502 524 502 500 505 c 0,33,34
 427 513 427 513 381 520.5 c 128,-1,35
 335 528 335 528 288 543 c 128,-1,36
 241 558 241 558 214.5 580 c 128,-1,37
 188 602 188 602 166 637 c 128,-1,38
 144 672 144 672 135 721 c 128,-1,39
 126 770 126 770 126 838 c 0,40,41
 126 910 126 910 141 960 c 128,-1,42
 156 1010 156 1010 185 1043 c 128,-1,43
 214 1076 214 1076 264.5 1094.5 c 128,-1,44
 315 1113 315 1113 378 1120.5 c 128,-1,45
 441 1128 441 1128 532 1128 c 0,46,47
 589 1128 589 1128 625.5 1126.5 c 128,-1,48
 662 1125 662 1125 705.5 1119.5 c 128,-1,49
 749 1114 749 1114 776 1104 c 128,-1,50
 803 1094 803 1094 830.5 1076 c 128,-1,51
 858 1058 858 1058 873 1031.5 c 128,-1,52
 888 1005 888 1005 897.5 967 c 128,-1,53
 907 929 907 929 907 880 c 1,54,-1
 773 839 l 1,55,56
 769 878 769 878 765.5 900.5 c 128,-1,57
 762 923 762 923 750 942 c 128,-1,58
 738 961 738 961 725 969 c 128,-1,59
 712 977 712 977 680.5 983 c 128,-1,60
 649 989 649 989 617 990 c 128,-1,61
 585 991 585 991 525 991 c 0,62,63
 397 991 397 991 351.5 965.5 c 128,-1,64
 306 940 306 940 306 882 c 2,65,-1
 306 780 l 2,66,67
 306 714 306 714 345.5 696.5 c 128,-1,68
 385 679 385 679 557 657 c 0,69,70
 575 654 575 654 584 653 c 0,71,72
 653 645 653 645 693.5 638 c 128,-1,73
 734 631 734 631 779 619.5 c 128,-1,74
 824 608 824 608 847.5 592.5 c 128,-1,75
 871 577 871 577 894.5 553 c 128,-1,76
 918 529 918 529 928.5 494 c 128,-1,77
 939 459 939 459 945.5 413 c 128,-1,78
 952 367 952 367 952 304 c 0,0,1
EndSplineSet
EndChar

StartChar: t
Encoding: 116 116 88
Width: 720
GlyphClass: 2
Flags: W
LayerCount: 2
Fore
SplineSet
601 139 m 1,0,-1
 597 -1 l 1,1,2
 513 -15 513 -15 445 -15 c 0,3,4
 372 -15 372 -15 324.5 1 c 128,-1,5
 277 17 277 17 253 52 c 128,-1,6
 229 87 229 87 220 129.5 c 128,-1,7
 211 172 211 172 211 238 c 2,8,-1
 211 985 l 1,9,-1
 62 985 l 1,10,-1
 62 1097 l 1,11,-1
 211 1097 l 1,12,-1
 211 1409 l 1,13,-1
 407 1425 l 1,14,-1
 407 1097 l 1,15,-1
 609 1097 l 1,16,-1
 609 985 l 1,17,-1
 407 985 l 1,18,-1
 407 305 l 2,19,20
 407 197 407 197 417.5 165 c 128,-1,21
 428 133 428 133 475 133 c 0,22,23
 521 133 521 133 601 139 c 1,0,-1
EndSplineSet
EndChar

StartChar: u
Encoding: 117 117 89
Width: 1170
GlyphClass: 2
Flags: W
LayerCount: 2
Fore
SplineSet
1010 -1 m 1,0,-1
 828 -1 l 1,1,-1
 810 140 l 1,2,3
 784 61 784 61 696.5 23 c 128,-1,4
 609 -15 609 -15 483 -15 c 0,5,6
 397 -15 397 -15 338 2 c 128,-1,7
 279 19 279 19 239.5 51.5 c 128,-1,8
 200 84 200 84 178.5 142.5 c 128,-1,9
 157 201 157 201 148.5 273.5 c 128,-1,10
 140 346 140 346 140 454 c 2,11,-1
 140 1097 l 1,12,-1
 337 1097 l 1,13,-1
 337 460 l 2,14,15
 337 438 337 438 336.5 400.5 c 128,-1,16
 336 363 336 363 336 348 c 0,17,18
 336 295 336 295 338 265 c 128,-1,19
 340 235 340 235 348.5 206 c 128,-1,20
 357 177 357 177 371 163.5 c 128,-1,21
 385 150 385 150 413 139 c 128,-1,22
 441 128 441 128 477.5 125 c 128,-1,23
 514 122 514 122 571 122 c 0,24,25
 635 122 635 122 680 131 c 128,-1,26
 725 140 725 140 751 154.5 c 128,-1,27
 777 169 777 169 790.5 194 c 128,-1,28
 804 219 804 219 808 243 c 128,-1,29
 812 267 812 267 812 303 c 0,30,31
 812 315 812 315 811.5 342 c 128,-1,32
 811 369 811 369 811 383 c 2,33,-1
 811 1097 l 1,34,-1
 1010 1097 l 1,35,-1
 1010 -1 l 1,0,-1
EndSplineSet
EndChar

StartChar: v
Encoding: 118 118 90
Width: 1060
GlyphClass: 2
Flags: W
LayerCount: 2
Fore
SplineSet
982 1097 m 1,0,-1
 619 0 l 1,1,-1
 405 0 l 1,2,-1
 60 1097 l 1,3,-1
 245 1097 l 1,4,-1
 513 171 l 1,5,-1
 779 1097 l 1,6,-1
 982 1097 l 1,0,-1
EndSplineSet
EndChar

StartChar: w
Encoding: 119 119 91
Width: 1580
GlyphClass: 2
Flags: W
LayerCount: 2
Fore
SplineSet
1492 1097 m 1,0,-1
 1206 0 l 1,1,-1
 1024 0 l 1,2,-1
 785 834 l 1,3,-1
 558 0 l 1,4,-1
 356 0 l 1,5,-1
 68 1097 l 1,6,-1
 257 1097 l 1,7,-1
 454 233 l 1,8,-1
 694 1097 l 1,9,-1
 871 1097 l 1,10,-1
 1096 233 l 1,11,-1
 1295 1097 l 1,12,-1
 1492 1097 l 1,0,-1
EndSplineSet
EndChar

StartChar: x
Encoding: 120 120 92
Width: 1072
GlyphClass: 2
Flags: W
LayerCount: 2
Fore
SplineSet
986 0 m 1,0,-1
 779 0 l 1,1,-1
 534 430 l 1,2,-1
 286 0 l 1,3,-1
 81 0 l 1,4,-1
 427 565 l 1,5,-1
 89 1097 l 1,6,-1
 295 1097 l 1,7,-1
 534 688 l 1,8,-1
 774 1097 l 1,9,-1
 977 1097 l 1,10,-1
 644 563 l 1,11,-1
 986 0 l 1,0,-1
EndSplineSet
EndChar

StartChar: y
Encoding: 121 121 93
Width: 1080
GlyphClass: 2
Flags: W
LayerCount: 2
Fore
SplineSet
1003 1097 m 1,0,-1
 657 53 l 2,1,2
 644 15 644 15 629.5 -38.5 c 128,-1,3
 615 -92 615 -92 605.5 -125 c 128,-1,4
 596 -158 596 -158 581.5 -197.5 c 128,-1,5
 567 -237 567 -237 550 -260.5 c 128,-1,6
 533 -284 533 -284 508 -305.5 c 128,-1,7
 483 -327 483 -327 448 -336.5 c 128,-1,8
 413 -346 413 -346 367 -346 c 0,9,10
 248 -346 248 -346 151 -323 c 1,11,-1
 181 -171 l 1,12,13
 200 -173 200 -173 232 -178.5 c 128,-1,14
 264 -184 264 -184 287.5 -187 c 128,-1,15
 311 -190 311 -190 331 -190 c 0,16,17
 395 -190 395 -190 428 -146 c 128,-1,18
 461 -102 461 -102 462 17 c 1,19,-1
 51 1097 l 1,20,-1
 250 1097 l 1,21,-1
 452 540 l 2,22,23
 507 388 507 388 554 253 c 1,24,25
 587 374 587 374 651 587 c 2,26,-1
 802 1097 l 1,27,-1
 1003 1097 l 1,0,-1
EndSplineSet
EndChar

StartChar: z
Encoding: 122 122 94
Width: 943
GlyphClass: 2
Flags: W
LayerCount: 2
Fore
SplineSet
811 0 m 1,0,-1
 104 0 l 1,1,-1
 104 141 l 1,2,-1
 617 960 l 1,3,-1
 150 960 l 1,4,-1
 141 1097 l 1,5,-1
 805 1097 l 1,6,-1
 814 960 l 1,7,-1
 315 135 l 1,8,-1
 820 135 l 1,9,-1
 811 0 l 1,0,-1
EndSplineSet
EndChar

StartChar: braceleft
Encoding: 123 123 95
Width: 637
GlyphClass: 2
Flags: W
LayerCount: 2
Fore
SplineSet
656 1694 m 1,0,-1
 656 1530 l 1,1,2
 554 1530 554 1530 502.5 1488 c 128,-1,3
 451 1446 451 1446 429 1334 c 1,4,5
 409 1267 409 1267 396.5 1185 c 128,-1,6
 384 1103 384 1103 377.5 1046 c 128,-1,7
 371 989 371 989 358 933 c 128,-1,8
 345 877 345 877 316 838 c 128,-1,9
 287 799 287 799 238 778 c 1,10,11
 286 759 286 759 317 714.5 c 128,-1,12
 348 670 348 670 362.5 608.5 c 128,-1,13
 377 547 377 547 384 488 c 128,-1,14
 391 429 391 429 398.5 356 c 128,-1,15
 406 283 406 283 415 241 c 1,16,17
 435 111 435 111 490 51.5 c 128,-1,18
 545 -8 545 -8 657 -8 c 1,19,-1
 657 -172 l 1,20,21
 485 -172 485 -172 383.5 -106 c 128,-1,22
 282 -40 282 -40 240 104 c 0,23,24
 230 139 230 139 225 215.5 c 128,-1,25
 220 292 220 292 214.5 364 c 128,-1,26
 209 436 209 436 196 506.5 c 128,-1,27
 183 577 183 577 149 620.5 c 128,-1,28
 115 664 115 664 60 664 c 1,29,-1
 60 858 l 1,30,31
 144 858 144 858 179 976 c 0,32,33
 195 1027 195 1027 215 1188 c 0,34,35
 215 1192 215 1192 216 1196 c 0,36,37
 222 1241 222 1241 226 1269 c 128,-1,38
 230 1297 230 1297 239.5 1343 c 128,-1,39
 249 1389 249 1389 259.5 1419.5 c 128,-1,40
 270 1450 270 1450 288.5 1490 c 128,-1,41
 307 1530 307 1530 329 1556.5 c 128,-1,42
 351 1583 351 1583 383 1611.5 c 128,-1,43
 415 1640 415 1640 454 1656.5 c 128,-1,44
 493 1673 493 1673 544.5 1683.5 c 128,-1,45
 596 1694 596 1694 656 1694 c 1,0,-1
EndSplineSet
EndChar

StartChar: bar
Encoding: 124 124 96
Width: 510
GlyphClass: 2
Flags: W
LayerCount: 2
Fore
SplineSet
169 1716 m 1,0,-1
 344 1716 l 1,1,-1
 344 -98 l 1,2,-1
 169 -98 l 1,3,-1
 169 1716 l 1,0,-1
EndSplineSet
EndChar

StartChar: braceright
Encoding: 125 125 97
Width: 648
GlyphClass: 2
Flags: W
LayerCount: 2
Fore
SplineSet
-12 -172 m 1,0,-1
 -12 -8 l 1,1,2
 85 -8 85 -8 135 30.5 c 128,-1,3
 185 69 185 69 211 171 c 1,4,5
 229 227 229 227 239 328.5 c 128,-1,6
 249 430 249 430 255.5 508.5 c 128,-1,7
 262 587 262 587 292 660 c 128,-1,8
 322 733 322 733 377 758 c 1,9,10
 343 775 343 775 318.5 808.5 c 128,-1,11
 294 842 294 842 280.5 891.5 c 128,-1,12
 267 941 267 941 260 984.5 c 128,-1,13
 253 1028 253 1028 247 1091 c 1,14,15
 242 1164 242 1164 236.5 1214 c 128,-1,16
 231 1264 231 1264 222 1313.5 c 128,-1,17
 213 1363 213 1363 200.5 1394.5 c 128,-1,18
 188 1426 188 1426 169.5 1454.5 c 128,-1,19
 151 1483 151 1483 125.5 1498 c 128,-1,20
 100 1513 100 1513 66.5 1521.5 c 128,-1,21
 33 1530 33 1530 -11 1530 c 1,22,-1
 -11 1694 l 1,23,24
 81 1694 81 1694 149.5 1672 c 128,-1,25
 218 1650 218 1650 263.5 1612.5 c 128,-1,26
 309 1575 309 1575 341 1511.5 c 128,-1,27
 373 1448 373 1448 391.5 1378 c 128,-1,28
 410 1308 410 1308 425 1207 c 2,29,-1
 444 1082 l 2,30,31
 462 962 462 962 491 910 c 128,-1,32
 520 858 520 858 585 858 c 1,33,-1
 585 664 l 1,34,35
 515 664 515 664 485 611.5 c 128,-1,36
 455 559 455 559 442 442 c 1,37,-1
 430 304 l 1,38,39
 423 242 423 242 416 198.5 c 128,-1,40
 409 155 409 155 394.5 101 c 128,-1,41
 380 47 380 47 360.5 11 c 128,-1,42
 341 -25 341 -25 308 -62.5 c 128,-1,43
 275 -100 275 -100 232 -122 c 128,-1,44
 189 -144 189 -144 127 -158 c 128,-1,45
 65 -172 65 -172 -12 -172 c 1,0,-1
EndSplineSet
EndChar

StartChar: asciitilde
Encoding: 126 126 98
Width: 1015
GlyphClass: 2
Flags: W
LayerCount: 2
Fore
SplineSet
932 1047 m 1,0,1
 881 832 881 832 705 832 c 0,2,3
 652 832 652 832 591 853 c 128,-1,4
 530 874 530 874 484 899 c 128,-1,5
 438 924 438 924 381.5 945 c 128,-1,6
 325 966 325 966 280 966 c 0,7,8
 202 966 202 966 134 903 c 1,9,-1
 105 945 l 1,10,11
 155 1132 155 1132 314 1132 c 0,12,13
 381 1132 381 1132 443 1113.5 c 128,-1,14
 505 1095 505 1095 543.5 1073 c 128,-1,15
 582 1051 582 1051 628 1032.5 c 128,-1,16
 674 1014 674 1014 713 1014 c 0,17,18
 795 1014 795 1014 898 1097 c 1,19,-1
 932 1047 l 1,0,1
EndSplineSet
EndChar

StartChar: exclamdown
Encoding: 161 161 99
Width: 528
GlyphClass: 2
Flags: W
LayerCount: 2
Fore
SplineSet
414 1386 m 0,0,1
 414 1318 414 1318 373 1274 c 128,-1,2
 332 1230 332 1230 265 1230 c 0,3,4
 202 1230 202 1230 159.5 1275.5 c 128,-1,5
 117 1321 117 1321 117 1386 c 0,6,7
 117 1452 117 1452 157 1497 c 128,-1,8
 197 1542 197 1542 265 1542 c 0,9,10
 328 1542 328 1542 371 1497 c 128,-1,11
 414 1452 414 1452 414 1386 c 0,0,1
298 -33 m 1,12,13
 208 -33 208 -33 167 25 c 1,14,15
 155 64 155 64 155 126 c 0,16,17
 155 246 155 246 175.5 460 c 128,-1,18
 196 674 196 674 212.5 800 c 128,-1,19
 229 926 229 926 237 982 c 1,20,21
 254 995 254 995 279 995 c 1,22,23
 297 963 297 963 334.5 700.5 c 128,-1,24
 372 438 372 438 372 250 c 0,25,26
 372 82 372 82 360 30 c 128,-1,27
 348 -22 348 -22 298 -33 c 1,12,13
EndSplineSet
EndChar

StartChar: cent
Encoding: 162 162 100
Width: 1067
GlyphClass: 2
Flags: W
LayerCount: 2
Fore
SplineSet
198 200 m 0,0,1
 145 248 145 248 130 352 c 128,-1,2
 115 456 115 456 115 647 c 0,3,4
 115 676 115 676 115 729 c 0,5,6
 115 825 115 825 115.5 868.5 c 128,-1,7
 116 912 116 912 118.5 982 c 128,-1,8
 121 1052 121 1052 129 1080 c 128,-1,9
 137 1108 137 1108 149.5 1153.5 c 128,-1,10
 162 1199 162 1199 184 1215.5 c 128,-1,11
 206 1232 206 1232 235.5 1256.5 c 128,-1,12
 265 1281 265 1281 307 1288.5 c 128,-1,13
 349 1296 349 1296 402 1303 c 128,-1,14
 455 1310 455 1310 525 1311 c 1,15,-1
 525 1505 l 1,16,-1
 598 1505 l 1,17,-1
 598 1310 l 1,18,19
 755 1307 755 1307 842.5 1276.5 c 128,-1,20
 930 1246 930 1246 964.5 1187.5 c 128,-1,21
 999 1129 999 1129 999 1028 c 0,22,23
 999 1000 999 1000 997 961 c 128,-1,24
 995 922 995 922 995 911 c 1,25,-1
 807 911 l 1,26,27
 807 939 807 939 808 981 c 128,-1,28
 809 1023 809 1023 809 1037 c 0,29,30
 809 1082 809 1082 803.5 1104.5 c 128,-1,31
 798 1127 798 1127 773.5 1142 c 128,-1,32
 749 1157 749 1157 711.5 1160.5 c 128,-1,33
 674 1164 674 1164 598 1165 c 1,34,-1
 598 260 l 1,35,36
 666 256 666 256 686 256 c 0,37,38
 735 256 735 256 758.5 273 c 128,-1,39
 782 290 782 290 794.5 344.5 c 128,-1,40
 807 399 807 399 807 510 c 1,41,-1
 995 510 l 1,42,43
 997 476 997 476 997 474 c 0,44,45
 997 407 997 407 992 360.5 c 128,-1,46
 987 314 987 314 973 274 c 128,-1,47
 959 234 959 234 937 209 c 128,-1,48
 915 184 915 184 878 165 c 128,-1,49
 841 146 841 146 793 135.5 c 128,-1,50
 745 125 745 125 677 120 c 0,51,52
 627 116 627 116 598 116 c 1,53,-1
 598 -72 l 1,54,-1
 525 -72 l 1,55,-1
 525 116 l 1,56,57
 284 120 284 120 198 200 c 0,0,1
525 262 m 1,58,-1
 525 1165 l 1,59,60
 510 1165 510 1165 485.5 1165.5 c 128,-1,61
 461 1166 461 1166 451 1166 c 0,62,63
 416 1166 416 1166 396 1164 c 128,-1,64
 376 1162 376 1162 358.5 1153 c 128,-1,65
 341 1144 341 1144 333 1131.5 c 128,-1,66
 325 1119 325 1119 319 1091 c 128,-1,67
 313 1063 313 1063 311.5 1030 c 128,-1,68
 310 997 310 997 310 942 c 0,69,70
 310 894 310 894 308.5 772.5 c 128,-1,71
 307 651 307 651 307 590 c 0,72,73
 307 369 307 369 322 320 c 0,74,75
 333 283 333 283 376 272.5 c 128,-1,76
 419 262 419 262 525 262 c 1,58,-1
EndSplineSet
EndChar

StartChar: sterling
Encoding: 163 163 101
Width: 1409
GlyphClass: 2
Flags: W
LayerCount: 2
Fore
SplineSet
1295 1077 m 1,0,-1
 1118 1054 l 1,1,2
 1118 1058 1118 1058 1106 1271 c 1,3,4
 1097 1324 1097 1324 1039 1338.5 c 128,-1,5
 981 1353 981 1353 809 1353 c 0,6,7
 707 1353 707 1353 638.5 1347 c 128,-1,8
 570 1341 570 1341 530 1331 c 128,-1,9
 490 1321 490 1321 470 1301 c 128,-1,10
 450 1281 450 1281 444.5 1261 c 128,-1,11
 439 1241 439 1241 439 1207 c 0,12,13
 439 1154 439 1154 441.5 1095.5 c 128,-1,14
 444 1037 444 1037 449 962 c 128,-1,15
 454 887 454 887 456 847 c 1,16,-1
 1006 847 l 1,17,-1
 1006 701 l 1,18,-1
 459 701 l 1,19,20
 456 455 456 455 435 244 c 1,21,22
 447 207 447 207 527 192.5 c 128,-1,23
 607 178 607 178 782 178 c 0,24,25
 968 178 968 178 1046.5 192.5 c 128,-1,26
 1125 207 1125 207 1136 255 c 1,27,-1
 1151 465 l 1,28,-1
 1306 437 l 1,29,30
 1302 353 1302 353 1298.5 304.5 c 128,-1,31
 1295 256 1295 256 1284.5 203.5 c 128,-1,32
 1274 151 1274 151 1262 125 c 128,-1,33
 1250 99 1250 99 1223.5 71.5 c 128,-1,34
 1197 44 1197 44 1167.5 33.5 c 128,-1,35
 1138 23 1138 23 1086.5 13.5 c 128,-1,36
 1035 4 1035 4 978.5 2 c 128,-1,37
 922 0 922 0 836 0 c 0,38,39
 823 0 823 0 798 0 c 0,40,41
 711 0 711 0 670 0.5 c 128,-1,42
 629 1 629 1 566 4.5 c 128,-1,43
 503 8 503 8 473.5 17 c 128,-1,44
 444 26 444 26 409.5 41 c 128,-1,45
 375 56 375 56 358 80.5 c 128,-1,46
 341 105 341 105 333 139 c 1,47,48
 309 0 309 0 105 0 c 1,49,-1
 105 220 l 1,50,51
 200 227 200 227 225.5 248 c 128,-1,52
 251 269 251 269 254 341 c 0,53,54
 257 411 257 411 259 702 c 1,55,-1
 107 702 l 1,56,-1
 107 848 l 1,57,-1
 255 848 l 1,58,59
 239 1054 239 1054 239 1112 c 0,60,61
 239 1206 239 1206 253 1274.5 c 128,-1,62
 267 1343 267 1343 299 1390.5 c 128,-1,63
 331 1438 331 1438 372.5 1468 c 128,-1,64
 414 1498 414 1498 480 1514 c 128,-1,65
 546 1530 546 1530 615.5 1536 c 128,-1,66
 685 1542 685 1542 785 1542 c 0,67,68
 859 1542 859 1542 916.5 1539.5 c 128,-1,69
 974 1537 974 1537 1022 1527 c 128,-1,70
 1070 1517 1070 1517 1105 1510 c 128,-1,71
 1140 1503 1140 1503 1168 1480.5 c 128,-1,72
 1196 1458 1196 1458 1214 1444.5 c 128,-1,73
 1232 1431 1232 1431 1246 1394.5 c 128,-1,74
 1260 1358 1260 1358 1267.5 1336 c 128,-1,75
 1275 1314 1275 1314 1281 1261.5 c 128,-1,76
 1287 1209 1287 1209 1289 1177.5 c 128,-1,77
 1291 1146 1291 1146 1295 1077 c 1,0,-1
EndSplineSet
EndChar

StartChar: currency
Encoding: 164 164 102
Width: 1123
GlyphClass: 2
Flags: W
LayerCount: 2
Fore
SplineSet
250 773 m 0,0,1
 250 606 250 606 325 526.5 c 128,-1,2
 400 447 400 447 564 447 c 0,3,4
 877 447 877 447 877 772 c 0,5,6
 877 938 877 938 803 1018 c 128,-1,7
 729 1098 729 1098 564 1098 c 0,8,9
 250 1098 250 1098 250 773 c 0,0,1
123 287 m 1,10,-1
 262 457 l 1,11,12
 145 568 145 568 145 764 c 0,13,14
 145 959 145 959 262 1070 c 1,15,-1
 124 1241 l 1,16,-1
 187 1311 l 1,17,-1
 337 1130 l 1,18,19
 426 1189 426 1189 562 1189 c 0,20,21
 697 1189 697 1189 786 1133 c 1,22,-1
 938 1310 l 1,23,-1
 1002 1240 l 1,24,-1
 864 1071 l 1,25,26
 984 958 984 958 984 765 c 0,27,28
 984 571 984 571 864 457 c 1,29,-1
 1003 287 l 1,30,-1
 939 218 l 1,31,-1
 789 397 l 1,32,33
 698 349 698 349 564 349 c 0,34,35
 424 349 424 349 336 398 c 1,36,-1
 186 218 l 1,37,-1
 123 287 l 1,10,-1
EndSplineSet
EndChar

StartChar: yen
Encoding: 165 165 103
Width: 1147
GlyphClass: 2
Flags: W
LayerCount: 2
Fore
SplineSet
916 261 m 1,0,-1
 172 261 l 1,1,-1
 172 347 l 1,2,-1
 916 347 l 1,3,-1
 916 261 l 1,0,-1
963 631 m 1,4,-1
 963 518 l 1,5,-1
 125 518 l 1,6,-1
 125 631 l 1,7,-1
 963 631 l 1,4,-1
1090 1490 m 1,8,-1
 639 518 l 1,9,-1
 639 0 l 1,10,-1
 437 0 l 1,11,-1
 437 518 l 1,12,-1
 -1 1490 l 1,13,-1
 220 1490 l 1,14,-1
 545 727 l 1,15,-1
 876 1490 l 1,16,-1
 1090 1490 l 1,8,-1
EndSplineSet
EndChar

StartChar: brokenbar
Encoding: 166 166 104
Width: 510
GlyphClass: 2
Flags: W
LayerCount: 2
Fore
SplineSet
162 563 m 1,0,-1
 349 563 l 1,1,-1
 349 -249 l 1,2,-1
 162 -249 l 1,3,-1
 162 563 l 1,0,-1
162 1631 m 1,4,-1
 349 1631 l 1,5,-1
 349 819 l 1,6,-1
 162 819 l 1,7,-1
 162 1631 l 1,4,-1
EndSplineSet
EndChar

StartChar: section
Encoding: 167 167 105
Width: 1062
GlyphClass: 2
Flags: W
LayerCount: 2
Fore
SplineSet
322 775 m 0,0,1
 322 648 322 648 360 618.5 c 128,-1,2
 398 589 398 589 573 564 c 0,3,4
 658 552 658 552 711 543 c 1,5,6
 743 567 743 567 743 685 c 0,7,8
 743 779 743 779 723.5 816.5 c 128,-1,9
 704 854 704 854 652 870 c 0,10,11
 580 892 580 892 511 907 c 128,-1,12
 442 922 442 922 399 929 c 128,-1,13
 356 936 356 936 347 939 c 1,14,15
 322 844 322 844 322 775 c 0,0,1
131 210 m 1,16,-1
 303 210 l 1,17,18
 303 155 303 155 306.5 119 c 128,-1,19
 310 83 310 83 323.5 58 c 128,-1,20
 337 33 337 33 351 20 c 128,-1,21
 365 7 365 7 398.5 0 c 128,-1,22
 432 -7 432 -7 461 -8.5 c 128,-1,23
 490 -10 490 -10 548 -10 c 0,24,25
 593 -10 593 -10 621.5 -7.5 c 128,-1,26
 650 -5 650 -5 673.5 4 c 128,-1,27
 697 13 697 13 709.5 26 c 128,-1,28
 722 39 722 39 730.5 64 c 128,-1,29
 739 89 739 89 741.5 120 c 128,-1,30
 744 151 744 151 744 198 c 0,31,32
 744 300 744 300 713 346.5 c 128,-1,33
 682 393 682 393 602 403 c 1,34,35
 503 414 503 414 443 424 c 128,-1,36
 383 434 383 434 326 452 c 128,-1,37
 269 470 269 470 239 493 c 128,-1,38
 209 516 209 516 185.5 553.5 c 128,-1,39
 162 591 162 591 154 640.5 c 128,-1,40
 146 690 146 690 146 762 c 0,41,42
 146 918 146 918 242 993 c 1,43,44
 148 1078 148 1078 148 1282 c 0,45,46
 148 1382 148 1382 168 1446 c 128,-1,47
 188 1510 188 1510 236 1547.5 c 128,-1,48
 284 1585 284 1585 354 1599 c 128,-1,49
 424 1613 424 1613 535 1613 c 0,50,51
 647 1613 647 1613 718 1597.5 c 128,-1,52
 789 1582 789 1582 837 1542 c 128,-1,53
 885 1502 885 1502 905 1435 c 128,-1,54
 925 1368 925 1368 925 1263 c 1,55,-1
 754 1263 l 1,56,57
 754 1338 754 1338 746.5 1378 c 128,-1,58
 739 1418 739 1418 713 1443 c 128,-1,59
 687 1468 687 1468 647.5 1475 c 128,-1,60
 608 1482 608 1482 533 1482 c 0,61,62
 492 1482 492 1482 470.5 1481 c 128,-1,63
 449 1480 449 1480 422 1477 c 128,-1,64
 395 1474 395 1474 382 1466.5 c 128,-1,65
 369 1459 369 1459 354.5 1446 c 128,-1,66
 340 1433 340 1433 334 1412.5 c 128,-1,67
 328 1392 328 1392 324 1364 c 128,-1,68
 320 1336 320 1336 320 1297 c 2,69,-1
 320 1277 l 2,70,71
 320 1262 320 1262 319.5 1237 c 128,-1,72
 319 1212 319 1212 319 1203 c 0,73,74
 319 1124 319 1124 362.5 1101.5 c 128,-1,75
 406 1079 406 1079 615 1043 c 0,76,77
 684 1031 684 1031 728 1018.5 c 128,-1,78
 772 1006 772 1006 811 984 c 128,-1,79
 850 962 850 962 871.5 930 c 128,-1,80
 893 898 893 898 905.5 849.5 c 128,-1,81
 918 801 918 801 920 733 c 1,82,83
 920 563 920 563 818 489 c 1,84,85
 917 404 917 404 917 195 c 0,86,87
 917 112 917 112 902.5 54.5 c 128,-1,88
 888 -3 888 -3 859.5 -41.5 c 128,-1,89
 831 -80 831 -80 782 -101.5 c 128,-1,90
 733 -123 733 -123 672.5 -131.5 c 128,-1,91
 612 -140 612 -140 524 -140 c 0,92,93
 413 -140 413 -140 342.5 -125.5 c 128,-1,94
 272 -111 272 -111 222.5 -71.5 c 128,-1,95
 173 -32 173 -32 152 35.5 c 128,-1,96
 131 103 131 103 131 210 c 1,16,-1
EndSplineSet
EndChar

StartChar: dieresis
Encoding: 168 168 106
Width: 982
GlyphClass: 2
Flags: W
LayerCount: 2
Fore
SplineSet
609 244 m 128,-1,1
 609 306 609 306 645 338.5 c 128,-1,2
 681 371 681 371 740 371 c 128,-1,3
 799 371 799 371 834 339 c 128,-1,4
 869 307 869 307 869 244 c 128,-1,5
 869 181 869 181 834 149 c 128,-1,6
 799 117 799 117 740 117 c 128,-1,7
 681 117 681 117 645 149.5 c 128,-1,0
 609 182 609 182 609 244 c 128,-1,1
117 244 m 128,-1,9
 117 306 117 306 153 338.5 c 128,-1,10
 189 371 189 371 248 371 c 128,-1,11
 307 371 307 371 342 339 c 128,-1,12
 377 307 377 307 377 244 c 128,-1,13
 377 181 377 181 342 149 c 128,-1,14
 307 117 307 117 248 117 c 128,-1,15
 189 117 189 117 153 149.5 c 128,-1,8
 117 182 117 182 117 244 c 128,-1,9
EndSplineSet
EndChar

StartChar: copyright
Encoding: 169 169 107
Width: 1734
GlyphClass: 2
Flags: W
LayerCount: 2
Fore
SplineSet
94 762 m 0,0,1
 94 911 94 911 137.5 1037.5 c 128,-1,2
 181 1164 181 1164 255.5 1254 c 128,-1,3
 330 1344 330 1344 429.5 1407.5 c 128,-1,4
 529 1471 529 1471 641.5 1501.5 c 128,-1,5
 754 1532 754 1532 872 1532 c 0,6,7
 992 1532 992 1532 1104.5 1501 c 128,-1,8
 1217 1470 1217 1470 1316 1406 c 128,-1,9
 1415 1342 1415 1342 1489 1251.5 c 128,-1,10
 1563 1161 1563 1161 1605.5 1035 c 128,-1,11
 1648 909 1648 909 1648 761 c 0,12,13
 1648 617 1648 617 1605.5 493 c 128,-1,14
 1563 369 1563 369 1490 279.5 c 128,-1,15
 1417 190 1417 190 1319.5 126.5 c 128,-1,16
 1222 63 1222 63 1110.5 31.5 c 128,-1,17
 999 0 999 0 881 0 c 0,18,19
 757 0 757 0 642 31 c 128,-1,20
 527 62 527 62 427 125 c 128,-1,21
 327 188 327 188 253 277.5 c 128,-1,22
 179 367 179 367 136.5 491.5 c 128,-1,23
 94 616 94 616 94 762 c 0,0,1
207 760 m 0,24,25
 207 602 207 602 262.5 473 c 128,-1,26
 318 344 318 344 410.5 262 c 128,-1,27
 503 180 503 180 619 136 c 128,-1,28
 735 92 735 92 861 92 c 0,29,30
 995 92 995 92 1115.5 136 c 128,-1,31
 1236 180 1236 180 1330 261.5 c 128,-1,32
 1424 343 1424 343 1479.5 472 c 128,-1,33
 1535 601 1535 601 1535 760 c 0,34,35
 1535 923 1535 923 1478 1055 c 128,-1,36
 1421 1187 1421 1187 1326.5 1269 c 128,-1,37
 1232 1351 1232 1351 1114.5 1394.5 c 128,-1,38
 997 1438 997 1438 870 1438 c 0,39,40
 769 1438 769 1438 673.5 1411.5 c 128,-1,41
 578 1385 578 1385 493 1329 c 128,-1,42
 408 1273 408 1273 344.5 1194.5 c 128,-1,43
 281 1116 281 1116 244 1004 c 128,-1,44
 207 892 207 892 207 760 c 0,24,25
1129 644 m 1,45,-1
 1255 644 l 1,46,47
 1255 569 1255 569 1253.5 522 c 128,-1,48
 1252 475 1252 475 1244.5 427 c 128,-1,49
 1237 379 1237 379 1226 352.5 c 128,-1,50
 1215 326 1215 326 1193 300 c 128,-1,51
 1171 274 1171 274 1143 262.5 c 128,-1,52
 1115 251 1115 251 1069.5 241 c 128,-1,53
 1024 231 1024 231 971 228.5 c 128,-1,54
 918 226 918 226 842 226 c 0,55,56
 787 226 787 226 745 229 c 128,-1,57
 703 232 703 232 666.5 242 c 128,-1,58
 630 252 630 252 604 263 c 128,-1,59
 578 274 578 274 556.5 298 c 128,-1,60
 535 322 535 322 521.5 345 c 128,-1,61
 508 368 508 368 497.5 410.5 c 128,-1,62
 487 453 487 453 481.5 491 c 128,-1,63
 476 529 476 529 473 594 c 128,-1,64
 470 659 470 659 469 717 c 128,-1,65
 468 775 468 775 468 865 c 0,66,67
 468 959 468 959 473 1021 c 128,-1,68
 478 1083 478 1083 492.5 1139 c 128,-1,69
 507 1195 507 1195 533 1227.5 c 128,-1,70
 559 1260 559 1260 602.5 1284 c 128,-1,71
 646 1308 646 1308 706 1317.5 c 128,-1,72
 766 1327 766 1327 852 1327 c 0,73,74
 945 1327 945 1327 1001 1322.5 c 128,-1,75
 1057 1318 1057 1318 1107 1301.5 c 128,-1,76
 1157 1285 1157 1285 1182 1259.5 c 128,-1,77
 1207 1234 1207 1234 1225.5 1184 c 128,-1,78
 1244 1134 1244 1134 1249.5 1070.5 c 128,-1,79
 1255 1007 1255 1007 1255 909 c 1,80,-1
 1129 909 l 1,81,82
 1127 939 1127 939 1127 992 c 2,83,-1
 1127 1048 l 2,84,85
 1127 1084 1127 1084 1125 1104.5 c 128,-1,86
 1123 1125 1123 1125 1114.5 1146.5 c 128,-1,87
 1106 1168 1106 1168 1090.5 1178 c 128,-1,88
 1075 1188 1075 1188 1047 1197 c 128,-1,89
 1019 1206 1019 1206 979 1209 c 128,-1,90
 939 1212 939 1212 879 1212 c 0,91,92
 813 1212 813 1212 770.5 1210 c 128,-1,93
 728 1208 728 1208 697 1200.5 c 128,-1,94
 666 1193 666 1193 650.5 1184.5 c 128,-1,95
 635 1176 635 1176 626 1156.5 c 128,-1,96
 617 1137 617 1137 615 1118 c 128,-1,97
 613 1099 613 1099 613 1064 c 2,98,-1
 613 785 l 2,99,100
 613 719 613 719 609.5 630 c 128,-1,101
 606 541 606 541 606 515 c 0,102,103
 606 457 606 457 614.5 426 c 128,-1,104
 623 395 623 395 654 374 c 128,-1,105
 685 353 685 353 735.5 347 c 128,-1,106
 786 341 786 341 879 341 c 0,107,108
 923 341 923 341 955 343 c 128,-1,109
 987 345 987 345 1013 348 c 128,-1,110
 1039 351 1039 351 1056.5 359.5 c 128,-1,111
 1074 368 1074 368 1086.5 375.5 c 128,-1,112
 1099 383 1099 383 1106 399.5 c 128,-1,113
 1113 416 1113 416 1117.5 429.5 c 128,-1,114
 1122 443 1122 443 1123.5 469.5 c 128,-1,115
 1125 496 1125 496 1125.5 516.5 c 128,-1,116
 1126 537 1126 537 1127 575 c 128,-1,117
 1128 613 1128 613 1129 644 c 1,45,-1
EndSplineSet
EndChar

StartChar: ordfeminine
Encoding: 170 170 108
Width: 998
GlyphClass: 2
Flags: W
LayerCount: 2
Fore
SplineSet
854 509 m 1,0,-1
 726 509 l 1,1,-1
 701 637 l 1,2,3
 676 552 676 552 613.5 524.5 c 128,-1,4
 551 497 551 497 428 497 c 0,5,6
 270 497 270 497 214 563 c 128,-1,7
 158 629 158 629 158 797 c 0,8,9
 158 855 158 855 190.5 895 c 128,-1,10
 223 935 223 935 287 958 c 128,-1,11
 351 981 351 981 432 990.5 c 128,-1,12
 513 1000 513 1000 622 1000 c 0,13,14
 634 1000 634 1000 658 999.5 c 128,-1,15
 682 999 682 999 693 999 c 1,16,-1
 693 1180 l 2,17,18
 693 1184 693 1184 693 1191 c 0,19,20
 693 1221 693 1221 692.5 1233.5 c 128,-1,21
 692 1246 692 1246 686.5 1263.5 c 128,-1,22
 681 1281 681 1281 671 1287 c 128,-1,23
 661 1293 661 1293 641 1300.5 c 128,-1,24
 621 1308 621 1308 591.5 1309.5 c 128,-1,25
 562 1311 562 1311 517 1311 c 0,26,27
 461 1311 461 1311 425.5 1306.5 c 128,-1,28
 390 1302 390 1302 370 1291.5 c 128,-1,29
 350 1281 350 1281 342 1265 c 128,-1,30
 334 1249 334 1249 333 1226.5 c 128,-1,31
 332 1204 332 1204 334 1175 c 1,32,-1
 211 1179 l 1,33,34
 210 1189 210 1189 210 1207 c 0,35,36
 210 1264 210 1264 225 1304 c 128,-1,37
 240 1344 240 1344 264.5 1367 c 128,-1,38
 289 1390 289 1390 332 1403 c 128,-1,39
 375 1416 375 1416 418 1419.5 c 128,-1,40
 461 1423 461 1423 527 1423 c 0,41,42
 623 1423 623 1423 682.5 1409 c 128,-1,43
 742 1395 742 1395 782 1358 c 128,-1,44
 822 1321 822 1321 838 1260.5 c 128,-1,45
 854 1200 854 1200 854 1104 c 2,46,-1
 854 509 l 1,0,-1
693 804 m 1,47,-1
 693 901 l 1,48,49
 529 899 529 899 446.5 888 c 128,-1,50
 364 877 364 877 335 855.5 c 128,-1,51
 306 834 306 834 306 792 c 0,52,53
 306 755 306 755 306 739 c 128,-1,54
 306 723 306 723 308 698.5 c 128,-1,55
 310 674 310 674 313.5 665 c 128,-1,56
 317 656 317 656 324.5 642.5 c 128,-1,57
 332 629 332 629 341.5 625 c 128,-1,58
 351 621 351 621 367 615.5 c 128,-1,59
 383 610 383 610 403 609 c 128,-1,60
 423 608 423 608 451 608 c 0,61,62
 514 608 514 608 558.5 618.5 c 128,-1,63
 603 629 603 629 628.5 644.5 c 128,-1,64
 654 660 654 660 668.5 687.5 c 128,-1,65
 683 715 683 715 687.5 740.5 c 128,-1,66
 692 766 692 766 693 804 c 1,47,-1
EndSplineSet
EndChar

StartChar: guillemotleft
Encoding: 171 171 109
Width: 1234
GlyphClass: 2
Flags: W
LayerCount: 2
Fore
SplineSet
480 775 m 1,0,-1
 954 1199 l 1,1,-1
 1049 1086 l 1,2,-1
 628 726 l 1,3,-1
 1049 366 l 1,4,-1
 954 253 l 1,5,-1
 480 677 l 1,6,-1
 480 775 l 1,0,-1
80 775 m 1,7,-1
 555 1199 l 1,8,-1
 650 1086 l 1,9,-1
 229 726 l 1,10,-1
 650 366 l 1,11,-1
 555 253 l 1,12,-1
 80 677 l 1,13,-1
 80 775 l 1,7,-1
EndSplineSet
EndChar

StartChar: logicalnot
Encoding: 172 172 110
Width: 1128
GlyphClass: 2
Flags: W
LayerCount: 2
Fore
SplineSet
102 797 m 1,0,-1
 1026 797 l 1,1,-1
 1026 262 l 1,2,-1
 877 262 l 1,3,-1
 877 647 l 1,4,-1
 102 647 l 1,5,-1
 102 797 l 1,0,-1
EndSplineSet
EndChar

StartChar: uni00AD
Encoding: 173 173 111
Width: 1050
GlyphClass: 2
Flags: W
LayerCount: 2
Fore
SplineSet
920 728 m 1,0,-1
 920 549 l 1,1,-1
 134 549 l 1,2,-1
 134 728 l 1,3,-1
 920 728 l 1,0,-1
EndSplineSet
EndChar

StartChar: registered
Encoding: 174 174 112
Width: 1734
GlyphClass: 2
Flags: W
LayerCount: 2
Fore
SplineSet
870 0 m 0,0,1
 717 0 717 0 578 51 c 128,-1,2
 439 102 439 102 330.5 196 c 128,-1,3
 222 290 222 290 158 437 c 128,-1,4
 94 584 94 584 94 762 c 0,5,6
 94 911 94 911 137.5 1037.5 c 128,-1,7
 181 1164 181 1164 255.5 1254 c 128,-1,8
 330 1344 330 1344 429.5 1407.5 c 128,-1,9
 529 1471 529 1471 641.5 1501.5 c 128,-1,10
 754 1532 754 1532 872 1532 c 0,11,12
 992 1532 992 1532 1104.5 1501 c 128,-1,13
 1217 1470 1217 1470 1316 1406 c 128,-1,14
 1415 1342 1415 1342 1489 1251.5 c 128,-1,15
 1563 1161 1563 1161 1605.5 1035 c 128,-1,16
 1648 909 1648 909 1648 761 c 0,17,18
 1648 615 1648 615 1605 490 c 128,-1,19
 1562 365 1562 365 1487.5 276 c 128,-1,20
 1413 187 1413 187 1314 124 c 128,-1,21
 1215 61 1215 61 1102 30.5 c 128,-1,22
 989 0 989 0 870 0 c 0,0,1
872 92 m 0,23,24
 1004 92 1004 92 1123 137 c 128,-1,25
 1242 182 1242 182 1334 264.5 c 128,-1,26
 1426 347 1426 347 1480.5 475.5 c 128,-1,27
 1535 604 1535 604 1535 760 c 0,28,29
 1535 923 1535 923 1478 1055 c 128,-1,30
 1421 1187 1421 1187 1326.5 1269 c 128,-1,31
 1232 1351 1232 1351 1114.5 1394.5 c 128,-1,32
 997 1438 997 1438 870 1438 c 0,33,34
 769 1438 769 1438 673.5 1411.5 c 128,-1,35
 578 1385 578 1385 493 1329 c 128,-1,36
 408 1273 408 1273 344.5 1194.5 c 128,-1,37
 281 1116 281 1116 244 1004 c 128,-1,38
 207 892 207 892 207 760 c 0,39,40
 207 600 207 600 263.5 470 c 128,-1,41
 320 340 320 340 414.5 259 c 128,-1,42
 509 178 509 178 626.5 135 c 128,-1,43
 744 92 744 92 872 92 c 0,23,24
555 267 m 1,44,-1
 555 1288 l 1,45,-1
 879 1288 l 2,46,47
 988 1288 988 1288 1051 1278.5 c 128,-1,48
 1114 1269 1114 1269 1159 1239.5 c 128,-1,49
 1204 1210 1204 1210 1221 1159 c 128,-1,50
 1238 1108 1238 1108 1241 1021 c 1,51,52
 1241 800 1241 800 1071 788 c 1,53,54
 1146 784 1146 784 1189.5 737 c 128,-1,55
 1233 690 1233 690 1233 609 c 2,56,-1
 1233 268 l 1,57,-1
 1099 268 l 1,58,59
 1099 303 1099 303 1101 382.5 c 128,-1,60
 1103 462 1103 462 1103 501 c 0,61,62
 1103 702 1103 702 1058 721 c 0,63,64
 1028 734 1028 734 946 734 c 2,65,-1
 682 734 l 1,66,67
 682 656 682 656 682.5 500.5 c 128,-1,68
 683 345 683 345 683 267 c 1,69,-1
 555 267 l 1,44,-1
682 1183 m 1,70,-1
 682 832 l 1,71,-1
 879 832 l 2,72,73
 955 832 955 832 994.5 837 c 128,-1,74
 1034 842 1034 842 1060 862.5 c 128,-1,75
 1086 883 1086 883 1093.5 914.5 c 128,-1,76
 1101 946 1101 946 1104 1007 c 1,77,78
 1104 1051 1104 1051 1099.5 1081.5 c 128,-1,79
 1095 1112 1095 1112 1081 1131.5 c 128,-1,80
 1067 1151 1067 1151 1055.5 1161.5 c 128,-1,81
 1044 1172 1044 1172 1013.5 1177 c 128,-1,82
 983 1182 983 1182 963 1182.5 c 128,-1,83
 943 1183 943 1183 896 1183 c 0,84,85
 884 1183 884 1183 877 1183 c 2,86,-1
 682 1183 l 1,70,-1
EndSplineSet
EndChar

StartChar: overscore
Encoding: 175 175 113
Width: 846
GlyphClass: 2
Flags: W
LayerCount: 2
Fore
SplineSet
129 838 m 1,0,-1
 726 838 l 1,1,-1
 726 711 l 1,2,-1
 129 711 l 1,3,-1
 129 838 l 1,0,-1
EndSplineSet
EndChar

StartChar: degree
Encoding: 176 176 114
Width: 829
GlyphClass: 2
Flags: W
LayerCount: 2
Fore
SplineSet
289 1321 m 128,-1,1
 289 1253 289 1253 324.5 1204 c 128,-1,2
 360 1155 360 1155 419 1155 c 128,-1,3
 478 1155 478 1155 514.5 1204 c 128,-1,4
 551 1253 551 1253 551 1321 c 128,-1,5
 551 1389 551 1389 514.5 1437.5 c 128,-1,6
 478 1486 478 1486 418 1486 c 0,7,8
 360 1486 360 1486 324.5 1437.5 c 128,-1,0
 289 1389 289 1389 289 1321 c 128,-1,1
111 1322 m 128,-1,10
 111 1442 111 1442 202.5 1519.5 c 128,-1,11
 294 1597 294 1597 419 1597 c 128,-1,12
 544 1597 544 1597 635 1518.5 c 128,-1,13
 726 1440 726 1440 726 1321 c 128,-1,14
 726 1202 726 1202 636 1124 c 128,-1,15
 546 1046 546 1046 419 1046 c 128,-1,16
 292 1046 292 1046 201.5 1124 c 128,-1,9
 111 1202 111 1202 111 1322 c 128,-1,10
EndSplineSet
EndChar

StartChar: plusminus
Encoding: 177 177 115
Width: 1128
GlyphClass: 2
Flags: W
LayerCount: 2
Fore
SplineSet
489 262 m 1,0,-1
 489 647 l 1,1,-1
 102 647 l 1,2,-1
 102 797 l 1,3,-1
 489 797 l 1,4,-1
 489 1186 l 1,5,-1
 639 1186 l 1,6,-1
 639 797 l 1,7,-1
 1026 797 l 1,8,-1
 1026 647 l 1,9,-1
 639 647 l 1,10,-1
 639 262 l 1,11,-1
 489 262 l 1,0,-1
1026 0 m 1,12,-1
 102 0 l 1,13,-1
 102 150 l 1,14,-1
 1026 150 l 1,15,-1
 1026 0 l 1,12,-1
EndSplineSet
EndChar

StartChar: uni00B2
Encoding: 178 178 116
Width: 896
GlyphClass: 2
Flags: W
LayerCount: 2
Fore
SplineSet
804 248 m 1,0,-1
 110 248 l 1,1,2
 110 432 110 432 146.5 519.5 c 128,-1,3
 183 607 183 607 287 680 c 0,4,5
 340 716 340 716 406.5 756.5 c 128,-1,6
 473 797 473 797 506 817 c 128,-1,7
 539 837 539 837 576.5 868.5 c 128,-1,8
 614 900 614 900 630.5 931 c 128,-1,9
 647 962 647 962 658 1010 c 128,-1,10
 669 1058 669 1058 669 1125 c 0,11,12
 669 1159 669 1159 668.5 1178.5 c 128,-1,13
 668 1198 668 1198 665.5 1223 c 128,-1,14
 663 1248 663 1248 657.5 1261 c 128,-1,15
 652 1274 652 1274 643 1290 c 128,-1,16
 634 1306 634 1306 619.5 1314 c 128,-1,17
 605 1322 605 1322 585 1329.5 c 128,-1,18
 565 1337 565 1337 537.5 1339.5 c 128,-1,19
 510 1342 510 1342 475 1342 c 0,20,21
 408 1342 408 1342 370 1336 c 128,-1,22
 332 1330 332 1330 302 1309 c 128,-1,23
 272 1288 272 1288 259 1250 c 128,-1,24
 246 1212 246 1212 241 1147 c 1,25,-1
 122 1175 l 1,26,27
 121 1182 121 1182 121 1196 c 0,28,29
 121 1334 121 1334 207 1394 c 128,-1,30
 293 1454 293 1454 463 1454 c 0,31,32
 563 1454 563 1454 625.5 1441 c 128,-1,33
 688 1428 688 1428 734 1392 c 128,-1,34
 780 1356 780 1356 799.5 1291.5 c 128,-1,35
 819 1227 819 1227 819 1125 c 0,36,37
 819 1014 819 1014 792 938.5 c 128,-1,38
 765 863 765 863 715 814.5 c 128,-1,39
 665 766 665 766 577 719 c 1,40,41
 555 706 555 706 516 684 c 128,-1,42
 477 662 477 662 459 651.5 c 128,-1,43
 441 641 441 641 410 621.5 c 128,-1,44
 379 602 379 602 364.5 589 c 128,-1,45
 350 576 350 576 328.5 556 c 128,-1,46
 307 536 307 536 297 517 c 128,-1,47
 287 498 287 498 276 473.5 c 128,-1,48
 265 449 265 449 260.5 420.5 c 128,-1,49
 256 392 256 392 255 359 c 1,50,-1
 804 359 l 1,51,-1
 804 248 l 1,0,-1
EndSplineSet
EndChar

StartChar: uni00B3
Encoding: 179 179 117
Width: 923
GlyphClass: 2
Flags: W
LayerCount: 2
Fore
SplineSet
813 589 m 0,0,1
 813 486 813 486 788 418 c 128,-1,2
 763 350 763 350 710.5 313 c 128,-1,3
 658 276 658 276 590 261.5 c 128,-1,4
 522 247 522 247 421 247 c 0,5,6
 337 247 337 247 280 256.5 c 128,-1,7
 223 266 223 266 178 289.5 c 128,-1,8
 133 313 133 313 111.5 357 c 128,-1,9
 90 401 90 401 90 468 c 0,10,11
 90 498 90 498 91 517 c 1,12,-1
 216 535 l 1,13,14
 220 475 220 475 223 452 c 0,15,16
 230 397 230 397 279 376.5 c 128,-1,17
 328 356 328 356 440 356 c 0,18,19
 501 356 501 356 537.5 358 c 128,-1,20
 574 360 574 360 602 373 c 128,-1,21
 630 386 630 386 642.5 396.5 c 128,-1,22
 655 407 655 407 662 441.5 c 128,-1,23
 669 476 669 476 670 502.5 c 128,-1,24
 671 529 671 529 671 592 c 0,25,26
 671 639 671 639 665.5 672 c 128,-1,27
 660 705 660 705 653 728.5 c 128,-1,28
 646 752 646 752 624 766.5 c 128,-1,29
 602 781 602 781 586.5 790 c 128,-1,30
 571 799 571 799 530 802.5 c 128,-1,31
 489 806 489 806 461.5 806.5 c 128,-1,32
 434 807 434 807 372 807 c 0,33,34
 370 807 370 807 369 807 c 2,35,-1
 363 918 l 1,36,37
 459 918 459 918 489 919 c 0,38,39
 554 921 554 921 590.5 933 c 128,-1,40
 627 945 627 945 643 982 c 128,-1,41
 659 1019 659 1019 662 1052 c 128,-1,42
 665 1085 665 1085 665 1164 c 0,43,44
 665 1168 665 1168 665 1171.5 c 128,-1,45
 665 1175 665 1175 665 1178 c 0,46,47
 665 1241 665 1241 650 1271.5 c 128,-1,48
 635 1302 635 1302 588.5 1317 c 128,-1,49
 542 1332 542 1332 446 1332 c 0,50,51
 327 1332 327 1332 281.5 1313 c 128,-1,52
 236 1294 236 1294 232 1242 c 2,53,-1
 225 1156 l 1,54,-1
 104 1180 l 1,55,-1
 104 1202 l 2,56,57
 104 1272 104 1272 116.5 1313 c 128,-1,58
 129 1354 129 1354 167 1384 c 128,-1,59
 205 1414 205 1414 273.5 1426 c 128,-1,60
 342 1438 342 1438 456 1440 c 1,61,62
 639 1440 639 1440 722.5 1370.5 c 128,-1,63
 806 1301 806 1301 806 1148 c 0,64,65
 806 895 806 895 645 864 c 0,66,67
 641 863 641 863 640 863 c 1,68,69
 811 828 811 828 813 589 c 0,0,1
EndSplineSet
EndChar

StartChar: acute
Encoding: 180 180 118
Width: 670
GlyphClass: 2
Flags: W
LayerCount: 2
Fore
SplineSet
405 1605 m 1,0,1
 445 1640 445 1640 489 1640 c 0,2,3
 536 1640 536 1640 564 1610.5 c 128,-1,4
 592 1581 592 1581 592 1540 c 0,5,6
 592 1509 592 1509 574 1480 c 128,-1,7
 556 1451 556 1451 521 1436 c 0,8,9
 510 1431 510 1431 411 1394 c 128,-1,10
 312 1357 312 1357 219 1322 c 2,11,-1
 126 1287 l 1,12,-1
 109 1308 l 1,13,14
 366 1574 366 1574 405 1605 c 1,0,1
EndSplineSet
EndChar

StartChar: paragraph
Encoding: 182 182 120
Width: 1060
GlyphClass: 2
Flags: W
LayerCount: 2
Fore
SplineSet
417 0 m 1,0,-1
 417 845 l 1,1,2
 244 845 244 845 152 931 c 128,-1,3
 60 1017 60 1017 60 1190 c 0,4,5
 60 1373 60 1373 170.5 1447 c 128,-1,6
 281 1521 281 1521 508 1521 c 2,7,-1
 895 1521 l 1,8,-1
 895 0 l 1,9,-1
 742 0 l 1,10,-1
 742 844 l 1,11,-1
 571 844 l 1,12,-1
 571 0 l 1,13,-1
 417 0 l 1,0,-1
EndSplineSet
EndChar

StartChar: middot
Encoding: 183 183 121
Width: 526
GlyphClass: 2
Flags: W
LayerCount: 2
Fore
SplineSet
265 528 m 0,0,1
 205 528 205 528 165 572.5 c 128,-1,2
 125 617 125 617 125 682 c 0,3,4
 125 750 125 750 162.5 793 c 128,-1,5
 200 836 200 836 265 836 c 0,6,7
 326 836 326 836 365.5 792 c 128,-1,8
 405 748 405 748 405 682 c 0,9,10
 405 614 405 614 367.5 571 c 128,-1,11
 330 528 330 528 265 528 c 0,0,1
EndSplineSet
EndChar

StartChar: cedilla
Encoding: 184 184 122
Width: 723
GlyphClass: 2
Flags: W
LayerCount: 2
Fore
SplineSet
329 0 m 1,0,-1
 438 0 l 1,1,-1
 389 -168 l 1,2,3
 445 -176 445 -176 480 -185.5 c 128,-1,4
 515 -195 515 -195 547 -216 c 128,-1,5
 579 -237 579 -237 593.5 -273 c 128,-1,6
 608 -309 608 -309 608 -364 c 0,7,8
 608 -454 608 -454 537 -503 c 128,-1,9
 466 -552 466 -552 363 -552 c 0,10,11
 220 -552 220 -552 124 -470 c 1,12,-1
 171 -380 l 1,13,14
 282 -430 282 -430 333 -430 c 0,15,16
 392 -430 392 -430 392 -376 c 0,17,18
 392 -289 392 -289 254 -289 c 1,19,20
 262 -254 262 -254 291 -144 c 2,21,-1
 329 0 l 1,0,-1
EndSplineSet
EndChar

StartChar: uni00B9
Encoding: 185 185 123
Width: 510
GlyphClass: 2
Flags: W
LayerCount: 2
Fore
SplineSet
364 240 m 1,0,-1
 214 240 l 1,1,-1
 214 1235 l 1,2,-1
 66 1235 l 1,3,-1
 66 1309 l 1,4,5
 193 1314 193 1314 240 1425 c 1,6,-1
 364 1425 l 1,7,-1
 364 240 l 1,0,-1
EndSplineSet
EndChar

StartChar: ordmasculine
Encoding: 186 186 124
Width: 953
GlyphClass: 2
Flags: W
LayerCount: 2
Fore
SplineSet
481 1319 m 2,0,-1
 483 1319 l 2,1,2
 563 1319 563 1319 615.5 1313 c 128,-1,3
 668 1307 668 1307 708 1287 c 128,-1,4
 748 1267 748 1267 769.5 1240.5 c 128,-1,5
 791 1214 791 1214 804.5 1161.5 c 128,-1,6
 818 1109 818 1109 822 1050 c 128,-1,7
 826 991 826 991 826 895 c 0,8,9
 826 825 826 825 824.5 779.5 c 128,-1,10
 823 734 823 734 817.5 687 c 128,-1,11
 812 640 812 640 802 612.5 c 128,-1,12
 792 585 792 585 774 557.5 c 128,-1,13
 756 530 756 530 731.5 516 c 128,-1,14
 707 502 707 502 670.5 490.5 c 128,-1,15
 634 479 634 479 588.5 475 c 128,-1,16
 543 471 543 471 481 471 c 0,17,18
 420 471 420 471 374.5 475 c 128,-1,19
 329 479 329 479 292.5 490.5 c 128,-1,20
 256 502 256 502 231.5 516 c 128,-1,21
 207 530 207 530 189.5 557.5 c 128,-1,22
 172 585 172 585 162 612.5 c 128,-1,23
 152 640 152 640 146.5 687 c 128,-1,24
 141 734 141 734 139.5 779.5 c 128,-1,25
 138 825 138 825 138 895 c 0,26,27
 138 991 138 991 142 1050 c 128,-1,28
 146 1109 146 1109 159.5 1161.5 c 128,-1,29
 173 1214 173 1214 194.5 1240.5 c 128,-1,30
 216 1267 216 1267 256 1287 c 128,-1,31
 296 1307 296 1307 348.5 1313 c 128,-1,32
 401 1319 401 1319 481 1319 c 2,0,-1
482 575 m 1,33,34
 587 577 587 577 628 590.5 c 128,-1,35
 669 604 669 604 670 643 c 1,36,37
 678 771 678 771 678 892 c 0,38,39
 678 936 678 936 674 1020 c 128,-1,40
 670 1104 670 1104 670 1143 c 0,41,42
 670 1173 670 1173 642 1190 c 128,-1,43
 614 1207 614 1207 576.5 1211.5 c 128,-1,44
 539 1216 539 1216 482 1216 c 128,-1,45
 425 1216 425 1216 387.5 1211.5 c 128,-1,46
 350 1207 350 1207 322 1190 c 128,-1,47
 294 1173 294 1173 294 1143 c 0,48,49
 294 1104 294 1104 290 1020 c 128,-1,50
 286 936 286 936 286 892 c 0,51,52
 286 771 286 771 294 643 c 1,53,54
 295 604 295 604 336 590.5 c 128,-1,55
 377 577 377 577 482 575 c 1,33,34
EndSplineSet
EndChar

StartChar: guillemotright
Encoding: 187 187 125
Width: 1234
GlyphClass: 2
Flags: W
LayerCount: 2
Fore
SplineSet
700 775 m 1,0,-1
 700 677 l 1,1,-1
 226 253 l 1,2,-1
 130 366 l 1,3,-1
 552 726 l 1,4,-1
 130 1086 l 1,5,-1
 226 1199 l 1,6,-1
 700 775 l 1,0,-1
1099 775 m 1,7,-1
 1099 677 l 1,8,-1
 624 253 l 1,9,-1
 530 366 l 1,10,-1
 950 726 l 1,11,-1
 530 1086 l 1,12,-1
 624 1199 l 1,13,-1
 1099 775 l 1,7,-1
EndSplineSet
EndChar

StartChar: onequarter
Encoding: 188 188 126
Width: 829
GlyphClass: 3
Flags: W
LayerCount: 2
Fore
SplineSet
366 0 m 1,0,-1
 366 152 l 1,1,-1
 152 152 l 1,2,-1
 114 220 l 1,3,-1
 345 616 l 1,4,-1
 457 616 l 1,5,-1
 457 220 l 1,6,-1
 559 220 l 1,7,-1
 559 152 l 1,8,-1
 457 152 l 1,9,-1
 457 0 l 1,10,-1
 366 0 l 1,0,-1
337 898 m 1,11,-1
 337 1378 l 1,12,-1
 268 1378 l 1,13,-1
 268 1431 l 1,14,15
 307 1431 307 1431 328.5 1449.5 c 128,-1,16
 350 1468 350 1468 350 1499 c 1,17,-1
 428 1499 l 1,18,-1
 428 898 l 1,19,-1
 337 898 l 1,11,-1
75 805 m 1,20,-1
 695 805 l 1,21,-1
 695 734 l 1,22,-1
 75 734 l 1,23,-1
 75 805 l 1,20,-1
366 220 m 1,24,-1
 366 544 l 1,25,26
 311 438 311 438 194 220 c 1,27,-1
 366 220 l 1,24,-1
EndSplineSet
Ligature2: "'liga' Standard Ligatures lookup 0 subtable" one slash four
EndChar

StartChar: onehalf
Encoding: 189 189 127
Width: 828
GlyphClass: 3
Flags: W
LayerCount: 2
Fore
SplineSet
161 0 m 1,0,-1
 161 75 l 2,1,2
 161 123 161 123 178 159 c 128,-1,3
 195 195 195 195 221.5 216.5 c 128,-1,4
 248 238 248 238 280.5 256 c 128,-1,5
 313 274 313 274 345.5 293.5 c 128,-1,6
 378 313 378 313 404.5 336.5 c 128,-1,7
 431 360 431 360 448 400 c 128,-1,8
 465 440 465 440 465 494 c 0,9,10
 465 551 465 551 447.5 562 c 128,-1,11
 430 573 430 573 343 573 c 0,12,13
 314 573 314 573 300.5 571.5 c 128,-1,14
 287 570 287 570 272.5 563.5 c 128,-1,15
 258 557 258 557 253 541 c 128,-1,16
 248 525 248 525 248 498 c 1,17,-1
 251 463 l 1,18,-1
 168 470 l 1,19,20
 162 507 162 507 162 522 c 0,21,22
 162 591 162 591 213 618.5 c 128,-1,23
 264 646 264 646 357 646 c 0,24,25
 469 646 469 646 513 615 c 128,-1,26
 557 584 557 584 557 484 c 0,27,28
 557 410 557 410 538 361.5 c 128,-1,29
 519 313 519 313 486.5 286.5 c 128,-1,30
 454 260 454 260 419.5 242.5 c 128,-1,31
 385 225 385 225 343.5 198.5 c 128,-1,32
 302 172 302 172 275 138 c 0,33,34
 252 108 252 108 252 72 c 1,35,-1
 547 72 l 1,36,-1
 547 0 l 1,37,-1
 161 0 l 1,0,-1
301 898 m 1,38,-1
 301 1378 l 1,39,-1
 232 1378 l 1,40,-1
 232 1431 l 1,41,42
 271 1431 271 1431 292.5 1449.5 c 128,-1,43
 314 1468 314 1468 314 1499 c 1,44,-1
 392 1499 l 1,45,-1
 392 898 l 1,46,-1
 301 898 l 1,38,-1
49 805 m 1,47,-1
 669 805 l 1,48,-1
 669 734 l 1,49,-1
 49 734 l 1,50,-1
 49 805 l 1,47,-1
EndSplineSet
Ligature2: "'liga' Standard Ligatures lookup 0 subtable" one slash two
EndChar

StartChar: threequarters
Encoding: 190 190 128
Width: 868
GlyphClass: 3
Flags: W
LayerCount: 2
Fore
SplineSet
369 0 m 1,0,-1
 369 152 l 1,1,-1
 155 152 l 1,2,-1
 117 220 l 1,3,-1
 348 616 l 1,4,-1
 460 616 l 1,5,-1
 460 220 l 1,6,-1
 562 220 l 1,7,-1
 562 152 l 1,8,-1
 460 152 l 1,9,-1
 460 0 l 1,10,-1
 369 0 l 1,0,-1
225 1063 m 1,11,-1
 292 1063 l 1,12,13
 292 1011 292 1011 297 1001 c 1,14,15
 317 980 317 980 380 979 c 1,16,17
 452 979 452 979 474.5 991.5 c 128,-1,18
 497 1004 497 1004 497 1047 c 0,19,20
 497 1074 497 1074 496.5 1093 c 128,-1,21
 496 1112 496 1112 491.5 1127.5 c 128,-1,22
 487 1143 487 1143 484.5 1152 c 128,-1,23
 482 1161 482 1161 471.5 1168 c 128,-1,24
 461 1175 461 1175 454.5 1178 c 128,-1,25
 448 1181 448 1181 429 1183 c 128,-1,26
 410 1185 410 1185 398 1185 c 128,-1,27
 386 1185 386 1185 357 1185 c 1,28,-1
 354 1238 l 1,29,30
 356 1238 356 1238 366.5 1237.5 c 128,-1,31
 377 1237 377 1237 381 1237 c 0,32,33
 454 1237 454 1237 475 1253 c 128,-1,34
 496 1269 496 1269 496 1306 c 0,35,36
 496 1338 496 1338 495 1352.5 c 128,-1,37
 494 1367 494 1367 489.5 1382.5 c 128,-1,38
 485 1398 485 1398 474 1403.5 c 128,-1,39
 463 1409 463 1409 446 1412.5 c 128,-1,40
 429 1416 429 1416 400 1416 c 0,41,42
 337 1416 337 1416 314.5 1408 c 128,-1,43
 292 1400 292 1400 292 1377 c 2,44,-1
 294 1331 l 1,45,-1
 235 1331 l 1,46,47
 227 1357 227 1357 227 1383 c 0,48,49
 227 1438 227 1438 265.5 1459.5 c 128,-1,50
 304 1481 304 1481 405 1481 c 0,51,52
 496 1481 496 1481 536 1445.5 c 128,-1,53
 576 1410 576 1410 576 1329 c 0,54,55
 576 1292 576 1292 565 1266 c 128,-1,56
 554 1240 554 1240 537 1229 c 128,-1,57
 520 1218 520 1218 507.5 1214.5 c 128,-1,58
 495 1211 495 1211 484 1210 c 1,59,60
 496 1208 496 1208 508 1203 c 128,-1,61
 520 1198 520 1198 537 1184 c 128,-1,62
 554 1170 554 1170 565 1140 c 128,-1,63
 576 1110 576 1110 576 1068 c 0,64,65
 576 982 576 982 532.5 948.5 c 128,-1,66
 489 915 489 915 399 915 c 0,67,68
 303 915 303 915 262.5 934.5 c 128,-1,69
 222 954 222 954 222 1014 c 0,70,71
 222 1026 222 1026 225 1063 c 1,11,-1
79 804 m 1,72,-1
 699 804 l 1,73,-1
 699 733 l 1,74,-1
 79 733 l 1,75,-1
 79 804 l 1,72,-1
369 220 m 1,76,-1
 369 544 l 1,77,78
 314 438 314 438 197 220 c 1,79,-1
 369 220 l 1,76,-1
EndSplineSet
Ligature2: "'liga' Standard Ligatures lookup 0 subtable" three slash four
EndChar

StartChar: questiondown
Encoding: 191 191 129
Width: 767
GlyphClass: 2
Flags: W
LayerCount: 2
Fore
SplineSet
608 1379 m 0,0,1
 608 1312 608 1312 569.5 1268.5 c 128,-1,2
 531 1225 531 1225 467 1225 c 0,3,4
 404 1225 404 1225 364 1268 c 128,-1,5
 324 1311 324 1311 324 1379 c 0,6,7
 324 1445 324 1445 363 1489 c 128,-1,8
 402 1533 402 1533 466 1533 c 0,9,10
 528 1533 528 1533 568 1487.5 c 128,-1,11
 608 1442 608 1442 608 1379 c 0,0,1
702 223 m 1,12,-1
 741 59 l 1,13,14
 573 -22 573 -22 438 -22 c 0,15,16
 257 -22 257 -22 161.5 69.5 c 128,-1,17
 66 161 66 161 66 338 c 0,18,19
 66 431 66 431 113.5 518 c 128,-1,20
 161 605 161 605 247 704 c 0,21,22
 259 718 259 718 286 751 c 128,-1,23
 313 784 313 784 319.5 793 c 128,-1,24
 326 802 326 802 344 826 c 128,-1,25
 362 850 362 850 366 859.5 c 128,-1,26
 370 869 370 869 380.5 890 c 128,-1,27
 391 911 391 911 394 928 c 128,-1,28
 397 945 397 945 401.5 968 c 128,-1,29
 406 991 406 991 409 1020 c 1,30,31
 426 1020 426 1020 460.5 1019.5 c 128,-1,32
 495 1019 495 1019 511 1019 c 1,33,34
 511 957 511 957 501.5 903.5 c 128,-1,35
 492 850 492 850 481.5 813.5 c 128,-1,36
 471 777 471 777 442 725 c 128,-1,37
 413 673 413 673 395 645.5 c 128,-1,38
 377 618 377 618 332 552 c 0,39,40
 293 496 293 496 277.5 453.5 c 128,-1,41
 262 411 262 411 262 350 c 0,42,43
 262 261 262 261 313 213.5 c 128,-1,44
 364 166 364 166 463 166 c 0,45,46
 531 166 531 166 702 223 c 1,12,-1
EndSplineSet
EndChar

StartChar: AE
Encoding: 198 198 136
Width: 1967
GlyphClass: 2
Flags: W
LayerCount: 2
Fore
SplineSet
1856 0 m 1,0,-1
 981 0 l 1,1,-1
 981 381 l 1,2,-1
 433 381 l 1,3,-1
 211 0 l 1,4,-1
 20 0 l 1,5,-1
 906 1490 l 1,6,-1
 1837 1490 l 1,7,-1
 1837 1323 l 1,8,-1
 1182 1323 l 1,9,-1
 1182 864 l 1,10,-1
 1726 864 l 1,11,-1
 1726 697 l 1,12,-1
 1182 697 l 1,13,-1
 1182 167 l 1,14,-1
 1856 167 l 1,15,-1
 1856 0 l 1,0,-1
982 1342 m 1,16,-1
 787 995 l 1,17,-1
 518 523 l 1,18,-1
 981 523 l 1,19,-1
 981 937 l 2,20,21
 981 1005 981 1005 981.5 1141.5 c 128,-1,22
 982 1278 982 1278 982 1342 c 1,16,-1
EndSplineSet
EndChar

StartChar: Eth
Encoding: 208 208 146
Width: 1441
GlyphClass: 2
Flags: W
LayerCount: 2
Fore
SplineSet
1278 876 m 0,0,1
 1278 739 1278 739 1276.5 650.5 c 128,-1,2
 1275 562 1275 562 1267 469.5 c 128,-1,3
 1259 377 1259 377 1250 323 c 128,-1,4
 1241 269 1241 269 1216.5 212.5 c 128,-1,5
 1192 156 1192 156 1168.5 128.5 c 128,-1,6
 1145 101 1145 101 1097 72 c 128,-1,7
 1049 43 1049 43 1003 33 c 128,-1,8
 957 23 957 23 878.5 13 c 128,-1,9
 800 3 800 3 724.5 1.5 c 128,-1,10
 649 0 649 0 533 0 c 2,11,-1
 171 0 l 1,12,-1
 171 689 l 1,13,-1
 78 689 l 1,14,-1
 78 826 l 1,15,-1
 171 826 l 1,16,-1
 171 1490 l 1,17,-1
 687 1490 l 2,18,19
 813 1490 813 1490 900 1479.5 c 128,-1,20
 987 1469 987 1469 1055.5 1440.5 c 128,-1,21
 1124 1412 1124 1412 1165 1369 c 128,-1,22
 1206 1326 1206 1326 1232.5 1254.5 c 128,-1,23
 1259 1183 1259 1183 1268.5 1094 c 128,-1,24
 1278 1005 1278 1005 1278 876 c 0,0,1
1077 873 m 2,25,26
 1077 965 1077 965 1076.5 1005.5 c 128,-1,27
 1076 1046 1076 1046 1069.5 1107 c 128,-1,28
 1063 1168 1063 1168 1051.5 1190.5 c 128,-1,29
 1040 1213 1040 1213 1015 1248 c 128,-1,30
 990 1283 990 1283 956.5 1292.5 c 128,-1,31
 923 1302 923 1302 868.5 1316.5 c 128,-1,32
 814 1331 814 1331 747 1333.5 c 128,-1,33
 680 1336 680 1336 584 1336 c 2,34,-1
 374 1336 l 1,35,-1
 374 826 l 1,36,-1
 642 826 l 1,37,-1
 642 689 l 1,38,-1
 374 689 l 1,39,-1
 374 153 l 1,40,-1
 614 153 l 2,41,42
 700 153 700 153 748 154.5 c 128,-1,43
 796 156 796 156 852 163 c 128,-1,44
 908 170 908 170 934.5 181.5 c 128,-1,45
 961 193 961 193 992 217.5 c 128,-1,46
 1023 242 1023 242 1035 273.5 c 128,-1,47
 1047 305 1047 305 1059 356.5 c 128,-1,48
 1071 408 1071 408 1074 470 c 128,-1,49
 1077 532 1077 532 1077 620 c 2,50,-1
 1077 873 l 2,25,26
EndSplineSet
EndChar

StartChar: multiply
Encoding: 215 215 153
Width: 860
GlyphClass: 2
Flags: W
LayerCount: 2
Fore
SplineSet
292 670 m 1,0,1
 291 671 291 671 270 695 c 2,2,-1
 68 920 l 1,3,4
 71 923 71 923 147 1008 c 2,5,-1
 187 1052 l 1,6,-1
 413 802 l 1,7,-1
 640 1052 l 1,8,-1
 758 920 l 1,9,-1
 535 670 l 1,10,-1
 758 420 l 1,11,-1
 640 288 l 1,12,-1
 413 538 l 1,13,-1
 187 288 l 1,14,15
 184 291 184 291 108 376 c 2,16,-1
 68 420 l 1,17,-1
 292 670 l 1,0,1
EndSplineSet
EndChar

StartChar: Oslash
Encoding: 216 216 154
Width: 1438
GlyphClass: 2
Flags: W
LayerCount: 2
Fore
SplineSet
1060 1759 m 1,0,-1
 469 -300 l 1,1,-1
 336 -300 l 1,2,-1
 927 1759 l 1,3,-1
 1060 1759 l 1,0,-1
715 -24 m 0,4,5
 628 -24 628 -24 560.5 -20 c 128,-1,6
 493 -16 493 -16 436 -0.5 c 128,-1,7
 379 15 379 15 338.5 28 c 128,-1,8
 298 41 298 41 265.5 77.5 c 128,-1,9
 233 114 233 114 212 140.5 c 128,-1,10
 191 167 191 167 176 228.5 c 128,-1,11
 161 290 161 290 154 333.5 c 128,-1,12
 147 377 147 377 142.5 468 c 128,-1,13
 138 559 138 559 137.5 624 c 128,-1,14
 137 689 137 689 137 812 c 0,15,16
 137 960 137 960 145 1058 c 128,-1,17
 153 1156 153 1156 176.5 1240 c 128,-1,18
 200 1324 200 1324 238.5 1372 c 128,-1,19
 277 1420 277 1420 343.5 1454.5 c 128,-1,20
 410 1489 410 1489 498.5 1501.5 c 128,-1,21
 587 1514 587 1514 715 1514 c 0,22,23
 836 1514 836 1514 922 1502 c 128,-1,24
 1008 1490 1008 1490 1074.5 1459.5 c 128,-1,25
 1141 1429 1141 1429 1181.5 1383.5 c 128,-1,26
 1222 1338 1222 1338 1248 1264 c 128,-1,27
 1274 1190 1274 1190 1283.5 1098.5 c 128,-1,28
 1293 1007 1293 1007 1293 876 c 0,29,30
 1293 506 1293 506 1282 389 c 0,31,32
 1263 189 1263 189 1190 103 c 0,33,34
 1113 11 1113 11 928 -13 c 0,35,36
 840 -24 840 -24 715 -24 c 0,4,5
715 1360 m 128,-1,38
 629 1360 629 1360 572 1356 c 128,-1,39
 515 1352 515 1352 472.5 1339 c 128,-1,40
 430 1326 430 1326 407 1310 c 128,-1,41
 384 1294 384 1294 369.5 1260.5 c 128,-1,42
 355 1227 355 1227 350.5 1192 c 128,-1,43
 346 1157 346 1157 344 1097 c 1,44,45
 341 912 341 912 341 725 c 0,46,47
 341 443 341 443 356 339 c 0,48,49
 380 183 380 183 447 159 c 1,50,51
 497 130 497 130 715 130 c 128,-1,52
 933 130 933 130 983 159 c 1,53,54
 1002 166 1002 166 1017.5 182 c 128,-1,55
 1033 198 1033 198 1043.5 225 c 128,-1,56
 1054 252 1054 252 1062 279.5 c 128,-1,57
 1070 307 1070 307 1075 350 c 128,-1,58
 1080 393 1080 393 1083 427.5 c 128,-1,59
 1086 462 1086 462 1087 515.5 c 128,-1,60
 1088 569 1088 569 1088.5 604 c 128,-1,61
 1089 639 1089 639 1089 697 c 0,62,63
 1089 899 1089 899 1086 1097 c 1,64,65
 1084 1157 1084 1157 1079.5 1192 c 128,-1,66
 1075 1227 1075 1227 1060.5 1260.5 c 128,-1,67
 1046 1294 1046 1294 1023 1310 c 128,-1,68
 1000 1326 1000 1326 957.5 1339 c 128,-1,69
 915 1352 915 1352 858 1356 c 128,-1,37
 801 1360 801 1360 715 1360 c 128,-1,38
EndSplineSet
EndChar

StartChar: Thorn
Encoding: 222 222 160
Width: 1293
GlyphClass: 2
Flags: W
LayerCount: 2
Fore
SplineSet
1176 832 m 0,0,1
 1176 737 1176 737 1159 662.5 c 128,-1,2
 1142 588 1142 588 1109.5 540 c 128,-1,3
 1077 492 1077 492 1037.5 459.5 c 128,-1,4
 998 427 998 427 945 410.5 c 128,-1,5
 892 394 892 394 843.5 387.5 c 128,-1,6
 795 381 795 381 736 381 c 0,7,8
 709 381 709 381 660 382 c 128,-1,9
 611 383 611 383 589 383 c 2,10,-1
 371 383 l 1,11,-1
 371 0 l 1,12,-1
 171 0 l 1,13,-1
 171 1489 l 1,14,-1
 371 1489 l 1,15,-1
 371 1284 l 1,16,-1
 616 1284 l 2,17,18
 728 1284 728 1284 805.5 1277 c 128,-1,19
 883 1270 883 1270 949 1251 c 128,-1,20
 1015 1232 1015 1232 1055.5 1201 c 128,-1,21
 1096 1170 1096 1170 1124.5 1118.5 c 128,-1,22
 1153 1067 1153 1067 1164.5 998 c 128,-1,23
 1176 929 1176 929 1176 832 c 0,0,1
977 832 m 0,24,25
 977 886 977 886 975 922 c 128,-1,26
 973 958 973 958 964.5 990.5 c 128,-1,27
 956 1023 956 1023 946.5 1042 c 128,-1,28
 937 1061 937 1061 914 1077 c 128,-1,29
 891 1093 891 1093 868 1100.5 c 128,-1,30
 845 1108 845 1108 801 1113 c 128,-1,31
 757 1118 757 1118 714.5 1119 c 128,-1,32
 672 1120 672 1120 603 1120 c 2,33,-1
 371 1120 l 1,34,-1
 371 551 l 1,35,-1
 694 551 l 2,36,37
 765 551 765 551 813.5 556.5 c 128,-1,38
 862 562 862 562 893.5 580.5 c 128,-1,39
 925 599 925 599 942 614.5 c 128,-1,40
 959 630 959 630 966.5 669.5 c 128,-1,41
 974 709 974 709 975.5 736 c 128,-1,42
 977 763 977 763 977 824 c 0,43,44
 977 829 977 829 977 832 c 0,24,25
EndSplineSet
EndChar

StartChar: germandbls
Encoding: 223 223 161
Width: 1235
GlyphClass: 2
Flags: W
LayerCount: 2
Fore
SplineSet
1117 401 m 0,0,1
 1117 329 1117 329 1106 271.5 c 128,-1,2
 1095 214 1095 214 1069 173 c 128,-1,3
 1043 132 1043 132 1015.5 102 c 128,-1,4
 988 72 988 72 937.5 53.5 c 128,-1,5
 887 35 887 35 846.5 23.5 c 128,-1,6
 806 12 806 12 735 7 c 128,-1,7
 664 2 664 2 613.5 1 c 128,-1,8
 563 0 563 0 476 0 c 1,9,-1
 476 162 l 1,10,11
 518 162 518 162 599 161 c 128,-1,12
 680 160 680 160 708 160 c 0,13,14
 761 160 761 160 789.5 162.5 c 128,-1,15
 818 165 818 165 845.5 179 c 128,-1,16
 873 193 873 193 884.5 213.5 c 128,-1,17
 896 234 896 234 905.5 278.5 c 128,-1,18
 915 323 915 323 917 377 c 128,-1,19
 919 431 919 431 919 522 c 0,20,21
 919 565 919 565 917.5 593.5 c 128,-1,22
 916 622 916 622 904.5 646.5 c 128,-1,23
 893 671 893 671 885.5 685 c 128,-1,24
 878 699 878 699 848 710 c 128,-1,25
 818 721 818 721 799 725.5 c 128,-1,26
 780 730 780 730 725 733 c 128,-1,27
 670 736 670 736 633 736.5 c 128,-1,28
 596 737 596 737 511 737 c 0,29,30
 508 737 508 737 506 737 c 1,31,-1
 506 890 l 1,32,33
 551 890 551 890 612.5 887.5 c 128,-1,34
 674 885 674 885 693 885 c 0,35,36
 721 885 721 885 740 887 c 128,-1,37
 759 889 759 889 776 896 c 128,-1,38
 793 903 793 903 803 911.5 c 128,-1,39
 813 920 813 920 821.5 939.5 c 128,-1,40
 830 959 830 959 833.5 979 c 128,-1,41
 837 999 837 999 840 1035 c 128,-1,42
 843 1071 843 1071 843.5 1107 c 128,-1,43
 844 1143 844 1143 844 1200 c 128,-1,44
 844 1257 844 1257 829 1283 c 128,-1,45
 814 1309 814 1309 758 1323 c 128,-1,46
 702 1337 702 1337 584 1337 c 0,47,48
 462 1337 462 1337 428 1325 c 0,49,50
 383 1310 383 1310 369 1253 c 0,51,52
 357 1202 357 1202 357 1001 c 0,53,54
 357 931 357 931 357 916 c 0,55,56
 357 735 357 735 357.5 373 c 128,-1,57
 358 11 358 11 358 -169 c 1,58,-1
 159 -185 l 1,59,60
 159 -54 159 -54 155.5 212.5 c 128,-1,61
 152 479 152 479 152 613 c 0,62,63
 152 931 152 931 165 1132 c 0,64,65
 178 1344 178 1344 271 1420.5 c 128,-1,66
 364 1497 364 1497 600 1497 c 0,67,68
 834 1497 834 1497 935.5 1418 c 128,-1,69
 1037 1339 1037 1339 1037 1141 c 0,70,71
 1037 848 1037 848 885 827 c 1,72,73
 989 820 989 820 1053 716 c 128,-1,74
 1117 612 1117 612 1117 401 c 0,0,1
EndSplineSet
EndChar

StartChar: ae
Encoding: 230 230 168
Width: 1755
GlyphClass: 2
Flags: W
LayerCount: 2
Fore
SplineSet
1623 564 m 1,0,1
 1503 552 1503 552 1474 550 c 1,2,-1
 960 550 l 1,3,-1
 960 469 l 2,4,5
 960 422 960 422 963.5 336 c 128,-1,6
 967 250 967 250 967 232 c 1,7,8
 972 165 972 165 1024.5 143.5 c 128,-1,9
 1077 122 1077 122 1229 122 c 0,10,11
 1273 122 1273 122 1306 126 c 128,-1,12
 1339 130 1339 130 1361 136.5 c 128,-1,13
 1383 143 1383 143 1397.5 155.5 c 128,-1,14
 1412 168 1412 168 1420 179.5 c 128,-1,15
 1428 191 1428 191 1432 211 c 128,-1,16
 1436 231 1436 231 1437 246.5 c 128,-1,17
 1438 262 1438 262 1439.5 288.5 c 128,-1,18
 1441 315 1441 315 1443 334 c 1,19,-1
 1596 306 l 1,20,21
 1594 236 1594 236 1586.5 187.5 c 128,-1,22
 1579 139 1579 139 1561.5 102 c 128,-1,23
 1544 65 1544 65 1520 43.5 c 128,-1,24
 1496 22 1496 22 1455.5 8 c 128,-1,25
 1415 -6 1415 -6 1366.5 -10.5 c 128,-1,26
 1318 -15 1318 -15 1246 -15 c 0,27,28
 1070 -15 1070 -15 971 17 c 128,-1,29
 872 49 872 49 826 119 c 1,30,31
 783 39 783 39 690.5 12 c 128,-1,32
 598 -15 598 -15 434 -15 c 0,33,34
 334 -15 334 -15 270 4.5 c 128,-1,35
 206 24 206 24 168 70 c 128,-1,36
 130 116 130 116 115.5 182.5 c 128,-1,37
 101 249 101 249 101 354 c 0,38,39
 101 401 101 401 117.5 438 c 128,-1,40
 134 475 134 475 162.5 501 c 128,-1,41
 191 527 191 527 238.5 546 c 128,-1,42
 286 565 286 565 337 576 c 128,-1,43
 388 587 388 587 460.5 593.5 c 128,-1,44
 533 600 533 600 602 602 c 128,-1,45
 671 604 671 604 763 604 c 1,46,-1
 763 901 l 2,47,48
 763 952 763 952 715 971.5 c 128,-1,49
 667 991 667 991 544 991 c 0,50,51
 458 991 458 991 415 987 c 128,-1,52
 372 983 372 983 349.5 963.5 c 128,-1,53
 327 944 327 944 323.5 925 c 128,-1,54
 320 906 320 906 319 854 c 0,55,56
 318 835 318 835 318 824 c 1,57,-1
 165 830 l 1,58,59
 163 846 163 846 163 877 c 0,60,61
 163 944 163 944 182.5 990.5 c 128,-1,62
 202 1037 202 1037 233 1063.5 c 128,-1,63
 264 1090 264 1090 318 1105 c 128,-1,64
 372 1120 372 1120 425 1124 c 128,-1,65
 478 1128 478 1128 557 1128 c 0,66,67
 777 1128 777 1128 865 1053 c 1,68,69
 913 1094 913 1094 996 1111 c 128,-1,70
 1079 1128 1079 1128 1217 1128 c 0,71,72
 1289 1128 1289 1128 1341 1123.5 c 128,-1,73
 1393 1119 1393 1119 1436.5 1105 c 128,-1,74
 1480 1091 1480 1091 1508.5 1073 c 128,-1,75
 1537 1055 1537 1055 1559 1020 c 128,-1,76
 1581 985 1581 985 1592.5 947.5 c 128,-1,77
 1604 910 1604 910 1611.5 848 c 128,-1,78
 1619 786 1619 786 1621 722.5 c 128,-1,79
 1623 659 1623 659 1623 564 c 1,0,1
763 314 m 1,80,-1
 763 477 l 1,81,-1
 763 485 l 1,82,83
 566 485 566 485 460 470 c 128,-1,84
 354 455 354 455 318.5 428.5 c 128,-1,85
 283 402 283 402 283 354 c 0,86,87
 283 352 283 352 283 348 c 0,88,89
 283 196 283 196 308 159 c 128,-1,90
 333 122 333 122 461 122 c 0,91,92
 570 122 570 122 638 148 c 128,-1,93
 706 174 706 174 732.5 214.5 c 128,-1,94
 759 255 759 255 763 314 c 1,80,-1
960 655 m 1,95,-1
 1426 655 l 1,96,97
 1424 783 1424 783 1416 889 c 0,98,99
 1412 950 1412 950 1370.5 970.5 c 128,-1,100
 1329 991 1329 991 1216 991 c 0,101,102
 1073 991 1073 991 1035 975 c 1,103,104
 1018 970 1018 970 1005.5 957.5 c 128,-1,105
 993 945 993 945 985 922 c 128,-1,106
 977 899 977 899 972.5 879 c 128,-1,107
 968 859 968 859 965.5 823.5 c 128,-1,108
 963 788 963 788 962 768.5 c 128,-1,109
 961 749 961 749 960.5 709 c 128,-1,110
 960 669 960 669 960 655 c 1,95,-1
EndSplineSet
EndChar

StartChar: eth
Encoding: 240 240 178
Width: 1206
GlyphClass: 2
Flags: W
LayerCount: 2
Fore
SplineSet
984 1587 m 1,0,-1
 1044 1527 l 1,1,-1
 886 1369 l 1,2,3
 926 1341 926 1341 955.5 1302 c 128,-1,4
 985 1263 985 1263 1005.5 1225 c 128,-1,5
 1026 1187 1026 1187 1039 1116.5 c 128,-1,6
 1052 1046 1052 1046 1059 995.5 c 128,-1,7
 1066 945 1066 945 1069.5 838.5 c 128,-1,8
 1073 732 1073 732 1073.5 664.5 c 128,-1,9
 1074 597 1074 597 1074 452 c 0,10,11
 1074 302 1074 302 1052.5 211 c 128,-1,12
 1031 120 1031 120 973.5 66.5 c 128,-1,13
 916 13 916 13 831.5 -5.5 c 128,-1,14
 747 -24 747 -24 606 -24 c 0,15,16
 478 -24 478 -24 394 -12 c 128,-1,17
 310 0 310 0 249.5 26.5 c 128,-1,18
 189 53 189 53 157 102.5 c 128,-1,19
 125 152 125 152 111.5 220 c 128,-1,20
 98 288 98 288 99 391 c 2,21,-1
 100 599 l 2,22,23
 101 794 101 794 193 880 c 128,-1,24
 285 966 285 966 511 966 c 0,25,26
 848 966 848 966 876 816 c 1,27,28
 866 1012 866 1012 845.5 1111.5 c 128,-1,29
 825 1211 825 1211 779 1262 c 1,30,-1
 622 1105 l 1,31,-1
 562 1165 l 1,32,-1
 709 1312 l 1,33,34
 695 1318 695 1318 679.5 1323.5 c 128,-1,35
 664 1329 664 1329 644 1334 c 128,-1,36
 624 1339 624 1339 607.5 1342.5 c 128,-1,37
 591 1346 591 1346 564 1349.5 c 128,-1,38
 537 1353 537 1353 519.5 1355.5 c 128,-1,39
 502 1358 502 1358 467.5 1361.5 c 128,-1,40
 433 1365 433 1365 413.5 1366.5 c 128,-1,41
 394 1368 394 1368 351.5 1372 c 128,-1,42
 309 1376 309 1376 287 1378 c 1,43,-1
 305 1497 l 1,44,45
 660 1475 660 1475 808 1411 c 1,46,-1
 984 1587 l 1,0,-1
606 838 m 0,47,48
 529 838 529 838 482.5 836.5 c 128,-1,49
 436 835 436 835 397.5 830 c 128,-1,50
 359 825 359 825 341 817.5 c 128,-1,51
 323 810 323 810 310.5 794.5 c 128,-1,52
 298 779 298 779 295.5 761.5 c 128,-1,53
 293 744 293 744 293 714 c 2,54,-1
 292 214 l 2,55,56
 292 187 292 187 295.5 170 c 128,-1,57
 299 153 299 153 314 139.5 c 128,-1,58
 329 126 329 126 346 120 c 128,-1,59
 363 114 363 114 404 110 c 128,-1,60
 445 106 445 106 486.5 105 c 128,-1,61
 528 104 528 104 604 104 c 0,62,63
 676 104 676 104 720.5 105 c 128,-1,64
 765 106 765 106 797 112.5 c 128,-1,65
 829 119 829 119 843.5 123.5 c 128,-1,66
 858 128 858 128 866.5 144.5 c 128,-1,67
 875 161 875 161 875.5 172 c 128,-1,68
 876 183 876 183 876 212 c 2,69,-1
 876 651 l 2,70,71
 876 694 876 694 872.5 719 c 128,-1,72
 869 744 869 744 854.5 770 c 128,-1,73
 840 796 840 796 811 809 c 128,-1,74
 782 822 782 822 732 830 c 128,-1,75
 682 838 682 838 606 838 c 0,47,48
EndSplineSet
EndChar

StartChar: divide
Encoding: 247 247 185
Width: 537
GlyphClass: 2
Flags: W
LayerCount: 2
Fore
SplineSet
273 925 m 0,0,1
 211 925 211 925 172 967 c 128,-1,2
 133 1009 133 1009 133 1079 c 0,3,4
 133 1152 133 1152 172.5 1192.5 c 128,-1,5
 212 1233 212 1233 287 1233 c 0,6,7
 338 1233 338 1233 375.5 1186 c 128,-1,8
 413 1139 413 1139 413 1079 c 0,9,10
 413 1011 413 1011 375.5 968 c 128,-1,11
 338 925 338 925 273 925 c 0,0,1
375 178 m 1,12,13
 337 134 337 134 273 134 c 0,14,15
 211 134 211 134 172 176 c 128,-1,16
 133 218 133 218 133 288 c 0,17,18
 133 360 133 360 172.5 401 c 128,-1,19
 212 442 212 442 287 442 c 0,20,21
 338 442 338 442 375.5 395 c 128,-1,22
 413 348 413 348 413 288 c 0,23,24
 413 224 413 224 375 178 c 1,12,13
EndSplineSet
EndChar

StartChar: oslash
Encoding: 248 248 186
Width: 1175
GlyphClass: 2
Flags: W
LayerCount: 2
Fore
SplineSet
383 -200 m 1,0,-1
 704 1299 l 1,1,-1
 797 1299 l 1,2,-1
 476 -200 l 1,3,-1
 383 -200 l 1,0,-1
580 123 m 1,4,5
 438 126 438 126 382.5 144 c 128,-1,6
 327 162 327 162 327 215 c 1,7,8
 316 358 316 358 316 546 c 0,9,10
 316 608 316 608 321 723.5 c 128,-1,11
 326 839 326 839 326 895 c 0,12,13
 326 912 326 912 331.5 926 c 128,-1,14
 337 940 337 940 349.5 949.5 c 128,-1,15
 362 959 362 959 374.5 966 c 128,-1,16
 387 973 387 973 409.5 977 c 128,-1,17
 432 981 432 981 447.5 984 c 128,-1,18
 463 987 463 987 491.5 988 c 128,-1,19
 520 989 520 989 535.5 989 c 128,-1,20
 551 989 551 989 581 989 c 128,-1,21
 611 989 611 989 626.5 989 c 128,-1,22
 642 989 642 989 670.5 988 c 128,-1,23
 699 987 699 987 714.5 984 c 128,-1,24
 730 981 730 981 752.5 977 c 128,-1,25
 775 973 775 973 787.5 966 c 128,-1,26
 800 959 800 959 812.5 949.5 c 128,-1,27
 825 940 825 940 830.5 926 c 128,-1,28
 836 912 836 912 836 895 c 0,29,30
 836 839 836 839 841 723.5 c 128,-1,31
 846 608 846 608 846 546 c 0,32,33
 846 358 846 358 835 215 c 1,34,35
 835 162 835 162 779.5 144 c 128,-1,36
 724 126 724 126 582 123 c 1,37,-1
 580 123 l 1,4,5
582 -15 m 2,38,39
 693 -15 693 -15 767 -6 c 128,-1,40
 841 3 841 3 894.5 33.5 c 128,-1,41
 948 64 948 64 976 98.5 c 128,-1,42
 1004 133 1004 133 1020 207.5 c 128,-1,43
 1036 282 1036 282 1039.5 355 c 128,-1,44
 1043 428 1043 428 1043 558 c 0,45,46
 1043 655 1043 655 1040.5 720 c 128,-1,47
 1038 785 1038 785 1029 847.5 c 128,-1,48
 1020 910 1020 910 1006.5 948.5 c 128,-1,49
 993 987 993 987 967.5 1021.5 c 128,-1,50
 942 1056 942 1056 910 1074 c 128,-1,51
 878 1092 878 1092 828.5 1105.5 c 128,-1,52
 779 1119 779 1119 720.5 1123.5 c 128,-1,53
 662 1128 662 1128 581 1128 c 128,-1,54
 500 1128 500 1128 441.5 1123.5 c 128,-1,55
 383 1119 383 1119 333.5 1105.5 c 128,-1,56
 284 1092 284 1092 252 1074 c 128,-1,57
 220 1056 220 1056 194.5 1021.5 c 128,-1,58
 169 987 169 987 155.5 948.5 c 128,-1,59
 142 910 142 910 133 847.5 c 128,-1,60
 124 785 124 785 121.5 720 c 128,-1,61
 119 655 119 655 119 558 c 0,62,63
 119 428 119 428 122.5 355 c 128,-1,64
 126 282 126 282 142 207.5 c 128,-1,65
 158 133 158 133 186 98.5 c 128,-1,66
 214 64 214 64 267.5 33.5 c 128,-1,67
 321 3 321 3 395 -6 c 128,-1,68
 469 -15 469 -15 580 -15 c 2,69,-1
 582 -15 l 2,38,39
EndSplineSet
EndChar

StartChar: thorn
Encoding: 254 254 192
Width: 1209
GlyphClass: 2
Flags: W
LayerCount: 2
Fore
SplineSet
1074 526 m 0,0,1
 1074 397 1074 397 1066.5 313.5 c 128,-1,2
 1059 230 1059 230 1038 160 c 128,-1,3
 1017 90 1017 90 978 52.5 c 128,-1,4
 939 15 939 15 878.5 -4.5 c 128,-1,5
 818 -24 818 -24 729 -24 c 0,6,7
 427 -24 427 -24 363 104 c 1,8,-1
 363 -385 l 1,9,-1
 167 -401 l 1,10,-1
 167 1564 l 1,11,-1
 362 1579 l 1,12,-1
 362 1041 l 1,13,14
 412 1168 412 1168 710 1168 c 0,15,16
 770 1168 770 1168 818.5 1157.5 c 128,-1,17
 867 1147 867 1147 903 1133 c 128,-1,18
 939 1119 939 1119 966 1087.5 c 128,-1,19
 993 1056 993 1056 1011.5 1031 c 128,-1,20
 1030 1006 1030 1006 1042 955 c 128,-1,21
 1054 904 1054 904 1060.5 870.5 c 128,-1,22
 1067 837 1067 837 1070 768.5 c 128,-1,23
 1073 700 1073 700 1073.5 660.5 c 128,-1,24
 1074 621 1074 621 1074 538 c 0,25,26
 1074 530 1074 530 1074 526 c 0,0,1
875 562 m 0,27,28
 875 608 875 608 875.5 677 c 128,-1,29
 876 746 876 746 876 770 c 0,30,31
 876 816 876 816 875 845 c 128,-1,32
 874 874 874 874 869 901 c 128,-1,33
 864 928 864 928 859 942.5 c 128,-1,34
 854 957 854 957 839 969.5 c 128,-1,35
 824 982 824 982 811.5 987.5 c 128,-1,36
 799 993 799 993 770 996.5 c 128,-1,37
 741 1000 741 1000 716.5 1000.5 c 128,-1,38
 692 1001 692 1001 646 1001 c 0,39,40
 602 1001 602 1001 571 1000.5 c 128,-1,41
 540 1000 540 1000 510.5 997 c 128,-1,42
 481 994 481 994 462.5 992 c 128,-1,43
 444 990 444 990 426.5 982 c 128,-1,44
 409 974 409 974 399.5 968 c 128,-1,45
 390 962 390 962 382 948 c 128,-1,46
 374 934 374 934 370.5 922.5 c 128,-1,47
 367 911 367 911 364.5 889 c 128,-1,48
 362 867 362 867 361.5 848.5 c 128,-1,49
 361 830 361 830 361 798 c 0,50,51
 361 769 361 769 362 709 c 128,-1,52
 363 649 363 649 363 621 c 0,53,54
 363 557 363 557 361.5 469 c 128,-1,55
 360 381 360 381 360 355 c 0,56,57
 360 281 360 281 367 242 c 128,-1,58
 374 203 374 203 393 183 c 1,59,60
 420 160 420 160 473.5 152 c 128,-1,61
 527 144 527 144 625 144 c 0,62,63
 684 144 684 144 723 148 c 128,-1,64
 762 152 762 152 791.5 164 c 128,-1,65
 821 176 821 176 836.5 191.5 c 128,-1,66
 852 207 852 207 861.5 238 c 128,-1,67
 871 269 871 269 873.5 302.5 c 128,-1,68
 876 336 876 336 876 392 c 0,69,70
 876 414 876 414 875.5 470.5 c 128,-1,71
 875 527 875 527 875 562 c 0,27,28
EndSplineSet
EndChar

StartChar: Dcroat
Encoding: 272 272 210
Width: 1444
GlyphClass: 2
Flags: W
LayerCount: 2
Fore
SplineSet
1278 876 m 0,0,1
 1278 739 1278 739 1276.5 650.5 c 128,-1,2
 1275 562 1275 562 1267 469.5 c 128,-1,3
 1259 377 1259 377 1250 323 c 128,-1,4
 1241 269 1241 269 1216.5 212.5 c 128,-1,5
 1192 156 1192 156 1168.5 128.5 c 128,-1,6
 1145 101 1145 101 1097 72 c 128,-1,7
 1049 43 1049 43 1003 33 c 128,-1,8
 957 23 957 23 878.5 13 c 128,-1,9
 800 3 800 3 724.5 1.5 c 128,-1,10
 649 0 649 0 533 0 c 2,11,-1
 171 0 l 1,12,-1
 171 689 l 1,13,-1
 78 689 l 1,14,-1
 78 826 l 1,15,-1
 171 826 l 1,16,-1
 171 1490 l 1,17,-1
 687 1490 l 2,18,19
 813 1490 813 1490 900 1479.5 c 128,-1,20
 987 1469 987 1469 1055.5 1440.5 c 128,-1,21
 1124 1412 1124 1412 1165 1369 c 128,-1,22
 1206 1326 1206 1326 1232.5 1254.5 c 128,-1,23
 1259 1183 1259 1183 1268.5 1094 c 128,-1,24
 1278 1005 1278 1005 1278 876 c 0,0,1
1077 873 m 2,25,26
 1077 965 1077 965 1076.5 1005.5 c 128,-1,27
 1076 1046 1076 1046 1069.5 1107 c 128,-1,28
 1063 1168 1063 1168 1051.5 1190.5 c 128,-1,29
 1040 1213 1040 1213 1015 1248 c 128,-1,30
 990 1283 990 1283 956.5 1292.5 c 128,-1,31
 923 1302 923 1302 868.5 1316.5 c 128,-1,32
 814 1331 814 1331 747 1333.5 c 128,-1,33
 680 1336 680 1336 584 1336 c 2,34,-1
 374 1336 l 1,35,-1
 374 826 l 1,36,-1
 642 826 l 1,37,-1
 642 689 l 1,38,-1
 374 689 l 1,39,-1
 374 153 l 1,40,-1
 614 153 l 2,41,42
 700 153 700 153 748 154.5 c 128,-1,43
 796 156 796 156 852 163 c 128,-1,44
 908 170 908 170 934.5 181.5 c 128,-1,45
 961 193 961 193 992 217.5 c 128,-1,46
 1023 242 1023 242 1035 273.5 c 128,-1,47
 1047 305 1047 305 1059 356.5 c 128,-1,48
 1071 408 1071 408 1074 470 c 128,-1,49
 1077 532 1077 532 1077 620 c 2,50,-1
 1077 873 l 2,25,26
EndSplineSet
EndChar

StartChar: dslash
Encoding: 273 273 211
Width: 1209
GlyphClass: 2
Flags: W
LayerCount: 2
Fore
SplineSet
113 371 m 2,0,-1
 113 778 l 2,1,2
 113 968 113 968 205 1050.5 c 128,-1,3
 297 1133 297 1133 510 1133 c 0,4,5
 647 1133 647 1133 718 1098.5 c 128,-1,6
 789 1064 789 1064 818 986 c 1,7,-1
 818 1261 l 1,8,-1
 561 1261 l 1,9,-1
 561 1364 l 1,10,-1
 818 1364 l 1,11,-1
 818 1542 l 1,12,-1
 1013 1542 l 1,13,-1
 1013 1364 l 1,14,-1
 1158 1364 l 1,15,-1
 1158 1261 l 1,16,-1
 1013 1261 l 1,17,-1
 1013 0 l 1,18,-1
 838 0 l 1,19,-1
 816 144 l 1,20,21
 766 -14 766 -14 490 -14 c 0,22,23
 378 -14 378 -14 305.5 7.5 c 128,-1,24
 233 29 233 29 190 77.5 c 128,-1,25
 147 126 147 126 130 195.5 c 128,-1,26
 113 265 113 265 113 371 c 2,0,-1
560 1005 m 0,27,28
 493 1005 493 1005 458.5 1003.5 c 128,-1,29
 424 1002 424 1002 389 995.5 c 128,-1,30
 354 989 354 989 340 975.5 c 128,-1,31
 326 962 326 962 317 939 c 128,-1,32
 308 916 308 916 308 879 c 2,33,-1
 308 221 l 2,34,35
 308 155 308 155 356 134.5 c 128,-1,36
 404 114 404 114 559 114 c 0,37,38
 712 114 712 114 765 140 c 128,-1,39
 818 166 818 166 818 246 c 2,40,-1
 818 866 l 2,41,42
 818 952 818 952 768.5 978.5 c 128,-1,43
 719 1005 719 1005 560 1005 c 0,27,28
EndSplineSet
EndChar

StartChar: gcommaaccent
Encoding: 291 291 229
Width: 1169
GlyphClass: 2
Flags: W
LayerCount: 2
Fore
SplineSet
1009 1097 m 1,0,-1
 1009 139 l 2,1,2
 1009 40 1009 40 1002.5 -28 c 128,-1,3
 996 -96 996 -96 978.5 -155 c 128,-1,4
 961 -214 961 -214 931 -249.5 c 128,-1,5
 901 -285 901 -285 851.5 -311 c 128,-1,6
 802 -337 802 -337 735 -347 c 128,-1,7
 668 -357 668 -357 574 -357 c 0,8,9
 378 -357 378 -357 262 -316 c 1,10,-1
 275 -180 l 1,11,12
 387 -211 387 -211 541 -211 c 0,13,14
 614 -211 614 -211 664.5 -203 c 128,-1,15
 715 -195 715 -195 743.5 -183 c 128,-1,16
 772 -171 772 -171 787.5 -148.5 c 128,-1,17
 803 -126 803 -126 807.5 -104 c 128,-1,18
 812 -82 812 -82 812 -48 c 0,19,20
 812 -37 812 -37 811.5 -12 c 128,-1,21
 811 13 811 13 811 26 c 2,22,-1
 811 131 l 1,23,24
 784 61 784 61 718 29 c 128,-1,25
 652 -3 652 -3 532 -3 c 0,26,27
 446 -3 446 -3 382 9 c 128,-1,28
 318 21 318 21 273 39 c 128,-1,29
 228 57 228 57 198.5 95.5 c 128,-1,30
 169 134 169 134 152 168.5 c 128,-1,31
 135 203 135 203 127 267.5 c 128,-1,32
 119 332 119 332 117 383.5 c 128,-1,33
 115 435 115 435 115 524 c 0,34,35
 115 637 115 637 117 701 c 128,-1,36
 119 765 119 765 126 839.5 c 128,-1,37
 133 914 133 914 149 952 c 128,-1,38
 165 990 165 990 190.5 1029.5 c 128,-1,39
 216 1069 216 1069 257 1086 c 128,-1,40
 298 1103 298 1103 353.5 1114 c 128,-1,41
 409 1125 409 1125 486 1125 c 0,42,43
 617 1125 617 1125 696 1089.5 c 128,-1,44
 775 1054 775 1054 811 975 c 1,45,-1
 830 1097 l 1,46,-1
 1009 1097 l 1,0,-1
812 223 m 1,47,-1
 812 833 l 2,48,49
 812 917 812 917 756.5 953.5 c 128,-1,50
 701 990 701 990 558 990 c 0,51,52
 418 990 418 990 366 965 c 0,53,54
 310 938 310 938 310 746 c 0,55,56
 310 457 310 457 318 242 c 1,57,58
 321 195 321 195 342.5 173 c 128,-1,59
 364 151 364 151 416 142.5 c 128,-1,60
 468 134 468 134 579 134 c 0,61,62
 802 134 802 134 812 223 c 1,47,-1
569 1819 m 0,63,64
 648 1819 648 1819 694.5 1760 c 128,-1,65
 741 1701 741 1701 741 1603 c 0,66,67
 741 1470 741 1470 650.5 1369 c 128,-1,68
 560 1268 560 1268 428 1268 c 1,69,-1
 428 1328 l 1,70,71
 485 1330 485 1330 520.5 1376.5 c 128,-1,72
 556 1423 556 1423 556 1493 c 1,73,74
 414 1500 414 1500 414 1663 c 0,75,76
 414 1713 414 1713 458 1766 c 128,-1,77
 502 1819 502 1819 569 1819 c 0,63,64
EndSplineSet
EndChar

StartChar: Hbar
Encoding: 294 294 232
Width: 1406
GlyphClass: 2
Flags: W
LayerCount: 2
Fore
SplineSet
1124 1189 m 1,0,-1
 1124 1083 l 1,1,-1
 267 1083 l 1,2,-1
 267 1189 l 1,3,-1
 1124 1189 l 1,0,-1
1243 0 m 1,4,-1
 1040 0 l 1,5,-1
 1040 684 l 1,6,-1
 374 684 l 1,7,-1
 374 0 l 1,8,-1
 171 0 l 1,9,-1
 171 1490 l 1,10,-1
 374 1490 l 1,11,-1
 374 842 l 1,12,-1
 1040 842 l 1,13,-1
 1040 1490 l 1,14,-1
 1243 1490 l 1,15,-1
 1243 0 l 1,4,-1
EndSplineSet
EndChar

StartChar: hbar
Encoding: 295 295 233
Width: 1195
GlyphClass: 2
Flags: W
LayerCount: 2
Fore
SplineSet
1060 0 m 1,0,-1
 863 0 l 1,1,-1
 863 666 l 2,2,3
 863 702 863 702 864.5 757 c 128,-1,4
 866 812 866 812 866 830 c 0,5,6
 866 880 866 880 858.5 907 c 128,-1,7
 851 934 851 934 824 955 c 128,-1,8
 797 976 797 976 748 983 c 128,-1,9
 699 990 699 990 614 990 c 0,10,11
 574 990 574 990 538.5 985.5 c 128,-1,12
 503 981 503 981 471 970.5 c 128,-1,13
 439 960 439 960 419 941 c 128,-1,14
 399 922 399 922 397 896 c 0,15,16
 383 716 383 716 383 572 c 2,17,-1
 383 0 l 1,18,-1
 185 0 l 1,19,-1
 185 1486 l 1,20,-1
 383 1502 l 1,21,-1
 383 1014 l 1,22,23
 455 1128 455 1128 681 1128 c 1,24,25
 740 1127 740 1127 787.5 1120.5 c 128,-1,26
 835 1114 835 1114 872 1105 c 128,-1,27
 909 1096 909 1096 937 1080 c 128,-1,28
 965 1064 965 1064 985 1047 c 128,-1,29
 1005 1030 1005 1030 1019 1004.5 c 128,-1,30
 1033 979 1033 979 1041 955 c 128,-1,31
 1049 931 1049 931 1053.5 896 c 128,-1,32
 1058 861 1058 861 1059.5 830.5 c 128,-1,33
 1061 800 1061 800 1061 756 c 0,34,35
 1061 737 1061 737 1060.5 694.5 c 128,-1,36
 1060 652 1060 652 1060 629 c 2,37,-1
 1060 0 l 1,0,-1
36 1372 m 1,38,-1
 633 1372 l 1,39,-1
 633 1245 l 1,40,-1
 36 1245 l 1,41,-1
 36 1372 l 1,38,-1
EndSplineSet
EndChar

StartChar: dotlessi
Encoding: 305 305 243
Width: 533
GlyphClass: 2
Flags: W
LayerCount: 2
Fore
SplineSet
364 0 m 1,0,-1
 167 0 l 1,1,-1
 167 1097 l 1,2,-1
 364 1097 l 1,3,-1
 364 0 l 1,0,-1
EndSplineSet
EndChar

StartChar: kgreenlandic
Encoding: 312 312 250
Width: 1115
GlyphClass: 2
Flags: W
LayerCount: 2
Fore
SplineSet
1055 0 m 1,0,-1
 838 0 l 1,1,-1
 456 542 l 1,2,-1
 364 439 l 1,3,-1
 364 0 l 1,4,-1
 166 0 l 1,5,-1
 166 1082 l 1,6,-1
 364 1098 l 1,7,-1
 364 752 l 2,8,9
 364 727 364 727 363.5 673 c 128,-1,10
 363 619 363 619 363 595 c 1,11,12
 395 629 395 629 454.5 695 c 128,-1,13
 514 761 514 761 534 782 c 1,14,-1
 795 1097 l 1,15,-1
 1019 1097 l 1,16,-1
 606 628 l 1,17,-1
 1055 0 l 1,0,-1
EndSplineSet
EndChar

StartChar: Lslash
Encoding: 321 321 259
Width: 1070
GlyphClass: 2
Flags: W
LayerCount: 2
Fore
SplineSet
990 0 m 1,0,-1
 213 0 l 1,1,-1
 213 610 l 1,2,-1
 79 540 l 1,3,-1
 79 733 l 1,4,-1
 213 803 l 1,5,-1
 213 1490 l 1,6,-1
 416 1490 l 1,7,-1
 416 907 l 1,8,-1
 713 1060 l 1,9,-1
 713 867 l 1,10,-1
 416 714 l 1,11,-1
 416 171 l 1,12,-1
 990 171 l 1,13,-1
 990 0 l 1,0,-1
EndSplineSet
EndChar

StartChar: lslash
Encoding: 322 322 260
Width: 682
GlyphClass: 2
Flags: W
LayerCount: 2
Fore
SplineSet
583 848 m 1,0,-1
 421 751 l 1,1,-1
 421 0 l 1,2,-1
 225 0 l 1,3,-1
 225 635 l 1,4,-1
 71 545 l 1,5,-1
 71 738 l 1,6,-1
 225 829 l 1,7,-1
 225 1528 l 1,8,-1
 421 1544 l 1,9,-1
 421 945 l 1,10,-1
 583 1041 l 1,11,-1
 583 848 l 1,0,-1
EndSplineSet
EndChar

StartChar: OE
Encoding: 338 338 273
Width: 2066
GlyphClass: 2
Flags: W
LayerCount: 2
Fore
SplineSet
1933 0 m 1,0,-1
 715 0 l 2,1,2
 628 0 628 0 560.5 4 c 128,-1,3
 493 8 493 8 436 23 c 128,-1,4
 379 38 379 38 338.5 50.5 c 128,-1,5
 298 63 298 63 265.5 98.5 c 128,-1,6
 233 134 233 134 212 159.5 c 128,-1,7
 191 185 191 185 176 245 c 128,-1,8
 161 305 161 305 154 347 c 128,-1,9
 147 389 147 389 142.5 477.5 c 128,-1,10
 138 566 138 566 137.5 629 c 128,-1,11
 137 692 137 692 137 812 c 0,12,13
 137 954 137 954 145 1049 c 128,-1,14
 153 1144 153 1144 176.5 1225 c 128,-1,15
 200 1306 200 1306 238.5 1352.5 c 128,-1,16
 277 1399 277 1399 343.5 1432.5 c 128,-1,17
 410 1466 410 1466 498.5 1478 c 128,-1,18
 587 1490 587 1490 715 1490 c 2,19,-1
 1924 1490 l 1,20,-1
 1944 1336 l 1,21,-1
 1292 1336 l 1,22,-1
 1292 857 l 1,23,-1
 1849 857 l 1,24,-1
 1849 695 l 1,25,-1
 1292 695 l 1,26,-1
 1292 153 l 1,27,-1
 1953 153 l 1,28,-1
 1933 0 l 1,0,-1
715 1337 m 2,29,30
 650 1337 650 1337 603 1335 c 128,-1,31
 556 1333 556 1333 517 1327 c 128,-1,32
 478 1321 478 1321 452.5 1313.5 c 128,-1,33
 427 1306 427 1306 407.5 1290.5 c 128,-1,34
 388 1275 388 1275 377 1259.5 c 128,-1,35
 366 1244 366 1244 358.5 1217.5 c 128,-1,36
 351 1191 351 1191 348.5 1164.5 c 128,-1,37
 346 1138 346 1138 344 1097 c 1,38,39
 341 912 341 912 341 725 c 0,40,41
 341 721 341 721 341 712 c 0,42,43
 341 664 341 664 341 639 c 128,-1,44
 341 614 341 614 341.5 568.5 c 128,-1,45
 342 523 342 523 343.5 497.5 c 128,-1,46
 345 472 345 472 347.5 432.5 c 128,-1,47
 350 393 350 393 354 370 c 128,-1,48
 358 347 358 347 363.5 316 c 128,-1,49
 369 285 369 285 377 266.5 c 128,-1,50
 385 248 385 248 395 229 c 128,-1,51
 405 210 405 210 418 199 c 128,-1,52
 431 188 431 188 447 183 c 1,53,54
 497 154 497 154 715 154 c 2,55,-1
 1089 154 l 1,56,-1
 1089 1337 l 1,57,-1
 715 1337 l 2,29,30
EndSplineSet
EndChar

StartChar: oe
Encoding: 339 339 274
Width: 1874
GlyphClass: 2
Flags: W
LayerCount: 2
Fore
SplineSet
1739 555 m 1,0,1
 1699 549 1699 549 1619 541 c 1,2,-1
 1040 541 l 1,3,4
 1040 524 1040 524 1040.5 489.5 c 128,-1,5
 1041 455 1041 455 1041.5 432 c 128,-1,6
 1042 409 1042 409 1043 375.5 c 128,-1,7
 1044 342 1044 342 1046.5 318 c 128,-1,8
 1049 294 1049 294 1052.5 265.5 c 128,-1,9
 1056 237 1056 237 1062 216.5 c 128,-1,10
 1068 196 1068 196 1076.5 177.5 c 128,-1,11
 1085 159 1085 159 1096.5 147.5 c 128,-1,12
 1108 136 1108 136 1123 131 c 0,13,14
 1177 114 1177 114 1308 114 c 0,15,16
 1442 114 1442 114 1495 132 c 128,-1,17
 1548 150 1548 150 1548 193 c 2,18,-1
 1549 326 l 1,19,-1
 1712 297 l 1,20,21
 1710 203 1710 203 1701 157 c 0,22,23
 1681 52 1681 52 1593 14 c 128,-1,24
 1505 -24 1505 -24 1325 -24 c 0,25,26
 1172 -24 1172 -24 1084.5 -5 c 128,-1,27
 997 14 997 14 942 63 c 1,28,29
 890 17 890 17 804 -3.5 c 128,-1,30
 718 -24 718 -24 580 -24 c 0,31,32
 503 -24 503 -24 443.5 -16.5 c 128,-1,33
 384 -9 384 -9 337 0 c 128,-1,34
 290 9 290 9 256.5 36 c 128,-1,35
 223 63 223 63 199 82.5 c 128,-1,36
 175 102 175 102 160 150 c 128,-1,37
 145 198 145 198 136.5 230.5 c 128,-1,38
 128 263 128 263 124.5 335 c 128,-1,39
 121 407 121 407 120 454 c 128,-1,40
 119 501 119 501 119 599 c 0,41,42
 119 713 119 713 125 787.5 c 128,-1,43
 131 862 131 862 150.5 924.5 c 128,-1,44
 170 987 170 987 200 1021 c 128,-1,45
 230 1055 230 1055 284 1079 c 128,-1,46
 338 1103 338 1103 407.5 1111 c 128,-1,47
 477 1119 477 1119 581 1119 c 0,48,49
 845 1119 845 1119 941 1034 c 1,50,51
 995 1082 995 1082 1079 1100.5 c 128,-1,52
 1163 1119 1163 1119 1297 1119 c 0,53,54
 1375 1119 1375 1119 1432 1114.5 c 128,-1,55
 1489 1110 1489 1110 1536.5 1095.5 c 128,-1,56
 1584 1081 1584 1081 1615 1063 c 128,-1,57
 1646 1045 1646 1045 1669.5 1010 c 128,-1,58
 1693 975 1693 975 1706 937.5 c 128,-1,59
 1719 900 1719 900 1727 838 c 128,-1,60
 1735 776 1735 776 1737 713 c 128,-1,61
 1739 650 1739 650 1739 555 c 1,0,1
1040 647 m 1,62,-1
 1540 647 l 1,63,64
 1540 767 1540 767 1531 881 c 0,65,66
 1527 941 1527 941 1477.5 961.5 c 128,-1,67
 1428 982 1428 982 1296 982 c 0,68,69
 1153 982 1153 982 1114 966 c 1,70,71
 1097 961 1097 961 1084.5 948.5 c 128,-1,72
 1072 936 1072 936 1064.5 913 c 128,-1,73
 1057 890 1057 890 1052 870 c 128,-1,74
 1047 850 1047 850 1045 815 c 128,-1,75
 1043 780 1043 780 1042 760 c 128,-1,76
 1041 740 1041 740 1040.5 700.5 c 128,-1,77
 1040 661 1040 661 1040 647 c 1,62,-1
844 545 m 0,78,79
 844 709 844 709 833 879 c 1,80,81
 833 903 833 903 825 921 c 128,-1,82
 817 939 817 939 799.5 949.5 c 128,-1,83
 782 960 782 960 764.5 967 c 128,-1,84
 747 974 747 974 718.5 976.5 c 128,-1,85
 690 979 690 979 669.5 980 c 128,-1,86
 649 981 649 981 616 981 c 0,87,88
 448 981 448 981 389 963.5 c 128,-1,89
 330 946 330 946 326 879 c 0,90,91
 316 725 316 725 316 544 c 0,92,93
 316 377 316 377 327 207 c 1,94,95
 327 185 327 185 335 169.5 c 128,-1,96
 343 154 343 154 361 144 c 128,-1,97
 379 134 379 134 398 128 c 128,-1,98
 417 122 417 122 450.5 119.5 c 128,-1,99
 484 117 484 117 510.5 116 c 128,-1,100
 537 115 537 115 581 115 c 0,101,102
 708 115 708 115 756 130 c 1,103,104
 785 137 785 137 803.5 166 c 128,-1,105
 822 195 822 195 830.5 243 c 128,-1,106
 839 291 839 291 842 336 c 128,-1,107
 845 381 845 381 845 441 c 0,108,109
 845 460 845 460 844.5 495 c 128,-1,110
 844 530 844 530 844 545 c 0,78,79
EndSplineSet
EndChar

StartChar: florin
Encoding: 402 402 316
Width: 715
GlyphClass: 2
Flags: W
LayerCount: 2
Fore
SplineSet
618 1543 m 1,0,-1
 618 1389 l 1,1,2
 579 1392 579 1392 540 1392 c 0,3,4
 506 1392 506 1392 485 1390.5 c 128,-1,5
 464 1389 464 1389 448 1381.5 c 128,-1,6
 432 1374 432 1374 425 1368 c 128,-1,7
 418 1362 418 1362 414 1342 c 128,-1,8
 410 1322 410 1322 409.5 1307 c 128,-1,9
 409 1292 409 1292 409 1256 c 2,10,-1
 410 887 l 1,11,-1
 608 887 l 1,12,-1
 608 757 l 1,13,-1
 410 757 l 1,14,-1
 410 -56 l 2,15,16
 410 -110 410 -110 405.5 -147 c 128,-1,17
 401 -184 401 -184 388.5 -218.5 c 128,-1,18
 376 -253 376 -253 352.5 -273 c 128,-1,19
 329 -293 329 -293 290.5 -305.5 c 128,-1,20
 252 -318 252 -318 197 -319 c 0,21,22
 158 -319 158 -319 45 -299 c 1,23,-1
 45 -167 l 1,24,-1
 213 -167 l 1,25,-1
 213 757 l 1,26,-1
 51 757 l 1,27,-1
 51 887 l 1,28,-1
 213 887 l 1,29,-1
 212 1259 l 2,30,31
 211 1425 211 1425 264.5 1493 c 128,-1,32
 318 1561 318 1561 442 1561 c 0,33,34
 524 1561 524 1561 618 1543 c 1,0,-1
EndSplineSet
EndChar

StartChar: uni0237
Encoding: 567 567 319
Width: 515
GlyphClass: 2
Flags: W
LayerCount: 2
Fore
SplineSet
345 1097 m 1,0,-1
 345 61 l 2,1,2
 345 -139 345 -139 290.5 -220.5 c 128,-1,3
 236 -302 236 -302 90 -302 c 0,4,5
 46 -302 46 -302 -16 -294 c 1,6,-1
 -21 -172 l 1,7,8
 -9 -171 -9 -171 13.5 -171 c 128,-1,9
 36 -171 36 -171 48.5 -170.5 c 128,-1,10
 61 -170 61 -170 79 -167 c 128,-1,11
 97 -164 97 -164 107.5 -157 c 128,-1,12
 118 -150 118 -150 128.5 -139 c 128,-1,13
 139 -128 139 -128 143.5 -109 c 128,-1,14
 148 -90 148 -90 148 -64 c 2,15,-1
 148 1097 l 1,16,-1
 345 1097 l 1,0,-1
EndSplineSet
EndChar

StartChar: circumflex
Encoding: 710 710 320
Width: 801
GlyphClass: 2
Flags: W
LayerCount: 2
Fore
SplineSet
407 1627 m 1,0,-1
 176 1391 l 1,1,-1
 121 1445 l 1,2,-1
 313 1754 l 1,3,4
 348 1806 348 1806 407 1806 c 128,-1,5
 466 1806 466 1806 501 1754 c 1,6,-1
 693 1445 l 1,7,-1
 638 1391 l 1,8,-1
 407 1627 l 1,0,-1
EndSplineSet
EndChar

StartChar: caron
Encoding: 711 711 321
Width: 801
GlyphClass: 2
Flags: W
LayerCount: 2
Fore
SplineSet
176 1806 m 1,0,-1
 407 1570 l 1,1,-1
 638 1806 l 1,2,-1
 693 1752 l 1,3,-1
 501 1443 l 1,4,5
 466 1391 466 1391 407 1391 c 128,-1,6
 348 1391 348 1391 313 1443 c 1,7,-1
 121 1752 l 1,8,-1
 176 1806 l 1,0,-1
EndSplineSet
EndChar

StartChar: breve
Encoding: 728 728 322
Width: 743
GlyphClass: 2
Flags: W
LayerCount: 2
Fore
SplineSet
83 1748 m 1,0,-1
 225 1748 l 1,1,2
 224 1745 224 1745 224 1736 c 0,3,4
 224 1644 224 1644 255.5 1609 c 128,-1,5
 287 1574 287 1574 378 1574 c 0,6,7
 470 1574 470 1574 501 1610.5 c 128,-1,8
 532 1647 532 1647 532 1748 c 1,9,-1
 674 1748 l 1,10,11
 674 1579 674 1579 597.5 1513.5 c 128,-1,12
 521 1448 521 1448 341 1448 c 0,13,14
 223 1448 223 1448 153 1519.5 c 128,-1,15
 83 1591 83 1591 83 1748 c 1,0,-1
EndSplineSet
EndChar

StartChar: dotaccent
Encoding: 729 729 323
Width: 447
GlyphClass: 2
Flags: W
LayerCount: 2
Fore
SplineSet
128 1207 m 1,0,1
 128 1245 128 1245 128.5 1321 c 128,-1,2
 129 1397 129 1397 129 1435 c 1,3,-1
 325 1435 l 1,4,5
 325 1397 325 1397 325.5 1321 c 128,-1,6
 326 1245 326 1245 326 1207 c 1,7,-1
 128 1207 l 1,0,1
EndSplineSet
EndChar

StartChar: ring
Encoding: 730 730 324
Width: 745
GlyphClass: 2
Flags: W
LayerCount: 2
Fore
SplineSet
358 538 m 0,0,1
 315 538 315 538 286 496 c 128,-1,2
 257 454 257 454 257 402 c 0,3,4
 257 265 257 265 385 265 c 0,5,6
 428 265 428 265 457.5 307 c 128,-1,7
 487 349 487 349 487 400 c 0,8,9
 487 465 487 465 453.5 501.5 c 128,-1,10
 420 538 420 538 358 538 c 0,0,1
372 656 m 128,-1,12
 484 656 484 656 557 584.5 c 128,-1,13
 630 513 630 513 630 402 c 0,14,15
 630 289 630 289 558 218.5 c 128,-1,16
 486 148 486 148 374 148 c 0,17,18
 266 148 266 148 191.5 217 c 128,-1,19
 117 286 117 286 117 402 c 0,20,21
 117 515 117 515 188.5 585.5 c 128,-1,11
 260 656 260 656 372 656 c 128,-1,12
EndSplineSet
EndChar

StartChar: ogonek
Encoding: 731 731 325
Width: 716
GlyphClass: 2
Flags: W
LayerCount: 2
Fore
SplineSet
374 0 m 1,0,-1
 482 0 l 1,1,2
 400 -84 400 -84 350.5 -174 c 128,-1,3
 301 -264 301 -264 301 -341 c 0,4,5
 301 -427 301 -427 384 -427 c 0,6,7
 447 -427 447 -427 548 -381 c 1,8,-1
 583 -459 l 1,9,10
 551 -495 551 -495 465.5 -524.5 c 128,-1,11
 380 -554 380 -554 297 -554 c 0,12,13
 215 -554 215 -554 163.5 -519.5 c 128,-1,14
 112 -485 112 -485 112 -409 c 0,15,16
 112 -366 112 -366 125 -324.5 c 128,-1,17
 138 -283 138 -283 155.5 -250.5 c 128,-1,18
 173 -218 173 -218 213 -171 c 128,-1,19
 253 -124 253 -124 282.5 -93 c 128,-1,20
 312 -62 312 -62 374 0 c 1,0,-1
EndSplineSet
EndChar

StartChar: tilde
Encoding: 732 732 326
Width: 1015
GlyphClass: 2
Flags: W
LayerCount: 2
Fore
SplineSet
842 1097 m 1,0,1
 791 912 791 912 615 912 c 0,2,3
 562 912 562 912 472 954 c 128,-1,4
 382 996 382 996 340 996 c 0,5,6
 262 996 262 996 194 933 c 1,7,-1
 165 976 l 1,8,9
 214 1132 214 1132 374 1132 c 0,10,11
 427 1132 427 1132 473.5 1115 c 128,-1,12
 520 1098 520 1098 557 1081 c 128,-1,13
 594 1064 594 1064 623 1064 c 0,14,15
 705 1064 705 1064 808 1147 c 1,16,-1
 842 1097 l 1,0,1
EndSplineSet
EndChar

StartChar: hungarumlaut
Encoding: 733 733 327
Width: 1126
GlyphClass: 2
Flags: W
LayerCount: 2
Fore
SplineSet
387 1605 m 1,0,1
 427 1640 427 1640 471 1640 c 0,2,3
 518 1640 518 1640 546 1610.5 c 128,-1,4
 574 1581 574 1581 574 1540 c 0,5,6
 574 1509 574 1509 556 1480 c 128,-1,7
 538 1451 538 1451 503 1436 c 0,8,9
 492 1431 492 1431 393 1394 c 128,-1,10
 294 1357 294 1357 201 1322 c 2,11,-1
 108 1287 l 1,12,-1
 91 1308 l 1,13,14
 348 1574 348 1574 387 1605 c 1,0,1
816 1605 m 1,15,16
 856 1640 856 1640 900 1640 c 0,17,18
 947 1640 947 1640 975 1610.5 c 128,-1,19
 1003 1581 1003 1581 1003 1540 c 0,20,21
 1003 1509 1003 1509 985 1480 c 128,-1,22
 967 1451 967 1451 932 1436 c 0,23,24
 921 1431 921 1431 822 1394 c 128,-1,25
 723 1357 723 1357 630 1322 c 2,26,-1
 537 1287 l 1,27,-1
 520 1308 l 1,28,29
 777 1574 777 1574 816 1605 c 1,15,16
EndSplineSet
EndChar

StartChar: uni0326
Encoding: 806 806 330
Width: 679
GlyphClass: 2
Flags: W
LayerCount: 2
Fore
SplineSet
331 -140 m 0,0,1
 410 -140 410 -140 456.5 -199 c 128,-1,2
 503 -258 503 -258 503 -356 c 0,3,4
 503 -489 503 -489 412.5 -590 c 128,-1,5
 322 -691 322 -691 190 -691 c 1,6,-1
 190 -631 l 1,7,8
 247 -629 247 -629 282.5 -582.5 c 128,-1,9
 318 -536 318 -536 318 -466 c 1,10,11
 176 -459 176 -459 176 -296 c 0,12,13
 176 -246 176 -246 220 -193 c 128,-1,14
 264 -140 264 -140 331 -140 c 0,0,1
EndSplineSet
EndChar

StartChar: endash
Encoding: 8211 8211 331
Width: 1069
GlyphClass: 2
Flags: W
LayerCount: 2
Fore
SplineSet
942 580 m 1,0,-1
 131 580 l 1,1,-1
 131 768 l 1,2,-1
 942 768 l 1,3,-1
 942 580 l 1,0,-1
EndSplineSet
EndChar

StartChar: emdash
Encoding: 8212 8212 332
Width: 1785
GlyphClass: 2
Flags: W
LayerCount: 2
Fore
SplineSet
1659 580 m 1,0,-1
 131 580 l 1,1,-1
 131 768 l 1,2,-1
 1659 768 l 1,3,-1
 1659 580 l 1,0,-1
EndSplineSet
EndChar

StartChar: quoteleft
Encoding: 8216 8216 333
Width: 525
GlyphClass: 2
Flags: W
LayerCount: 2
Fore
SplineSet
416 1484 m 1,0,1
 355 1484 355 1484 317 1424.5 c 128,-1,2
 279 1365 279 1365 279 1285 c 1,3,4
 411 1285 411 1285 411 1135 c 0,5,6
 411 1089 411 1089 371 1044.5 c 128,-1,7
 331 1000 331 1000 271 1000 c 0,8,9
 118 1000 118 1000 118 1202 c 0,10,11
 118 1342 118 1342 206 1447 c 128,-1,12
 294 1552 294 1552 416 1552 c 1,13,-1
 416 1484 l 1,0,1
EndSplineSet
EndChar

StartChar: quoteright
Encoding: 8217 8217 334
Width: 525
GlyphClass: 2
Flags: W
LayerCount: 2
Fore
SplineSet
123 1068 m 1,0,1
 185 1068 185 1068 222.5 1126.5 c 128,-1,2
 260 1185 260 1185 260 1267 c 1,3,4
 128 1267 128 1267 128 1417 c 0,5,6
 128 1467 128 1467 170 1509.5 c 128,-1,7
 212 1552 212 1552 288 1552 c 0,8,9
 349 1552 349 1552 385.5 1495.5 c 128,-1,10
 422 1439 422 1439 422 1350 c 0,11,12
 422 1215 422 1215 334 1107.5 c 128,-1,13
 246 1000 246 1000 123 1000 c 1,14,-1
 123 1068 l 1,0,1
EndSplineSet
EndChar

StartChar: quotesinglbase
Encoding: 8218 8218 335
Width: 408
GlyphClass: 2
Flags: W
LayerCount: 2
Fore
SplineSet
200 -270 m 1,0,1
 125 85 125 85 125 164 c 0,2,3
 125 241 125 241 142 271 c 128,-1,4
 159 301 159 301 212 301 c 0,5,6
 298 301 298 301 298 179 c 0,7,8
 298 142 298 142 280 28.5 c 128,-1,9
 262 -85 262 -85 244 -180 c 2,10,-1
 225 -276 l 1,11,-1
 200 -270 l 1,0,1
EndSplineSet
EndChar

StartChar: quotedblleft
Encoding: 8220 8220 336
Width: 1005
GlyphClass: 2
Flags: W
LayerCount: 2
Fore
SplineSet
896 1484 m 1,0,1
 836 1484 836 1484 798 1425 c 128,-1,2
 760 1366 760 1366 760 1285 c 1,3,4
 891 1285 891 1285 891 1135 c 0,5,6
 891 1087 891 1087 850 1043.5 c 128,-1,7
 809 1000 809 1000 733 1000 c 0,8,9
 671 1000 671 1000 633.5 1057.5 c 128,-1,10
 596 1115 596 1115 596 1202 c 0,11,12
 596 1339 596 1339 685 1445.5 c 128,-1,13
 774 1552 774 1552 896 1552 c 1,14,-1
 896 1484 l 1,0,1
418 1484 m 1,15,16
 355 1484 355 1484 317 1425.5 c 128,-1,17
 279 1367 279 1367 279 1285 c 1,18,19
 413 1285 413 1285 413 1135 c 0,20,21
 413 1087 413 1087 372.5 1043.5 c 128,-1,22
 332 1000 332 1000 271 1000 c 0,23,24
 118 1000 118 1000 118 1202 c 0,25,26
 118 1339 118 1339 205 1445.5 c 128,-1,27
 292 1552 292 1552 418 1552 c 1,28,-1
 418 1484 l 1,15,16
EndSplineSet
EndChar

StartChar: quotedblright
Encoding: 8221 8221 337
Width: 1005
GlyphClass: 2
Flags: W
LayerCount: 2
Fore
SplineSet
602 1068 m 1,0,1
 665 1068 665 1068 702.5 1125.5 c 128,-1,2
 740 1183 740 1183 740 1267 c 1,3,4
 607 1267 607 1267 607 1417 c 0,5,6
 607 1465 607 1465 649 1508.5 c 128,-1,7
 691 1552 691 1552 768 1552 c 0,8,9
 829 1552 829 1552 865.5 1495.5 c 128,-1,10
 902 1439 902 1439 902 1350 c 0,11,12
 902 1263 902 1263 863.5 1182.5 c 128,-1,13
 825 1102 825 1102 755 1051 c 128,-1,14
 685 1000 685 1000 602 1000 c 1,15,-1
 602 1068 l 1,0,1
123 1068 m 1,16,17
 185 1068 185 1068 222.5 1126.5 c 128,-1,18
 260 1185 260 1185 260 1267 c 1,19,20
 128 1267 128 1267 128 1417 c 0,21,22
 128 1467 128 1467 170 1509.5 c 128,-1,23
 212 1552 212 1552 288 1552 c 0,24,25
 348 1552 348 1552 386.5 1494.5 c 128,-1,26
 425 1437 425 1437 425 1350 c 0,27,28
 425 1215 425 1215 336 1107.5 c 128,-1,29
 247 1000 247 1000 123 1000 c 1,30,-1
 123 1068 l 1,16,17
EndSplineSet
EndChar

StartChar: quotedblbase
Encoding: 8222 8222 338
Width: 693
GlyphClass: 2
Flags: W
LayerCount: 2
Fore
SplineSet
200 -270 m 1,0,1
 125 85 125 85 125 164 c 0,2,3
 125 241 125 241 142 271 c 128,-1,4
 159 301 159 301 212 301 c 0,5,6
 298 301 298 301 298 179 c 0,7,8
 298 142 298 142 280 28.5 c 128,-1,9
 262 -85 262 -85 244 -180 c 2,10,-1
 225 -276 l 1,11,-1
 200 -270 l 1,0,1
484 -270 m 1,12,13
 409 85 409 85 409 164 c 0,14,15
 409 241 409 241 426 271 c 128,-1,16
 443 301 443 301 496 301 c 0,17,18
 582 301 582 301 582 179 c 0,19,20
 582 142 582 142 564 28.5 c 128,-1,21
 546 -85 546 -85 528 -180 c 2,22,-1
 509 -276 l 1,23,-1
 484 -270 l 1,12,13
EndSplineSet
EndChar

StartChar: dagger
Encoding: 8224 8224 339
Width: 830
GlyphClass: 2
Flags: W
LayerCount: 2
Fore
SplineSet
364 23 m 0,0,1
 317 53 317 53 317 146 c 1,2,3
 340 438 340 438 368 743 c 2,4,-1
 386 939 l 1,5,6
 386 939 386 939 376 935 c 256,7,8
 366 931 366 931 349 924.5 c 128,-1,9
 332 918 332 918 310.5 910 c 128,-1,10
 289 902 289 902 264.5 894 c 128,-1,11
 240 886 240 886 217 879.5 c 128,-1,12
 194 873 194 873 172 869 c 128,-1,13
 150 865 150 865 135 865 c 0,14,15
 20 865 20 865 20 972 c 0,16,17
 20 1020 20 1020 44.5 1052 c 128,-1,18
 69 1084 69 1084 110 1084 c 0,19,20
 131 1084 131 1084 149 1083 c 128,-1,21
 167 1082 167 1082 184.5 1078.5 c 128,-1,22
 202 1075 202 1075 214 1072.5 c 128,-1,23
 226 1070 226 1070 244.5 1063.5 c 128,-1,24
 263 1057 263 1057 271.5 1054 c 128,-1,25
 280 1051 280 1051 301.5 1042 c 128,-1,26
 323 1033 323 1033 331 1030 c 2,27,-1
 390 1007 l 1,28,29
 323 1306 323 1306 323 1398 c 0,30,31
 323 1478 323 1478 352 1515 c 128,-1,32
 381 1552 381 1552 423 1552 c 0,33,34
 473 1552 473 1552 498 1515 c 128,-1,35
 523 1478 523 1478 523 1390 c 0,36,37
 523 1324 523 1324 454 1007 c 1,38,39
 652 1084 652 1084 725 1084 c 0,40,41
 826 1084 826 1084 826 959 c 0,42,43
 826 914 826 914 794.5 889.5 c 128,-1,44
 763 865 763 865 710 865 c 0,45,46
 649 865 649 865 459 939 c 1,47,-1
 487 629 l 2,48,49
 512 352 512 352 529 146 c 1,50,51
 529 8 529 8 423 8 c 0,52,53
 388 8 388 8 364 23 c 0,0,1
EndSplineSet
EndChar

StartChar: daggerdbl
Encoding: 8225 8225 340
Width: 1037
GlyphClass: 2
Flags: W
LayerCount: 2
Fore
SplineSet
934 397 m 1,0,1
 908 381 908 381 880 381 c 0,2,3
 819 381 819 381 761 397 c 128,-1,4
 703 413 703 413 646.5 440 c 128,-1,5
 590 467 590 467 589 467 c 2,6,-1
 603 420 l 2,7,8
 605 415 605 415 614.5 383 c 128,-1,9
 624 351 624 351 628 336.5 c 128,-1,10
 632 322 632 322 640.5 291 c 128,-1,11
 649 260 649 260 653.5 240.5 c 128,-1,12
 658 221 658 221 663.5 195.5 c 128,-1,13
 669 170 669 170 671 150 c 128,-1,14
 673 130 673 130 673 114 c 0,15,16
 673 43 673 43 633 2.5 c 128,-1,17
 593 -38 593 -38 526 -38 c 128,-1,18
 459 -38 459 -38 418.5 2.5 c 128,-1,19
 378 43 378 43 378 112 c 0,20,21
 378 159 378 159 403.5 251.5 c 128,-1,22
 429 344 429 344 435 374 c 1,23,-1
 462 467 l 1,24,25
 263 381 263 381 195 381 c 0,26,27
 133 381 133 381 99 411.5 c 128,-1,28
 65 442 65 442 65 500 c 0,29,30
 65 619 65 619 196 619 c 0,31,32
 267 619 267 619 462 535 c 1,33,-1
 462 979 l 1,34,35
 262 895 262 895 194 895 c 0,36,37
 65 895 65 895 65 1013 c 0,38,39
 65 1071 65 1071 98.5 1102.5 c 128,-1,40
 132 1134 132 1134 194 1134 c 0,41,42
 262 1134 262 1134 462 1047 c 1,43,44
 462 1049 462 1049 444.5 1106.5 c 128,-1,45
 427 1164 427 1164 414.5 1208 c 128,-1,46
 402 1252 402 1252 390 1310 c 128,-1,47
 378 1368 378 1368 378 1400 c 0,48,49
 378 1471 378 1471 418 1511.5 c 128,-1,50
 458 1552 458 1552 526 1552 c 0,51,52
 592 1552 592 1552 632.5 1511 c 128,-1,53
 673 1470 673 1470 673 1402 c 0,54,55
 673 1367 673 1367 662 1317.5 c 128,-1,56
 651 1268 651 1268 625 1176.5 c 128,-1,57
 599 1085 599 1085 589 1047 c 1,58,59
 803 1134 803 1134 867 1134 c 0,60,61
 985 1134 985 1134 985 1000 c 0,62,63
 985 950 985 950 949.5 922.5 c 128,-1,64
 914 895 914 895 855 895 c 0,65,66
 782 895 782 895 589 979 c 1,67,-1
 589 535 l 1,68,69
 790 619 790 619 858 619 c 0,70,71
 919 619 919 619 952 588 c 128,-1,72
 985 557 985 557 985 500 c 0,73,74
 985 432 985 432 934 397 c 1,0,1
EndSplineSet
EndChar

StartChar: bullet
Encoding: 8226 8226 341
Width: 894
GlyphClass: 2
Flags: W
LayerCount: 2
Fore
SplineSet
111 662 m 0,0,1
 111 759 111 759 150.5 841.5 c 128,-1,2
 190 924 190 924 271 977 c 128,-1,3
 352 1030 352 1030 459 1030 c 0,4,5
 564 1030 564 1030 641 978.5 c 128,-1,6
 718 927 718 927 755 845 c 128,-1,7
 792 763 792 763 792 664 c 0,8,9
 792 509 792 509 702 403.5 c 128,-1,10
 612 298 612 298 457 298 c 0,11,12
 299 298 299 298 205 405 c 128,-1,13
 111 512 111 512 111 662 c 0,0,1
EndSplineSet
EndChar

StartChar: ellipsis
Encoding: 8230 8230 342
Width: 1606
GlyphClass: 2
Flags: W
LayerCount: 2
Fore
SplineSet
1358 -37 m 0,0,1
 1295 -37 1295 -37 1256.5 5.5 c 128,-1,2
 1218 48 1218 48 1218 117 c 0,3,4
 1218 189 1218 189 1257 230 c 128,-1,5
 1296 271 1296 271 1372 271 c 0,6,7
 1423 271 1423 271 1460.5 224 c 128,-1,8
 1498 177 1498 177 1498 117 c 0,9,10
 1498 49 1498 49 1460.5 6 c 128,-1,11
 1423 -37 1423 -37 1358 -37 c 0,0,1
664 118 m 0,12,13
 664 183 664 183 703 227 c 128,-1,14
 742 271 742 271 804 271 c 0,15,16
 867 271 867 271 906 228.5 c 128,-1,17
 945 186 945 186 945 117 c 0,18,19
 945 49 945 49 907.5 6 c 128,-1,20
 870 -37 870 -37 806 -37 c 0,21,22
 744 -37 744 -37 704 8.5 c 128,-1,23
 664 54 664 54 664 118 c 0,12,13
252 -37 m 0,24,25
 191 -37 191 -37 151 7 c 128,-1,26
 111 51 111 51 111 117 c 0,27,28
 111 184 111 184 148.5 227.5 c 128,-1,29
 186 271 186 271 252 271 c 0,30,31
 313 271 313 271 352.5 226 c 128,-1,32
 392 181 392 181 392 117 c 0,33,34
 392 49 392 49 354.5 6 c 128,-1,35
 317 -37 317 -37 252 -37 c 0,24,25
EndSplineSet
EndChar

StartChar: guilsinglleft
Encoding: 8249 8249 343
Width: 725
GlyphClass: 2
Flags: W
LayerCount: 2
Fore
SplineSet
80 742 m 1,0,-1
 555 1166 l 1,1,-1
 650 1053 l 1,2,-1
 229 693 l 1,3,-1
 650 333 l 1,4,-1
 555 220 l 1,5,-1
 80 644 l 1,6,-1
 80 742 l 1,0,-1
EndSplineSet
EndChar

StartChar: guilsinglright
Encoding: 8250 8250 344
Width: 729
GlyphClass: 2
Flags: W
LayerCount: 2
Fore
SplineSet
650 742 m 1,0,-1
 175 1166 l 1,1,-1
 80 1053 l 1,2,-1
 501 693 l 1,3,-1
 80 333 l 1,4,-1
 175 220 l 1,5,-1
 650 644 l 1,6,-1
 650 742 l 1,0,-1
EndSplineSet
EndChar

StartChar: fraction
Encoding: 8260 8260 345
Width: 748
GlyphClass: 2
Flags: W
LayerCount: 2
Fore
SplineSet
764 1490 m 1,0,-1
 115 0 l 1,1,-1
 -25 0 l 1,2,-1
 621 1490 l 1,3,-1
 764 1490 l 1,0,-1
EndSplineSet
EndChar

StartChar: Euro
Encoding: 8364 8364 346
Width: 1439
GlyphClass: 2
Flags: W
LayerCount: 2
Fore
SplineSet
58 823 m 1,0,-1
 58 927 l 1,1,-1
 972 928 l 1,2,-1
 972 823 l 1,3,-1
 58 823 l 1,0,-1
58 650 m 1,4,-1
 972 650 l 1,5,-1
 972 549 l 1,6,-1
 58 549 l 1,7,-1
 58 650 l 1,4,-1
1050 462 m 1,8,-1
 1224 436 l 1,9,10
 1219 340 1219 340 1207 272.5 c 128,-1,11
 1195 205 1195 205 1171.5 152 c 128,-1,12
 1148 99 1148 99 1114 66.5 c 128,-1,13
 1080 34 1080 34 1026.5 13 c 128,-1,14
 973 -8 973 -8 906.5 -16 c 128,-1,15
 840 -24 840 -24 746 -24 c 0,16,17
 656 -24 656 -24 585 -19.5 c 128,-1,18
 514 -15 514 -15 455.5 0.5 c 128,-1,19
 397 16 397 16 353.5 30.5 c 128,-1,20
 310 45 310 45 276.5 79 c 128,-1,21
 243 113 243 113 220.5 140 c 128,-1,22
 198 167 198 167 182.5 222.5 c 128,-1,23
 167 278 167 278 159 320 c 128,-1,24
 151 362 151 362 146.5 442 c 128,-1,25
 142 522 142 522 141 582 c 128,-1,26
 140 642 140 642 140 748 c 0,27,28
 140 860 140 860 141 928 c 128,-1,29
 142 996 142 996 147 1076 c 128,-1,30
 152 1156 152 1156 159.5 1200 c 128,-1,31
 167 1244 167 1244 183.5 1296.5 c 128,-1,32
 200 1349 200 1349 221 1374.5 c 128,-1,33
 242 1400 242 1400 276 1430 c 128,-1,34
 310 1460 310 1460 350.5 1471.5 c 128,-1,35
 391 1483 391 1483 449 1495 c 128,-1,36
 507 1507 507 1507 573.5 1510 c 128,-1,37
 640 1513 640 1513 728 1513 c 0,38,39
 819 1513 819 1513 883 1506.5 c 128,-1,40
 947 1500 947 1500 1003 1481.5 c 128,-1,41
 1059 1463 1059 1463 1095 1432.5 c 128,-1,42
 1131 1402 1131 1402 1158.5 1353 c 128,-1,43
 1186 1304 1186 1304 1201 1237.5 c 128,-1,44
 1216 1171 1216 1171 1223 1078 c 1,45,-1
 1048 1044 l 1,46,47
 1043 1095 1043 1095 1039 1129 c 128,-1,48
 1035 1163 1035 1163 1027.5 1196 c 128,-1,49
 1020 1229 1020 1229 1015.5 1249.5 c 128,-1,50
 1011 1270 1011 1270 997 1289.5 c 128,-1,51
 983 1309 983 1309 974.5 1319 c 128,-1,52
 966 1329 966 1329 943 1338 c 128,-1,53
 920 1347 920 1347 904.5 1350.5 c 128,-1,54
 889 1354 889 1354 853.5 1357 c 128,-1,55
 818 1360 818 1360 792 1360 c 128,-1,56
 766 1360 766 1360 716 1360 c 0,57,58
 646 1360 646 1360 601.5 1358.5 c 128,-1,59
 557 1357 557 1357 512.5 1351.5 c 128,-1,60
 468 1346 468 1346 442.5 1335.5 c 128,-1,61
 417 1325 417 1325 395 1307.5 c 128,-1,62
 373 1290 373 1290 363.5 1264.5 c 128,-1,63
 354 1239 354 1239 352 1203 c 0,64,65
 343 939 343 939 343 664 c 0,66,67
 343 472 343 472 352 289 c 1,68,69
 357 232 357 232 384.5 200 c 128,-1,70
 412 168 412 168 491.5 149 c 128,-1,71
 571 130 571 130 717 130 c 0,72,73
 795 130 795 130 848 134.5 c 128,-1,74
 901 139 901 139 937 155.5 c 128,-1,75
 973 172 973 172 992 185.5 c 128,-1,76
 1011 199 1011 199 1022.5 238 c 128,-1,77
 1034 277 1034 277 1037.5 303.5 c 128,-1,78
 1041 330 1041 330 1045 394 c 0,79,80
 1046 408 1046 408 1046.5 416 c 128,-1,81
 1047 424 1047 424 1048 437.5 c 128,-1,82
 1049 451 1049 451 1050 462 c 1,8,-1
EndSplineSet
EndChar

StartChar: trademark
Encoding: 8482 8482 347
Width: 1125
GlyphClass: 2
Flags: W
LayerCount: 2
Fore
SplineSet
515 990 m 1,0,-1
 515 1521 l 1,1,-1
 634 1521 l 1,2,3
 634 1521 634 1521 758 1132 c 1,4,5
 758 1132 758 1132 874 1521 c 1,6,-1
 993 1521 l 1,7,-1
 993 990 l 1,8,-1
 897 990 l 1,9,-1
 897 1346 l 1,10,-1
 790 990 l 1,11,-1
 706 990 l 1,12,-1
 601 1346 l 1,13,-1
 601 990 l 1,14,-1
 515 990 l 1,0,-1
205 990 m 1,15,-1
 205 1448 l 1,16,-1
 83 1448 l 1,17,-1
 83 1521 l 1,18,-1
 429 1521 l 1,19,-1
 429 1448 l 1,20,-1
 307 1448 l 1,21,-1
 307 990 l 1,22,-1
 205 990 l 1,15,-1
EndSplineSet
EndChar

StartChar: uniF6C3
Encoding: 63171 63171 349
Width: 679
GlyphClass: 2
Flags: W
LayerCount: 2
Fore
SplineSet
331 -140 m 0,0,1
 410 -140 410 -140 456.5 -199 c 128,-1,2
 503 -258 503 -258 503 -356 c 0,3,4
 503 -489 503 -489 412.5 -590 c 128,-1,5
 322 -691 322 -691 190 -691 c 1,6,-1
 190 -631 l 1,7,8
 247 -629 247 -629 282.5 -582.5 c 128,-1,9
 318 -536 318 -536 318 -466 c 1,10,11
 176 -459 176 -459 176 -296 c 0,12,13
 176 -246 176 -246 220 -193 c 128,-1,14
 264 -140 264 -140 331 -140 c 0,0,1
EndSplineSet
EndChar

